<svg width="24" height="19" viewBox="0 0 24 19" fill="none" xmlns="http://www.w3.org/2000/svg">
<path d="M24 7.01347C24 5.8173 23.0335 4.84572 21.8435 4.84572C20.6536 4.84572 19.687 5.8173 19.687 7.01347C19.687 7.83868 20.1464 8.5579 20.8218 8.92382C20.8042 11.4121 20.4778 11.7603 17.887 11.7603V7.88915C17.8895 3.81105 12.949 0.0484034 9.0728 0.000455445C5.09121 -0.0474925 0 3.69749 0 7.88663V19.0005H17.8895V14.2561C19.9456 14.4631 22.3431 14.1325 23.0008 11.7755C23.272 10.8089 23.2142 9.87521 23.2117 8.68913C23.6937 8.2904 24.0025 7.68727 24.0025 7.01347H24ZM7.95063 7.01347H9.93891V11.0108H7.95063V7.01347ZM3.97657 7.01347H5.96485V11.0108H3.97657V7.01347ZM12.9188 16.005H4.9682V13.5066H12.9188V16.005ZM13.913 11.0083H11.9247V7.01095H13.913V11.0083ZM21.0728 9.03485C21.1029 9.04747 21.1356 9.06009 21.1657 9.07018C21.1255 9.07523 21.0979 9.06009 21.0728 9.03485Z" fill="white"/>
</svg>
