<svg width="2077" height="267" viewBox="0 0 2077 267" fill="none" xmlns="http://www.w3.org/2000/svg">
<mask id="path-1-inside-1_2125_353" fill="white">
<path d="M0.932129 133.782C0.932129 108.129 6.48211 85.312 17.5821 65.332C28.6821 45.105 44.0991 29.442 63.8321 18.342C83.8121 6.99504 106.382 1.32202 131.542 1.32202C162.375 1.32202 188.769 9.46203 210.722 25.742C232.675 42.022 247.352 64.222 254.752 92.342H185.192C180.012 81.489 172.612 73.225 162.992 67.552C153.619 61.879 142.889 59.042 130.802 59.042C111.315 59.042 95.5291 65.825 83.4421 79.392C71.3551 92.959 65.3121 111.089 65.3121 133.782C65.3121 156.475 71.3551 174.605 83.4421 188.172C95.5291 201.739 111.315 208.522 130.802 208.522C142.889 208.522 153.619 205.685 162.992 200.012C172.612 194.339 180.012 186.075 185.192 175.222H254.752C247.352 203.342 232.675 225.542 210.722 241.822C188.769 257.855 162.375 265.872 131.542 265.872C106.382 265.872 83.8121 260.322 63.8321 249.222C44.0991 237.875 28.6821 222.212 17.5821 202.232C6.48211 182.252 0.932129 159.435 0.932129 133.782ZM518.458 4.28204V264.022H455.188V157.092H356.768V264.022H293.498V4.28204H356.768V106.032H455.188V4.28204H518.458ZM627.403 54.972V107.512H712.133V156.352H627.403V213.332H723.233V264.022H564.133V4.28204H723.233V54.972H627.403ZM827.582 54.972V107.512H912.312V156.352H827.582V213.332H923.412V264.022H764.312V4.28204H923.412V54.972H827.582ZM1096.94 264.022L1042.92 165.972H1027.75V264.022H964.482V4.28204H1070.67C1091.15 4.28204 1108.54 7.85902 1122.84 15.012C1137.4 22.165 1148.25 32.032 1155.4 44.612C1162.56 56.945 1166.13 70.759 1166.13 86.052C1166.13 103.319 1161.2 118.735 1151.33 132.302C1141.71 145.869 1127.41 155.489 1108.41 161.162L1168.35 264.022H1096.94ZM1027.75 121.202H1066.97C1078.57 121.202 1087.2 118.365 1092.87 112.692C1098.79 107.019 1101.75 99.002 1101.75 88.642C1101.75 78.775 1098.79 71.005 1092.87 65.332C1087.2 59.659 1078.57 56.822 1066.97 56.822H1027.75V121.202ZM1299.83 266.612C1280.84 266.612 1263.82 263.529 1248.77 257.362C1233.72 251.195 1221.64 242.069 1212.51 229.982C1203.63 217.895 1198.94 203.342 1198.45 186.322H1265.79C1266.78 195.942 1270.11 203.342 1275.78 208.522C1281.45 213.455 1288.85 215.922 1297.98 215.922C1307.35 215.922 1314.75 213.825 1320.18 209.632C1325.61 205.192 1328.32 199.149 1328.32 191.502C1328.32 185.089 1326.1 179.785 1321.66 175.592C1317.47 171.399 1312.16 167.945 1305.75 165.232C1299.58 162.519 1290.7 159.435 1279.11 155.982C1262.34 150.802 1248.65 145.622 1238.04 140.442C1227.43 135.262 1218.31 127.615 1210.66 117.502C1203.01 107.389 1199.19 94.192 1199.19 77.912C1199.19 53.739 1207.95 34.869 1225.46 21.302C1242.97 7.48903 1265.79 0.582031 1293.91 0.582031C1322.52 0.582031 1345.59 7.48903 1363.1 21.302C1380.61 34.869 1389.99 53.862 1391.22 78.282H1322.77C1322.28 69.895 1319.19 63.359 1313.52 58.672C1307.85 53.739 1300.57 51.272 1291.69 51.272C1284.04 51.272 1277.88 53.369 1273.19 57.562C1268.5 61.509 1266.16 67.305 1266.16 74.952C1266.16 83.339 1270.11 89.875 1278 94.562C1285.89 99.249 1298.23 104.305 1315 109.732C1331.77 115.405 1345.34 120.832 1355.7 126.012C1366.31 131.192 1375.43 138.715 1383.08 148.582C1390.73 158.449 1394.55 171.152 1394.55 186.692C1394.55 201.492 1390.73 214.935 1383.08 227.022C1375.68 239.109 1364.83 248.729 1350.52 255.882C1336.21 263.035 1319.32 266.612 1299.83 266.612ZM1496.76 4.28204V264.022H1433.49V4.28204H1496.76ZM1774.97 264.022H1711.7L1605.88 103.812V264.022H1542.61V4.28204H1605.88L1711.7 165.232V4.28204H1774.97V264.022ZM1943.67 266.612C1919.25 266.612 1896.8 260.939 1876.33 249.592C1856.1 238.245 1839.95 222.459 1827.86 202.232C1816.02 181.759 1810.1 158.819 1810.1 133.412C1810.1 108.005 1816.02 85.189 1827.86 64.962C1839.95 44.735 1856.1 28.949 1876.33 17.602C1896.8 6.25502 1919.25 0.582031 1943.67 0.582031C1968.09 0.582031 1990.41 6.25502 2010.64 17.602C2031.11 28.949 2047.15 44.735 2058.74 64.962C2070.58 85.189 2076.5 108.005 2076.5 133.412C2076.5 158.819 2070.58 181.759 2058.74 202.232C2046.9 222.459 2030.87 238.245 2010.64 249.592C1990.41 260.939 1968.09 266.612 1943.67 266.612ZM1943.67 208.892C1964.39 208.892 1980.92 201.985 1993.25 188.172C2005.83 174.359 2012.12 156.105 2012.12 133.412C2012.12 110.472 2005.83 92.219 1993.25 78.652C1980.92 64.839 1964.39 57.932 1943.67 57.932C1922.7 57.932 1905.93 64.715 1893.35 78.282C1881.02 91.849 1874.85 110.225 1874.85 133.412C1874.85 156.352 1881.02 174.729 1893.35 188.542C1905.93 202.109 1922.7 208.892 1943.67 208.892Z"/>
</mask>
<path d="M0.932129 133.782C0.932129 108.129 6.48211 85.312 17.5821 65.332C28.6821 45.105 44.0991 29.442 63.8321 18.342C83.8121 6.99504 106.382 1.32202 131.542 1.32202C162.375 1.32202 188.769 9.46203 210.722 25.742C232.675 42.022 247.352 64.222 254.752 92.342H185.192C180.012 81.489 172.612 73.225 162.992 67.552C153.619 61.879 142.889 59.042 130.802 59.042C111.315 59.042 95.5291 65.825 83.4421 79.392C71.3551 92.959 65.3121 111.089 65.3121 133.782C65.3121 156.475 71.3551 174.605 83.4421 188.172C95.5291 201.739 111.315 208.522 130.802 208.522C142.889 208.522 153.619 205.685 162.992 200.012C172.612 194.339 180.012 186.075 185.192 175.222H254.752C247.352 203.342 232.675 225.542 210.722 241.822C188.769 257.855 162.375 265.872 131.542 265.872C106.382 265.872 83.8121 260.322 63.8321 249.222C44.0991 237.875 28.6821 222.212 17.5821 202.232C6.48211 182.252 0.932129 159.435 0.932129 133.782ZM518.458 4.28204V264.022H455.188V157.092H356.768V264.022H293.498V4.28204H356.768V106.032H455.188V4.28204H518.458ZM627.403 54.972V107.512H712.133V156.352H627.403V213.332H723.233V264.022H564.133V4.28204H723.233V54.972H627.403ZM827.582 54.972V107.512H912.312V156.352H827.582V213.332H923.412V264.022H764.312V4.28204H923.412V54.972H827.582ZM1096.94 264.022L1042.92 165.972H1027.75V264.022H964.482V4.28204H1070.67C1091.15 4.28204 1108.54 7.85902 1122.84 15.012C1137.4 22.165 1148.25 32.032 1155.4 44.612C1162.56 56.945 1166.13 70.759 1166.13 86.052C1166.13 103.319 1161.2 118.735 1151.33 132.302C1141.71 145.869 1127.41 155.489 1108.41 161.162L1168.35 264.022H1096.94ZM1027.75 121.202H1066.97C1078.57 121.202 1087.2 118.365 1092.87 112.692C1098.79 107.019 1101.75 99.002 1101.75 88.642C1101.75 78.775 1098.79 71.005 1092.87 65.332C1087.2 59.659 1078.57 56.822 1066.97 56.822H1027.75V121.202ZM1299.83 266.612C1280.84 266.612 1263.82 263.529 1248.77 257.362C1233.72 251.195 1221.64 242.069 1212.51 229.982C1203.63 217.895 1198.94 203.342 1198.45 186.322H1265.79C1266.78 195.942 1270.11 203.342 1275.78 208.522C1281.45 213.455 1288.85 215.922 1297.98 215.922C1307.35 215.922 1314.75 213.825 1320.18 209.632C1325.61 205.192 1328.32 199.149 1328.32 191.502C1328.32 185.089 1326.1 179.785 1321.66 175.592C1317.47 171.399 1312.16 167.945 1305.75 165.232C1299.58 162.519 1290.7 159.435 1279.11 155.982C1262.34 150.802 1248.65 145.622 1238.04 140.442C1227.43 135.262 1218.31 127.615 1210.66 117.502C1203.01 107.389 1199.19 94.192 1199.19 77.912C1199.19 53.739 1207.95 34.869 1225.46 21.302C1242.97 7.48903 1265.79 0.582031 1293.91 0.582031C1322.52 0.582031 1345.59 7.48903 1363.1 21.302C1380.61 34.869 1389.99 53.862 1391.22 78.282H1322.77C1322.28 69.895 1319.19 63.359 1313.52 58.672C1307.85 53.739 1300.57 51.272 1291.69 51.272C1284.04 51.272 1277.88 53.369 1273.19 57.562C1268.5 61.509 1266.16 67.305 1266.16 74.952C1266.16 83.339 1270.11 89.875 1278 94.562C1285.89 99.249 1298.23 104.305 1315 109.732C1331.77 115.405 1345.34 120.832 1355.7 126.012C1366.31 131.192 1375.43 138.715 1383.08 148.582C1390.73 158.449 1394.55 171.152 1394.55 186.692C1394.55 201.492 1390.73 214.935 1383.08 227.022C1375.68 239.109 1364.83 248.729 1350.52 255.882C1336.21 263.035 1319.32 266.612 1299.83 266.612ZM1496.76 4.28204V264.022H1433.49V4.28204H1496.76ZM1774.97 264.022H1711.7L1605.88 103.812V264.022H1542.61V4.28204H1605.88L1711.7 165.232V4.28204H1774.97V264.022ZM1943.67 266.612C1919.25 266.612 1896.8 260.939 1876.33 249.592C1856.1 238.245 1839.95 222.459 1827.86 202.232C1816.02 181.759 1810.1 158.819 1810.1 133.412C1810.1 108.005 1816.02 85.189 1827.86 64.962C1839.95 44.735 1856.1 28.949 1876.33 17.602C1896.8 6.25502 1919.25 0.582031 1943.67 0.582031C1968.09 0.582031 1990.41 6.25502 2010.64 17.602C2031.11 28.949 2047.15 44.735 2058.74 64.962C2070.58 85.189 2076.5 108.005 2076.5 133.412C2076.5 158.819 2070.58 181.759 2058.74 202.232C2046.9 222.459 2030.87 238.245 2010.64 249.592C1990.41 260.939 1968.09 266.612 1943.67 266.612ZM1943.67 208.892C1964.39 208.892 1980.92 201.985 1993.25 188.172C2005.83 174.359 2012.12 156.105 2012.12 133.412C2012.12 110.472 2005.83 92.219 1993.25 78.652C1980.92 64.839 1964.39 57.932 1943.67 57.932C1922.7 57.932 1905.93 64.715 1893.35 78.282C1881.02 91.849 1874.85 110.225 1874.85 133.412C1874.85 156.352 1881.02 174.729 1893.35 188.542C1905.93 202.109 1922.7 208.892 1943.67 208.892Z" fill="white" stroke="black" stroke-width="2" mask="url(#path-1-inside-1_2125_353)"/>
</svg>
