<svg width="28" height="32" viewBox="0 0 28 32" fill="none" xmlns="http://www.w3.org/2000/svg">
<g clip-path="url(#clip0_183_116)">
<path d="M28 10.6487C28 10.6462 28 10.6437 28 10.6412V10.101C28 9.36249 27.8099 8.63396 27.45 7.99378C27.0902 7.3536 26.5704 6.81897 25.9466 6.44776L16.0771 0.572058C14.7959 -0.190686 13.2039 -0.190686 11.9229 0.572058L2.05339 6.44755C1.42959 6.81897 0.909757 7.3536 0.550029 7.99357C0.190301 8.63375 0 9.36249 0 10.101V10.6412C0 10.6437 0 10.6462 0 10.6487V21.9152H0.000405327C0.00324262 22.6481 0.192936 23.3708 0.550029 24.0062C0.907122 24.6416 1.42209 25.1729 2.03981 25.5439L2.05197 25.5514C2.05258 25.5518 2.05318 25.552 2.05359 25.5524L11.9231 31.4281C12.5637 31.8095 13.282 32.0003 14.0002 32.0003C14.7184 32.0003 15.4367 31.8095 16.0773 31.4281L25.9468 25.5524C25.9468 25.5524 25.948 25.5518 25.9484 25.5514L25.9606 25.5442C26.5783 25.1729 27.0933 24.6416 27.4504 24.0062C27.8075 23.3708 27.9974 22.6481 28 21.9152H28.0004V10.6487H28ZM12.5749 1.71846C13.0144 1.45674 13.5073 1.32588 14.0002 1.32588C14.4931 1.32588 14.986 1.45674 15.4255 1.71846L25.264 7.5757C25.5224 7.72978 25.5502 7.9832 25.5502 8.08523C25.5502 8.18726 25.5224 8.43861 25.2669 8.59269L17.8425 13.0126L15.4217 14.4537C14.5446 14.9742 13.4561 14.9742 12.5789 14.4537L4.31126 9.53192L2.73657 8.59456C2.47817 8.44068 2.45041 8.18706 2.45041 8.08523C2.45041 7.98341 2.47837 7.72978 2.73657 7.57591L12.5749 1.71846ZM1.29644 10.6429C1.29907 10.2335 1.56821 10.0307 1.68434 9.96223C1.80107 9.89359 2.10993 9.7563 2.45912 9.9641L3.33767 10.4871L11.9229 15.598C11.9239 15.5986 11.9251 15.5992 11.9261 15.5999L12.9672 16.2195C13.2045 16.3607 13.3519 16.6231 13.3519 16.9039V29.3672C13.3519 29.7805 13.0805 29.985 12.964 30.0536C12.8472 30.1223 12.5382 30.2596 12.1892 30.0518L2.70394 24.4048C1.83593 23.8872 1.29664 22.9272 1.29664 21.899V10.6429H1.29644ZM25.2965 24.4048L15.8112 30.0518C15.462 30.2596 15.153 30.1225 15.0364 30.0536C14.9197 29.985 14.6485 29.7807 14.6485 29.3672V16.9039C14.6485 16.6231 14.7959 16.3607 15.0332 16.2195L16.0741 15.5999C16.0753 15.5992 16.0763 15.5986 16.0775 15.598L18.4063 14.2114L25.5413 9.9641C25.8905 9.7563 26.1995 9.89338 26.3161 9.96223C26.4322 10.0305 26.7013 10.2333 26.704 10.6429V21.899C26.704 22.9272 26.1647 23.8872 25.2967 24.4048H25.2965Z" fill="#F74799"/>
<path d="M4.30846 16.5508C5.07757 17.0051 5.70299 16.6406 5.70562 15.7362C5.70806 14.832 5.08669 13.7304 4.31758 13.276C3.54847 12.8217 2.92305 13.1864 2.92042 14.0908C2.91799 14.9954 3.53935 16.0966 4.30846 16.551V16.5508Z" fill="#F74799"/>
<path d="M10.0765 19.9583C10.8456 20.4127 11.4711 20.0481 11.4737 19.1435C11.4761 18.2393 10.8548 17.1377 10.0856 16.6833C9.31634 16.2288 8.69112 16.5938 8.68848 17.4981C8.68605 18.4027 9.30722 19.5037 10.0765 19.9583Z" fill="#F74799"/>
<path d="M4.28991 23.3327C5.05901 23.7871 5.68443 23.4223 5.68707 22.5179C5.6895 21.6137 5.06813 20.5121 4.29903 20.0578C3.52992 19.6034 2.9045 19.9682 2.90186 20.8726C2.89943 21.7767 3.5208 22.8783 4.28991 23.3327Z" fill="#F74799"/>
<path d="M10.0575 26.74C10.8266 27.1944 11.452 26.8296 11.4546 25.9252C11.4571 25.0211 10.8357 23.9194 10.0666 23.4651C9.29729 23.0105 8.67208 23.3755 8.66944 24.2799C8.66681 25.1843 9.28817 26.2854 10.0575 26.74Z" fill="#F74799"/>
<path d="M7.18346 21.529C7.95257 21.9834 8.57799 21.6188 8.58062 20.7142C8.58306 19.81 7.96169 18.7084 7.19258 18.2541C6.42347 17.7997 5.79805 18.1645 5.79542 19.0686C5.79299 19.9732 6.41435 21.0744 7.18346 21.5288V21.529Z" fill="#F74799"/>
<path d="M23.6825 13.2756C22.9134 13.73 22.292 14.8316 22.2944 15.7358C22.2969 16.6404 22.9225 17.0047 23.6916 16.5504C24.4607 16.096 25.0821 14.9948 25.0796 14.0902C25.0772 13.186 24.4516 12.8212 23.6825 13.2754V13.2756Z" fill="#F74799"/>
<path d="M17.9335 23.4654C17.1644 23.9198 16.543 25.0214 16.5454 25.9256C16.5478 26.8298 17.1735 27.1945 17.9426 26.7404C18.7119 26.2858 19.3331 25.1844 19.3306 24.2802C19.3282 23.3761 18.7028 23.0111 17.9335 23.4654Z" fill="#F74799"/>
<path d="M20.8075 18.2543C20.0384 18.7087 19.417 19.8103 19.4194 20.7145C19.4219 21.6191 20.0475 21.9834 20.8166 21.5293C21.5857 21.0749 22.2071 19.9737 22.2046 19.0691C22.2022 18.165 21.5766 17.8002 20.8075 18.2545V18.2543Z" fill="#F74799"/>
<path d="M12.5986 8.92607C13.3677 9.38044 14.6107 9.38044 15.3747 8.92607C16.1387 8.4717 16.1347 7.73488 15.3656 7.28072C14.5963 6.82635 13.3535 6.82635 12.5895 7.28072C11.8255 7.73509 11.8293 8.4717 12.5986 8.92607Z" fill="#F74799"/>
</g>
<defs>
<clipPath id="clip0_183_116">
<rect width="28" height="32" fill="white"/>
</clipPath>
</defs>
</svg>
