<svg width="542" height="184" viewBox="0 0 542 184" fill="none" xmlns="http://www.w3.org/2000/svg">
<path d="M55.1279 9.88184C55.0308 9.84136 54.8581 9.79698 54.5312 9.94727C38.7434 17.2067 25.4106 28.8922 16.1279 43.4141C15.2664 44.7619 15.2118 46.5749 15.5967 49.0889C15.7906 50.3553 16.0449 51.531 16.291 52.9189C16.5238 54.2315 16.7285 55.6352 16.7285 57.0117C16.7284 62.2427 12.4851 66.4814 7.25391 66.4814C6.72673 66.4815 6.22886 66.6059 5.87695 66.7979C5.54216 66.9805 5.42935 67.1657 5.38867 67.3096C3.1817 75.1154 2 83.3538 2 91.8711C2.00006 122.773 17.5584 150.045 41.2832 166.285C42.0302 166.796 42.9904 167.036 44.2686 167.106C45.6774 167.184 46.8475 167.061 48.5381 167.061C53.3424 167.061 57.3107 170.636 57.9268 175.271C68.4847 179.607 80.0493 182 92.1777 182C128.519 182 159.843 160.514 174.12 129.552C174.264 129.239 174.221 129.078 174.185 128.991C174.131 128.862 173.985 128.671 173.688 128.513C173.066 128.181 172.298 128.242 171.786 128.754C139.641 160.883 87.5226 160.882 55.377 128.754C52.6192 125.998 50.0971 123.093 47.8115 120.066C47.0119 119.008 45.4538 118.415 43.5557 118.415C35.9657 118.415 29.8115 112.265 29.8115 104.677C29.8115 100.988 30.7951 97.1554 31.54 93.7363C32.3145 90.1818 32.8581 86.9906 32.3711 84.041C28.1978 58.764 35.8643 31.9047 55.377 12.4023C55.9141 11.8653 55.9785 11.0579 55.6338 10.4062C55.4696 10.0961 55.2678 9.94023 55.1279 9.88184ZM56.1426 176.552L58.0117 176.558V176.555L56.1426 176.552Z" fill="#FF468D" stroke="white" stroke-width="4"/>
<path d="M143.635 28.6055L177.933 57.0684L178.282 44.2637L178.322 42.8037H179.772C179.781 42.8034 179.802 42.803 179.832 42.8008C179.892 42.7963 179.989 42.7861 180.11 42.7656C180.358 42.7233 180.667 42.6419 180.958 42.4932C181.242 42.3478 181.486 42.151 181.663 41.8799C181.834 41.6165 182 41.1951 182 40.5C182 39.164 181.433 38.5819 180.941 38.2676C180.661 38.0889 180.371 37.9807 180.144 37.918C180.033 37.8873 179.945 37.8687 179.891 37.8594C179.874 37.8564 179.86 37.8539 179.851 37.8525L178.459 37.7197L178.498 36.3193L178.713 28.375L178.756 26.8145L180.314 26.9189L208.921 28.8398L210.408 28.9395L210.319 30.4268L205.903 103.674L205.766 105.938L203.736 104.927L169.288 87.7471L170.479 107.815L170.567 109.308L169.075 109.401L162.187 109.833L161.181 109.896L160.748 108.998L160.747 108.996C160.746 108.995 160.745 108.994 160.745 108.993L160.744 108.99L160.743 108.989V108.988C160.742 108.987 160.741 108.986 160.741 108.984C160.732 108.968 160.715 108.938 160.691 108.896C160.642 108.811 160.562 108.678 160.448 108.514C160.218 108.183 159.861 107.734 159.359 107.285C158.37 106.4 156.816 105.5 154.5 105.5C152.328 105.5 151.222 106.482 150.598 107.427C150.268 107.927 150.064 108.438 149.944 108.828C149.885 109.021 149.848 109.178 149.827 109.28C149.816 109.331 149.81 109.368 149.806 109.388C149.804 109.398 149.803 109.404 149.803 109.405L149.644 110.62L148.411 110.697L141.523 111.129L139.904 111.23L139.929 109.608L141.177 29.7363L141.226 26.6064L143.635 28.6055ZM149.802 109.403C149.802 109.403 149.804 109.402 149.804 109.4V109.398L149.802 109.403ZM179.838 37.8516C179.84 37.8517 179.842 37.8523 179.844 37.8525H179.846C179.844 37.8522 179.842 37.8518 179.84 37.8516H179.838Z" fill="#FF468D" stroke="white" stroke-width="3"/>
<path d="M78.2739 27.2266L105.73 32.0264L107.043 32.2559L106.969 33.5869L104.473 78.707L104.469 78.7803L104.458 78.8525C104.224 80.3777 104.234 81.6579 104.442 82.7188C104.751 83.9466 105.029 84.7035 105.247 85.0957C105.404 85.3783 105.523 85.5857 105.606 85.7246C105.631 85.7663 105.651 85.7974 105.666 85.8203C106.069 86.2487 106.469 86.4573 106.878 86.5352C106.915 86.5169 106.984 86.4792 107.083 86.3965C107.367 86.1619 107.754 85.7099 108.226 84.9424L108.306 84.8105C108.319 84.7869 108.336 84.7582 108.354 84.7217C108.435 84.5595 108.548 84.3164 108.699 83.9863C108.947 83.3835 109.245 82.2208 109.562 80.3848C109.857 78.6739 109.954 76.5223 109.83 73.9062L107.814 37.042L107.742 35.7246L109.04 35.4854L135.055 30.6846L136.758 30.3711L136.827 32.1016C136.996 36.4242 137.141 40.374 137.26 43.9502L137.288 44.7598L136.625 45.2266C134.811 46.5036 133.794 48.3497 133.731 50.0283C133.676 51.5073 134.349 53.0727 136.345 54.2109L136.762 54.4326L137.566 54.8311L137.595 55.7275C137.787 61.6811 137.915 66.2644 137.979 69.4736C138.043 72.6704 138.076 74.7981 138.076 75.8398V77.376C138.14 81.3609 137.845 85.1939 137.188 88.8721C136.519 92.6189 135.277 96.0523 133.454 99.1592C131.674 102.236 129.221 104.884 126.123 107.106L126.117 107.11C123.023 109.311 119.193 110.819 114.681 111.682L114.173 111.778L113.713 111.542C109.545 109.398 106.73 108.475 104.479 108.516C102.351 108.554 100.501 109.466 98.2671 111.662L97.6919 112.228L96.9028 112.06C91.8891 110.99 87.6712 108.966 84.3101 105.948L84.3042 105.943L84.2983 105.938C81.0213 102.934 78.6479 99.1558 77.1665 94.6445L77.1646 94.6377C75.7009 90.1136 75.0431 85.1851 75.1714 79.8662V78.9121C75.1714 78.2444 75.2042 76.876 75.2681 74.833C75.3317 72.7955 75.3965 69.9234 75.4604 66.2139L75.4741 65.4121L76.1489 64.9785C78.2624 63.6198 79.1114 61.9007 79.1001 59.8965C79.088 57.7727 78.1028 55.1569 76.1021 52.2012L75.8296 51.7988L75.8442 51.3135C76.0362 45.107 76.2601 37.5563 76.5161 28.6611L76.5659 26.9277L78.2739 27.2266Z" fill="#FF468D" stroke="white" stroke-width="3"/>
<path d="M254.911 81.9957C252.568 94.9945 253.786 106.925 255.598 115.62C256.503 119.964 257.555 123.489 258.378 125.922C258.789 127.138 259.143 128.08 259.392 128.714C259.516 129.031 259.614 129.271 259.68 129.429C259.713 129.508 259.738 129.567 259.755 129.605C259.763 129.624 259.769 129.638 259.773 129.646C259.775 129.65 259.776 129.653 259.777 129.654L259.778 129.656L259.777 129.655L261.043 132.521L248.376 129.127L248.53 127.837L248.531 127.835C248.532 127.821 248.534 127.793 248.536 127.756C248.54 127.679 248.544 127.559 248.541 127.409C248.533 127.103 248.494 126.7 248.379 126.289C248.156 125.497 247.692 124.758 246.588 124.442C245.499 124.131 244.677 124.52 244.011 125.122C243.672 125.428 243.405 125.769 243.222 126.039C243.132 126.171 243.065 126.281 243.024 126.354C243.004 126.389 242.989 126.415 242.982 126.429C242.981 126.43 242.979 126.431 242.979 126.432L242.435 127.535L221.45 121.912L223.981 120.064L223.981 120.063C223.982 120.062 223.985 120.06 223.988 120.058C223.996 120.052 224.008 120.044 224.025 120.031C224.058 120.007 224.109 119.968 224.177 119.916C224.313 119.812 224.518 119.653 224.785 119.441C225.317 119.017 226.095 118.378 227.059 117.53C228.988 115.835 231.66 113.307 234.616 109.998C240.533 103.374 247.553 93.6509 252.023 81.2221L254.911 81.9957Z" fill="#FF4693" stroke="white" stroke-width="3"/>
<path d="M273.112 13.0808C273.247 13.4558 279.413 31.0337 296.175 50.7615C304.898 61.0251 309.342 71.2121 310.102 80.438C310.864 89.6893 307.909 97.8915 301.999 104.05C295.943 110.362 284.564 112.973 274.195 110.172C264.384 107.522 255.385 100.023 252.235 86.2082C242.602 96.5973 231.062 98.5938 221.242 95.9837C210.863 93.2248 202.314 85.2744 200.225 76.7793L200.024 75.9611L200.618 75.363C204.716 71.2394 206.64 67.6184 207.258 64.0628C207.881 60.48 207.215 56.7601 205.741 52.3522L205.49 51.5994L205.971 50.9679C211.339 43.9147 219.968 37.8113 231.921 33.5448C234.723 32.5444 237.39 31.4989 239.916 30.4309C242.85 29.1906 245.593 27.9198 248.139 26.6561L248.828 26.314L249.508 26.6742C252.692 28.3615 255.122 27.9258 256.608 26.8708C258.164 25.7661 258.904 23.8608 258.534 22.1276L258.312 21.0906L259.216 20.5361C266.559 16.0308 270.57 12.5854 270.72 12.4559L272.371 11.029L273.112 13.0808Z" fill="#FF4693" stroke="white" stroke-width="3"/>
<path d="M498.009 26.8652C502.507 25.7409 506.756 25.3972 510.742 25.8701L510.741 25.8711C514.712 26.2707 518.323 27.2019 521.558 28.6846C524.758 30.151 527.494 31.967 529.743 34.1455C532.002 36.2089 533.746 38.3494 534.929 40.5762L534.934 40.584L534.938 40.5918C536.992 44.5681 538.504 49.0498 539.488 54.0234L539.677 54.957C540.572 59.6294 540.738 64.4654 540.185 69.459C539.656 74.8205 538.169 80.2251 535.743 85.667L535.308 86.6436L534.243 86.5508C531.729 86.3315 529.568 87.5605 527.951 89.9814C526.311 92.435 525.313 96.031 525.313 100.128V100.749L524.874 101.188C522.448 103.614 519.506 105.714 516.066 107.501C512.684 109.291 509.044 110.647 505.151 111.571C501.493 112.439 497.724 112.87 493.846 112.866L493.069 112.86C488.936 112.794 484.931 112.059 481.062 110.658V110.657C477.229 109.31 473.709 107.228 470.505 104.425C467.248 101.574 464.631 97.9009 462.636 93.4453V93.4443C460.399 88.5064 459.069 83.5731 458.669 78.6494L458.67 78.6484C458.211 73.7681 458.507 69.0669 459.569 64.5527C460.627 59.9894 462.348 55.6877 464.729 51.6533C467.102 47.6322 469.971 44.0049 473.333 40.7744C476.688 37.4876 480.436 34.662 484.573 32.2979L485.121 31.9844L485.727 32.1572C491.943 33.9243 496.28 31.0061 496.905 28.0137L497.097 27.0928L498.009 26.8652ZM506.226 56.1475C504.753 55.3837 503.138 55.0492 501.346 55.1611C499.535 55.2744 497.656 55.8135 495.7 56.8213L495.684 56.8301L495.667 56.8379C493.747 57.7692 491.979 59.1168 490.368 60.9072L490.36 60.917L490.351 60.9258C488.763 62.6313 487.416 64.7425 486.324 67.2832L486.14 67.7529C485.254 70.12 484.801 72.7467 484.801 75.6484V75.6641L484.8 75.6797C484.739 78.6126 485.142 80.8544 485.905 82.4932C486.768 84.2102 487.783 85.4126 488.912 86.1924C490.147 86.9374 491.554 87.3775 493.163 87.4932C494.818 87.548 496.448 87.2916 498.06 86.7158L498.076 86.71C499.774 86.1243 501.358 85.2747 502.832 84.1562C504.299 82.9791 505.525 81.6338 506.518 80.1182C508.072 77.6947 509.16 75.5044 509.814 73.542L509.818 73.5293L509.823 73.5166C510.558 71.4333 510.968 69.5834 511.084 67.957L511.086 67.9307L511.089 67.9043C511.267 66.2417 511.203 64.7739 510.923 63.4863C510.626 62.1167 510.215 60.9264 509.704 59.9033L509.695 59.8857L509.687 59.8691C508.851 58.0853 507.698 56.883 506.247 56.1572L506.236 56.1523L506.226 56.1475Z" fill="#FF468D" stroke="white" stroke-width="3"/>
<path d="M395.198 28.6055L429.555 57.1172L430.061 46.4287L430.098 45.6533L430.752 45.2354C430.754 45.2342 430.757 45.2331 430.759 45.2314C430.773 45.222 430.799 45.2047 430.833 45.1797C430.903 45.1295 431.011 45.0488 431.144 44.9395C431.412 44.7189 431.773 44.3888 432.131 43.9619C432.856 43.0991 433.5 41.9294 433.5 40.5C433.5 39.092 432.874 38.0697 432.196 37.3604C431.855 37.0039 431.512 36.7394 431.256 36.5664C431.13 36.4806 431.027 36.4199 430.962 36.3828L430.896 36.3457L430.029 35.918L430.06 34.9512L430.277 28.3672L430.328 26.8154L431.876 26.9189L460.484 28.8398L461.97 28.9395L461.881 30.4268L457.465 103.674L457.33 105.92L455.309 104.932L441.841 98.3477L440.802 97.8398L441.024 96.7295V96.7275C441.026 96.7039 441.032 96.6523 441.032 96.5781C441.032 96.4292 441.014 96.1953 440.933 95.9121C440.78 95.3758 440.368 94.5485 439.167 93.748C438.096 93.0342 437.044 93.0266 436.201 93.2139C435.773 93.309 435.412 93.4536 435.161 93.5732C435.036 93.6324 434.943 93.6836 434.885 93.7168C434.857 93.7332 434.838 93.7452 434.829 93.751C434.825 93.7535 434.822 93.7549 434.822 93.7549L434.115 94.2266L433.34 93.8467L420.849 87.7256L422.042 107.815L422.129 109.308L420.637 109.401L393.085 111.129L391.466 111.23L391.492 109.608L392.74 29.7363L392.789 26.6064L395.198 28.6055Z" fill="#FF468D" stroke="white" stroke-width="3"/>
<path d="M385.828 51.4639H385.827L385.826 51.4629L386.941 51.2168L386.999 50.0752L388.048 29.1631L388.138 27.3887L386.374 27.5986L358.149 30.958L356.843 31.1143L356.827 32.4297L355.867 109.613L355.845 111.315L357.537 111.122L382.785 108.242L384.056 108.098L384.113 106.818L385.999 64.5664L386.049 63.4355L384.98 63.0791H384.981C384.968 63.0742 384.941 63.0635 384.903 63.0469C384.824 63.013 384.699 62.9541 384.543 62.8662C384.231 62.6893 383.811 62.4016 383.403 61.9697C382.624 61.1447 381.781 59.6863 381.995 57.125C382.21 54.5364 383.261 53.1494 384.154 52.3975C384.617 52.0075 385.065 51.7663 385.389 51.625C385.55 51.5547 385.678 51.5101 385.756 51.4854C385.789 51.4749 385.814 51.4677 385.828 51.4639ZM385.828 51.4639H385.829C385.83 51.4636 385.831 51.4631 385.832 51.4629L385.841 51.4609C385.84 51.4612 385.838 51.461 385.834 51.4619C385.833 51.4624 385.83 51.4632 385.828 51.4639ZM384.985 63.0801C384.987 63.0809 384.989 63.0818 384.99 63.082C384.989 63.0819 384.987 63.0809 384.982 63.0791C384.983 63.0795 384.984 63.0798 384.985 63.0801Z" fill="#FF468D" stroke="white" stroke-width="3"/>
<path d="M329.28 27.1104C333.407 26.9138 337.503 27.1433 341.566 27.7969L341.567 27.7959C345.647 28.3881 349.477 29.4101 353.054 30.8672L354.265 31.3604L353.941 32.6279L348.277 54.8037L347.845 56.4961L346.237 55.8125C343.706 54.7365 341.408 53.8557 339.342 53.167L339.322 53.1611L339.304 53.1543C337.314 52.4309 334.958 51.8761 332.222 51.5029L332.196 51.499C331.473 51.3878 330.439 51.3242 329.064 51.3242C327.841 51.3242 326.613 51.4701 325.38 51.7637L325.353 51.7695L325.326 51.7754C324.213 51.998 323.281 52.3785 322.504 52.8965C321.965 53.2558 321.701 53.6935 321.644 54.3203C322.011 54.4927 322.427 54.6528 322.896 54.7969C323.548 54.9153 324.199 55.0339 324.851 55.1523C325.183 55.1829 325.491 55.2147 325.773 55.2461L326.588 55.3477L326.634 55.3545L326.68 55.3633C328.531 55.7462 329.987 56.0696 331.039 56.332C331.583 56.46 331.992 56.5561 332.264 56.6201C332.4 56.6521 332.501 56.6764 332.569 56.6924C332.603 56.7004 332.629 56.706 332.646 56.71C332.655 56.7119 332.661 56.7139 332.665 56.7148C332.667 56.7153 332.669 56.7156 332.67 56.7158H332.672C334.309 57.0684 335.898 57.5491 337.437 58.1572L338.097 58.4268L338.113 58.4336L338.129 58.4414C340.15 59.3543 342.2 60.3956 344.277 61.5635C346.504 62.778 348.502 64.2654 350.265 66.0244L350.611 66.3662C352.315 68.0904 353.705 70.1345 354.789 72.4814C356.056 75.016 356.733 77.9864 356.867 81.3486H356.866C357.066 86.0932 356.299 90.3724 354.516 94.1455L354.512 94.1553C352.747 97.8204 350.233 100.943 346.987 103.513L346.398 103.979L345.673 103.787C343.318 103.165 341.723 103.241 340.452 103.874C339.149 104.524 337.887 105.908 336.549 108.577L336.26 109.153L335.643 109.34C331.285 110.66 326.613 111.415 321.635 111.611H321.627L321.619 111.612C319.3 111.679 316.922 111.546 314.487 111.218C312.057 110.954 309.658 110.527 307.292 109.936C304.944 109.348 302.658 108.663 300.437 107.879L300.418 107.872L300.4 107.865C298.194 107.022 296.113 106.144 294.157 105.231L292.922 104.655L293.379 103.37L300.675 82.8262L301.196 81.3564L302.646 81.9355C303.635 82.3313 304.804 82.8517 306.148 83.4912C307.446 84.047 308.843 84.5748 310.338 85.0732C311.826 85.5694 313.381 86.005 315.001 86.3789C316.54 86.734 318.035 86.8785 319.489 86.8213C321.732 86.6992 323.523 86.3086 324.908 85.6992L324.928 85.6914C325.563 85.4227 325.918 85.1117 326.117 84.8164C326.309 84.533 326.432 84.152 326.413 83.5918C326.381 83.1107 326.17 82.7149 325.482 82.3506L325.465 82.3408L325.448 82.332C324.518 81.8086 323.361 81.2704 321.966 80.7217C321.008 80.4656 319.75 80.1199 318.195 79.6846L318.18 79.6807C316.575 79.2126 314.854 78.5817 313.018 77.7949C311.162 76.9999 309.282 76.0433 307.377 74.9268L307.357 74.915C305.459 73.7625 303.701 72.3746 302.083 70.7568L302.061 70.7344C300.484 69.0894 299.154 67.21 298.067 65.1045L298.054 65.0791L298.042 65.0527C296.982 62.7906 296.433 60.2473 296.364 57.4512C296.231 52.7719 297.032 48.5592 298.816 44.8535C300.569 41.1501 302.97 38.0036 306.017 35.4307C309.051 32.8042 312.581 30.8254 316.59 29.4893L317.467 29.1973L318.122 29.8496C320.052 31.7711 322.528 32.2825 324.508 31.8496C326.516 31.4104 327.761 30.107 327.854 28.5205L327.934 27.1738L329.28 27.1104Z" fill="#FF468D" stroke="white" stroke-width="3"/>
</svg>
