<svg width="63" height="63" viewBox="0 0 63 63" fill="none" xmlns="http://www.w3.org/2000/svg">
<path d="M11.894 34.6223C11.894 32.2532 13.1587 29.6876 12.7728 27.3501C11.3597 18.7919 13.9556 9.70114 20.5604 3.09985V3.09985C21.4345 2.22615 20.6094 0.610321 19.4865 1.12664C13.8874 3.70117 9.16001 7.84503 5.86846 12.9944C4.9751 14.392 5.96731 16.4268 5.96731 18.0855V18.0855C5.96731 19.5168 4.8064 20.6771 3.37436 20.6771V20.6771C2.81507 20.6771 2.21155 20.9312 2.05939 21.4694C1.27651 24.2384 0.857615 27.16 0.857615 30.1795C0.857614 41.1393 6.37663 50.8107 14.7884 56.5689C15.6069 57.1292 16.7055 56.9593 17.6973 56.9593V56.9593C19.1294 56.9593 20.2903 58.1196 20.2903 59.5509L20.2902 59.5584V59.5584C20.2902 59.5765 20.3009 59.593 20.3176 59.6001C24.1627 61.2367 28.3942 62.1424 32.8373 62.1424C45.726 62.1424 56.8338 54.5218 61.8964 43.5428C62.404 42.4418 60.8234 41.6276 59.9658 42.4847V42.4847C49.0843 53.3605 31.4419 53.3605 20.5604 42.4847C19.6264 41.5512 18.7726 40.5679 17.9989 39.5434C17.5364 38.9309 16.7362 38.6948 15.9687 38.6948V38.6948C13.7183 38.6948 11.894 36.8715 11.894 34.6223V34.6223Z" stroke="#F74799" stroke-width="1.5"/>
</svg>
