<svg width="31" height="31" viewBox="0 0 31 31" fill="none" xmlns="http://www.w3.org/2000/svg">
<path fill-rule="evenodd" clip-rule="evenodd" d="M9.72039 17.8869C10.5018 17.1055 11.5616 16.6665 12.6667 16.6665H19.3333C20.4384 16.6665 21.4982 17.1055 22.2796 17.8869C23.061 18.6683 23.5 19.7281 23.5 20.8332V22.4998C23.5 22.9601 23.1269 23.3332 22.6667 23.3332C22.2064 23.3332 21.8333 22.9601 21.8333 22.4998V20.8332C21.8333 20.1701 21.5699 19.5342 21.1011 19.0654C20.6323 18.5966 19.9964 18.3332 19.3333 18.3332H12.6667C12.0036 18.3332 11.3677 18.5966 10.8989 19.0654C10.4301 19.5342 10.1667 20.1701 10.1667 20.8332V22.4998C10.1667 22.9601 9.79357 23.3332 9.33333 23.3332C8.8731 23.3332 8.5 22.9601 8.5 22.4998V20.8332C8.5 19.7281 8.93899 18.6683 9.72039 17.8869Z" fill="#F74799"/>
<path fill-rule="evenodd" clip-rule="evenodd" d="M15.9997 8.33317C14.619 8.33317 13.4997 9.45246 13.4997 10.8332C13.4997 12.2139 14.619 13.3332 15.9997 13.3332C17.3804 13.3332 18.4997 12.2139 18.4997 10.8332C18.4997 9.45246 17.3804 8.33317 15.9997 8.33317ZM11.833 10.8332C11.833 8.53198 13.6985 6.6665 15.9997 6.6665C18.3009 6.6665 20.1663 8.53198 20.1663 10.8332C20.1663 13.1344 18.3009 14.9998 15.9997 14.9998C13.6985 14.9998 11.833 13.1344 11.833 10.8332Z" fill="#F74799"/>
<circle cx="15.5" cy="15.5" r="14.5" stroke="#F74799" stroke-width="2"/>
</svg>
