<svg width="77" height="74" viewBox="0 0 77 74" fill="none" xmlns="http://www.w3.org/2000/svg">
<path d="M26.5527 52.3554H50.1025V73.6106L38.3478 69.585L26.5527 73.6106V52.3554Z" fill="url(#paint0_radial_545_8142)"/>
<path fill-rule="evenodd" clip-rule="evenodd" d="M48.974 53.5231V72.0006L38.3464 68.3373L27.7188 72.0006V53.5231H48.974ZM29.651 55.4554V69.3035L38.3464 66.3245L47.0417 69.3035V55.4554H29.651Z" fill="url(#paint1_radial_545_8142)"/>
<mask id="mask0_545_8142" style="mask-type:luminance" maskUnits="userSpaceOnUse" x="26" y="52" width="25" height="22">
<path d="M26.5605 52.3556H50.1225V73.6229L38.3395 69.5691L26.5605 73.6229V52.3556Z" fill="white"/>
</mask>
<g mask="url(#mask0_545_8142)">
<path style="mix-blend-mode:screen" opacity="0.5" d="M34.7291 62.5807C34.9303 61.9366 35.1316 61.5743 35.3731 61.5743C35.3731 63.9896 35.3329 69.3034 35.3329 75.4224C34.7962 75.4224 34.2594 75.4224 33.7227 75.4224C33.7227 69.6657 34.1252 64.674 34.7291 62.5807ZM35.3731 61.5743C35.6549 61.534 35.8562 62.1781 35.977 62.5807C36.5808 64.674 37.0237 69.6657 37.0237 75.4224C36.4601 75.4224 35.9099 75.4224 35.3731 75.4224C35.3463 75.4224 35.3329 75.4224 35.3329 75.4224C35.3329 69.3034 35.3731 63.9896 35.3731 61.5743Z" fill="url(#paint2_linear_545_8142)"/>
<path style="mix-blend-mode:screen" opacity="0.65" d="M45.0731 65.0365C45.2342 64.5131 45.4354 64.2313 45.5965 64.2313C45.5965 66.1636 45.5965 70.471 45.5965 75.4225C45.1134 75.4225 44.6437 75.4225 44.1875 75.4225C44.1875 70.7528 44.5498 66.7272 45.0731 65.0365ZM45.5965 64.2313C45.8783 64.2313 46.0393 64.7144 46.16 65.0365C46.6834 66.7272 47.0457 70.7528 47.0457 75.4225C46.5626 75.4225 46.0795 75.4225 45.5965 75.4225C45.5965 70.471 45.5965 66.1636 45.5965 64.2313Z" fill="url(#paint3_linear_545_8142)"/>
<path style="mix-blend-mode:screen" opacity="0.5" d="M29.2927 57.6292C29.5744 56.6631 29.8965 56.1398 30.2185 56.1398C30.2185 59.6018 30.2185 67.2505 30.2185 75.986C29.3866 75.986 28.5546 75.986 27.7227 75.986C27.7227 67.7335 28.3668 60.5679 29.2927 57.6292ZM30.2185 56.1398C30.7016 56.1398 31.0237 57.0254 31.1847 57.6292C32.1106 60.5679 32.7547 67.7335 32.7547 75.986C31.9227 75.986 31.0907 75.986 30.2588 75.986C30.2319 75.986 30.2185 75.986 30.2185 75.986C30.2185 67.2505 30.2185 59.6018 30.2185 56.1398Z" fill="url(#paint4_linear_545_8142)"/>
<path style="mix-blend-mode:screen" opacity="0.65" d="M38.9537 58.6357C39.1549 57.8306 39.3562 57.3878 39.5978 57.3878C39.5978 60.3265 39.5978 66.848 39.5978 74.2954C39.0342 74.2954 38.484 74.2954 37.9473 74.2954C37.9473 67.2506 38.3901 61.1719 38.9537 58.6357ZM39.5978 57.3878C39.8795 57.3476 40.0808 58.1124 40.2016 58.6357C40.8054 61.1719 41.2483 67.2506 41.2483 74.2954C40.6847 74.2954 40.1345 74.2954 39.5978 74.2954C39.5978 66.848 39.5978 60.3265 39.5978 57.3878Z" fill="url(#paint5_linear_545_8142)"/>
<path style="mix-blend-mode:multiply" opacity="0.65" d="M36.8998 73.8121C37.1414 74.6575 37.3427 75.1003 37.6245 75.1003C37.6245 72.0811 37.5842 65.3986 37.5842 57.7499C36.9669 57.7499 36.3497 57.7499 35.7324 57.7499C35.7324 64.9557 36.2155 71.2357 36.8998 73.8121ZM37.6245 75.1003C37.9465 75.1405 38.188 74.3354 38.3088 73.8121C38.9932 71.2357 39.4762 64.9557 39.4762 57.7499C38.859 57.7499 38.2417 57.7499 37.6245 57.7499C37.6245 57.7499 37.611 57.7499 37.5842 57.7499C37.5842 65.3986 37.6245 72.0811 37.6245 75.1003Z" fill="url(#paint6_linear_545_8142)"/>
<path style="mix-blend-mode:multiply" opacity="0.65" d="M32.353 74.1343C32.5945 74.9394 32.7958 75.4225 33.0776 75.4225C33.0776 72.363 33.0373 65.6805 33.0373 58.0319C32.4201 58.0319 31.8028 58.0319 31.1855 58.0319C31.1855 65.278 31.6686 71.5177 32.353 74.1343ZM33.0776 75.4225C33.3996 75.4225 33.6412 74.6576 33.7619 74.1343C34.4463 71.5177 34.9294 65.278 34.9294 58.0319C34.3121 58.0319 33.6948 58.0319 33.0776 58.0319C33.0776 58.0319 33.0642 58.0319 33.0373 58.0319C33.0373 65.6805 33.0776 72.363 33.0776 75.4225Z" fill="url(#paint7_linear_545_8142)"/>
<path style="mix-blend-mode:multiply" opacity="0.65" d="M42.4155 71.5175C42.6167 72.2421 42.8583 72.6446 43.0998 72.6446C43.0998 70.028 43.0998 64.3116 43.0998 57.7499C42.4826 57.7499 41.8653 57.7499 41.248 57.7499C41.248 63.9493 41.7311 69.3034 42.4155 71.5175ZM43.0998 72.6446C43.4219 72.6446 43.6634 72.0006 43.8244 71.5175C44.5088 69.3034 44.9919 63.9493 44.9919 57.7499C44.3478 57.7499 43.7171 57.7499 43.0998 57.7499C43.0998 64.3116 43.0998 70.028 43.0998 72.6446Z" fill="url(#paint8_linear_545_8142)"/>
</g>
<path d="M23.1699 40.0773H53.4828V67.4514L38.3465 62.2584L23.1699 67.4514V40.0773Z" fill="url(#paint9_radial_545_8142)"/>
<path fill-rule="evenodd" clip-rule="evenodd" d="M52.3542 41.2449V65.8414L38.3451 61.0106L24.3359 65.8414V41.2449H52.3542ZM26.2682 43.1772V63.1442L38.3451 58.9978L50.4219 63.1442V43.1772H26.2682Z" fill="url(#paint10_radial_545_8142)"/>
<mask id="mask1_545_8142" style="mask-type:luminance" maskUnits="userSpaceOnUse" x="23" y="40" width="31" height="28">
<path d="M23.1719 40.0974H53.4887V67.4595L38.3283 62.2463L23.1719 67.4595V40.0974Z" fill="white"/>
</mask>
<g mask="url(#mask1_545_8142)">
<path style="mix-blend-mode:multiply" opacity="0.65" d="M45.2714 64.3921C45.5129 65.1973 45.7544 65.6401 46.0362 65.6803C46.0362 62.7014 46.0362 56.0994 46.0362 48.6118C45.3653 48.6118 44.6944 48.6118 44.0234 48.6118C44.0234 55.6968 44.5468 61.856 45.2714 64.3921ZM46.0362 65.6803C46.3985 65.6803 46.6401 64.9155 46.8011 64.3921C47.5257 61.856 48.049 55.6968 48.049 48.6118C47.3781 48.6118 46.7072 48.6118 46.0362 48.6118C46.0362 56.0994 46.0362 62.7014 46.0362 65.6803Z" fill="url(#paint11_linear_545_8142)"/>
<path style="mix-blend-mode:multiply" opacity="0.5" d="M39.3512 65.6401C39.633 66.6465 39.9148 67.21 40.2369 67.21C40.2369 63.5467 40.2369 55.4955 40.2369 46.2769C39.4318 46.2769 38.6132 46.2769 37.7812 46.2769C37.7812 54.9722 38.4254 62.5001 39.3512 65.6401ZM40.2369 67.21C40.6797 67.21 41.0017 66.2842 41.203 65.6401C42.0887 62.5001 42.7327 54.9722 42.7327 46.2769C41.9008 46.2769 41.0823 46.2769 40.2771 46.2769C40.2503 46.2769 40.2369 46.2769 40.2369 46.2769C40.2369 55.4955 40.2369 63.5467 40.2369 67.21Z" fill="url(#paint12_linear_545_8142)"/>
<path style="mix-blend-mode:multiply" opacity="0.65" d="M26.3905 63.9494C26.632 64.5935 26.8736 64.9558 27.1554 64.9558C27.1554 62.6209 27.1554 57.3876 27.1554 51.4297C26.4844 51.4297 25.8135 51.4297 25.1426 51.4297C25.1426 57.0656 25.6659 61.9366 26.3905 63.9494ZM27.1554 64.9558C27.5177 64.9558 27.7592 64.3922 27.9202 63.9494C28.6448 61.9366 29.1682 57.0656 29.1682 51.4297C28.4973 51.4297 27.8263 51.4297 27.1554 51.4297C27.1554 57.3876 27.1554 62.6209 27.1554 64.9558Z" fill="url(#paint13_linear_545_8142)"/>
<path style="mix-blend-mode:multiply" opacity="0.4" d="M33.313 69.9473C33.4741 70.994 33.6753 71.5575 33.9169 71.5575C33.9169 67.8137 33.8766 59.4807 33.8766 49.9803C33.3667 49.9803 32.8434 49.9803 32.3066 49.9803C32.3066 58.9574 32.7092 66.7268 33.313 69.9473ZM33.9169 71.5575C34.1987 71.5575 34.4 70.6317 34.5207 69.9473C35.0843 66.7268 35.4869 58.9574 35.4869 49.9803C34.9769 49.9803 34.4536 49.9803 33.9169 49.9803C33.89 49.9803 33.8766 49.9803 33.8766 49.9803C33.8766 59.4807 33.9169 67.8137 33.9169 71.5575Z" fill="url(#paint14_linear_545_8142)"/>
<path style="mix-blend-mode:screen" opacity="0.5" d="M49.4963 56.18C49.6976 55.6164 49.8989 55.2943 50.1404 55.2943C50.1404 57.3877 50.1404 62.0171 50.1404 67.3712C49.55 67.3712 48.9596 67.3712 48.3691 67.3712C48.3691 62.3392 48.8522 57.9915 49.4963 56.18ZM50.1404 55.2943C50.4625 55.2541 50.704 55.8177 50.8248 56.18C51.4689 57.9915 51.9117 62.3392 51.9117 67.3712C51.3213 67.3712 50.7308 67.3712 50.1404 67.3712C50.1404 62.0171 50.1404 57.3877 50.1404 55.2943Z" fill="url(#paint15_linear_545_8142)"/>
<path style="mix-blend-mode:screen" opacity="0.65" d="M42.9349 54.489C43.0959 53.9255 43.2972 53.6034 43.4985 53.6034C43.4985 55.6967 43.4985 60.3262 43.4985 65.64C42.9886 65.64 42.4787 65.64 41.9688 65.64C41.9688 60.6482 42.3713 56.3006 42.9349 54.489ZM43.4985 53.6034C43.7803 53.6034 43.9413 54.1267 44.0621 54.489C44.6257 56.3006 45.0282 60.6482 45.0282 65.64C44.5183 65.64 44.0084 65.64 43.4985 65.64C43.4985 60.3262 43.4985 55.6967 43.4985 53.6034Z" fill="url(#paint16_linear_545_8142)"/>
<path style="mix-blend-mode:screen" opacity="0.5" d="M29.7288 53.5632C29.9704 52.8789 30.2522 52.5166 30.534 52.4763C30.534 55.0124 30.534 60.5678 30.534 66.9282C29.8093 66.9282 29.0982 66.9282 28.4004 66.9282C28.4004 60.9301 28.964 55.737 29.7288 53.5632ZM30.534 52.4763C30.9365 52.4763 31.1781 53.1204 31.3391 53.5632C32.1442 55.737 32.6675 60.9301 32.6675 66.9282C31.9698 66.9282 31.2586 66.9282 30.534 66.9282C30.534 60.5678 30.534 55.0124 30.534 52.4763Z" fill="url(#paint17_linear_545_8142)"/>
<path style="mix-blend-mode:screen" opacity="0.65" d="M36.2529 56.9044C36.4542 56.3006 36.6957 55.9785 36.897 55.9785C36.897 58.1121 36.897 62.8221 36.897 68.2567C36.3066 68.2567 35.7296 68.2567 35.166 68.2567C35.166 63.1441 35.6088 58.716 36.2529 56.9044ZM36.897 55.9785C37.2191 55.9785 37.4606 56.5019 37.5814 56.9044C38.2255 58.716 38.7085 63.1441 38.7085 68.2567C38.1181 68.2567 37.5277 68.2567 36.9373 68.2567C36.9105 68.2567 36.897 68.2567 36.897 68.2567C36.897 62.8221 36.897 58.1121 36.897 55.9785Z" fill="url(#paint18_linear_545_8142)"/>
</g>
<path d="M8.35461 35.0051C1.83313 32.9923 3.28234 26.5513 7.14693 22.727C9.36101 25.5046 12.7023 32.0261 8.35461 35.0051Z" fill="url(#paint19_radial_545_8142)"/>
<path d="M8.35461 35.0051C6.86514 31.382 6.6236 26.8331 7.14693 22.727C3.28234 26.5513 1.83313 32.9923 8.35461 35.0051Z" fill="url(#paint20_radial_545_8142)"/>
<path d="M16.4048 44.747C18.6994 42.4926 18.4176 39.9162 17.2099 37.8229C16.0022 35.7296 13.6673 34.0388 11.3727 33.3545C10.8897 36.8165 10.7689 44.1431 16.4048 44.747Z" fill="url(#paint21_radial_545_8142)"/>
<path d="M11.3727 33.3545C10.8897 36.8165 10.7689 44.1431 16.4048 44.747C16.284 39.2721 14.6335 36.8568 11.3727 33.3545Z" fill="url(#paint22_radial_545_8142)"/>
<path d="M16.2054 47.1624C15.9639 42.8147 15.6016 39.6345 12.7031 34.844C16.4872 39.2319 16.769 42.4524 17.091 46.8403C17.091 46.9208 17.1313 47.4039 17.1715 47.5247C17.1715 47.8467 16.2457 47.5247 16.2054 47.1624Z" fill="url(#paint23_radial_545_8142)"/>
<path d="M6.90508 27.4771C7.42841 32.7104 8.95816 37.3398 11.0515 40.8018C13.6279 44.9482 19.3442 49.6582 23.2491 51.5502L22.7257 52.7981C18.3378 51.1074 12.0579 45.6326 9.84379 41.4459C7.46868 37.0178 6.50252 31.7845 6.90508 27.4771Z" fill="url(#paint24_radial_545_8142)"/>
<path d="M10.5693 43.3782C7.55009 44.8677 4.73217 43.6198 3.00116 41.5265C1.27015 39.4331 0.424767 36.3334 0.585791 33.6363C4.36986 34.4816 12.1795 37.2593 10.5693 43.3782Z" fill="url(#paint25_radial_545_8142)"/>
<path d="M10.5693 43.3782C5.85934 41.607 1.99475 36.9373 0.585791 33.6363C0.424767 36.3334 1.27015 39.4331 3.00116 41.5265C4.73217 43.6198 7.55009 44.8677 10.5693 43.3782Z" fill="url(#paint26_radial_545_8142)"/>
<path d="M12.2617 44.7471C6.82715 41.8084 4.21051 40.1579 1.39258 35.2466C4.73383 39.2722 7.18944 41.2448 12.624 43.9419C12.8656 44.0224 12.9461 44.3042 12.8656 44.5055C12.7448 44.7471 12.5033 44.8678 12.2617 44.7471Z" fill="url(#paint27_radial_545_8142)"/>
<path d="M18.4201 51.1879C16.0853 54.0059 12.7843 54.0461 10.1274 52.7177C7.51073 51.4295 5.29666 48.7726 4.25 45.9949C8.39638 45.1898 17.293 44.4652 18.4201 51.1879Z" fill="url(#paint28_radial_545_8142)"/>
<path d="M18.4201 51.188C12.9856 51.5503 7.10818 48.6519 4.25 45.995C5.29666 48.7726 7.51073 51.4295 10.1274 52.7177C12.7843 54.0462 16.0853 54.0059 18.4201 51.188Z" fill="url(#paint29_radial_545_8142)"/>
<path d="M20.5513 51.7515C14.3519 51.51 10.7288 50.8257 5.77734 47.2429C10.8496 49.7387 13.9896 50.6244 20.5513 50.8256C20.7929 50.7854 21.0344 51.0269 21.0344 51.2685C21.0344 51.5503 20.8331 51.7515 20.5513 51.7515Z" fill="url(#paint30_radial_545_8142)"/>
<path d="M68.3344 35.0051C74.8157 32.9923 73.4067 26.5513 69.5019 22.727C67.2878 25.5047 63.9868 32.0261 68.3344 35.0051Z" fill="url(#paint31_radial_545_8142)"/>
<path d="M68.3359 35.0051C69.7852 31.382 70.0267 26.8331 69.5033 22.727C73.4082 26.5513 74.8172 32.9923 68.3359 35.0051Z" fill="url(#paint32_radial_545_8142)"/>
<path d="M60.2851 44.747C57.9502 42.4926 58.232 39.9163 59.4397 37.8229C60.6473 35.7296 62.9822 34.0389 65.3171 33.3545C65.7599 36.8165 65.8807 44.1431 60.2851 44.747Z" fill="url(#paint33_radial_545_8142)"/>
<path d="M65.3172 33.3545C65.76 36.8165 65.8808 44.1431 60.2852 44.747C60.4059 39.2722 62.0564 36.8568 65.3172 33.3545Z" fill="url(#paint34_radial_545_8142)"/>
<path d="M60.4466 47.1624C60.7284 42.8147 61.0505 39.6345 63.9489 34.844C60.2051 39.2319 59.8831 42.4524 59.561 46.8403C59.561 46.9209 59.5208 47.4039 59.5208 47.5247C59.4805 47.8467 60.4466 47.5247 60.4466 47.1624Z" fill="url(#paint35_radial_545_8142)"/>
<path d="M69.7451 27.4773C69.262 32.7106 67.7323 37.34 65.5988 40.802C63.0626 44.9484 57.3462 49.6584 53.4414 51.5504L53.9647 52.7984C58.3526 51.1076 64.5923 45.6328 66.8467 41.4461C69.2218 37.018 70.1477 31.7847 69.7451 27.4773Z" fill="url(#paint36_radial_545_8142)"/>
<path d="M66.0836 43.3783C69.1431 44.8678 71.961 43.6198 73.692 41.5265C75.423 39.4332 76.2684 36.3335 76.1074 33.6363C72.283 34.4817 64.5136 37.2594 66.0836 43.3783Z" fill="url(#paint37_radial_545_8142)"/>
<path d="M66.0801 43.3783C70.8303 41.607 74.6949 36.9373 76.1039 33.6363C76.2649 36.3335 75.4195 39.4332 73.6885 41.5265C71.9575 43.6198 69.1395 44.8678 66.0801 43.3783Z" fill="url(#paint38_radial_545_8142)"/>
<path d="M64.3903 44.7471C69.8248 41.8084 72.4415 40.1579 75.2594 35.2467C71.9584 39.2723 69.5028 41.2448 64.0682 43.942C63.8267 44.0225 63.7059 44.3043 63.8267 44.5056C63.9072 44.7471 64.189 44.8679 64.3903 44.7471Z" fill="url(#paint39_radial_545_8142)"/>
<path d="M58.2344 51.188C60.5692 54.0059 63.9105 54.0462 66.5271 52.7177C69.1438 51.4295 71.3981 48.7726 72.4045 45.9949C68.2984 45.1898 59.4018 44.4652 58.2344 51.188Z" fill="url(#paint40_radial_545_8142)"/>
<path d="M58.2344 51.188C63.6689 51.5503 69.5866 48.6519 72.4045 45.995C71.3981 48.7727 69.1438 51.4296 66.5271 52.7178C63.9105 54.0462 60.5692 54.006 58.2344 51.188Z" fill="url(#paint41_radial_545_8142)"/>
<path d="M56.101 51.7516C62.3004 51.51 65.9235 50.8257 70.875 47.2429C65.843 49.7388 62.6628 50.6244 56.1413 50.8257C55.8595 50.7854 55.6582 51.027 55.6582 51.2685C55.6582 51.5503 55.8595 51.7516 56.101 51.7516Z" fill="url(#paint42_radial_545_8142)"/>
<path d="M15.3998 16.5677C14.5141 16.8495 13.7895 17.4534 13.4272 18.2987L10.8105 23.6931C11.2534 22.7672 12.0182 22.1231 13.0246 21.801L24.1756 18.3793C26.0676 17.8157 27.5168 16.769 28.644 15.1185L35.3265 5.57782C36.0511 4.57142 37.0978 4.04809 38.3457 4.04809C39.5534 4.04809 40.6403 4.57142 41.3247 5.57782L48.0072 15.1185C49.1344 16.769 50.5836 17.8157 52.4756 18.3793L63.6265 21.801C64.6329 22.1231 65.3978 22.7672 65.8406 23.6931L63.2642 18.2987C62.8617 17.4534 62.1773 16.8495 61.2514 16.5677L51.1472 13.5083C49.4564 12.9849 48.128 12.0188 47.0813 10.5293L41.0429 1.91451C40.3988 0.988623 39.4326 0.465294 38.3457 0.465294C37.2186 0.465294 36.2524 0.988623 35.6083 1.91451L29.5699 10.5293C28.5232 12.0188 27.235 12.9849 25.504 13.5083L15.3998 16.5677Z" fill="url(#paint43_linear_545_8142)"/>
<path style="mix-blend-mode:multiply" d="M24.1761 18.3792C26.0682 17.8156 27.5174 16.769 28.6445 15.1185L31.1002 11.6967C31.3149 10.2475 31.543 8.81166 31.7845 7.38928L29.5704 10.5293C28.5238 12.0187 27.2356 12.9849 25.5046 13.5082L23.0087 14.2731C22.4719 15.9102 21.9352 17.5607 21.3984 19.2246L24.1761 18.3792Z" fill="url(#paint44_linear_545_8142)"/>
<path style="mix-blend-mode:screen" d="M38.3442 4.04809C38.3442 2.86724 38.3442 1.67298 38.3442 0.465294C37.217 0.465294 36.2509 0.988623 35.6068 1.91451L34.3588 3.72604C34.2246 5.01423 34.077 6.30243 33.916 7.59062L35.325 5.57782C36.0496 4.57142 37.0962 4.04809 38.3442 4.04809Z" fill="url(#paint45_linear_545_8142)"/>
<path style="mix-blend-mode:screen" d="M18.3 15.6822L15.4016 16.5678C15.2674 16.6215 15.1332 16.6752 14.999 16.7289L12.4629 22.0427C12.6508 21.9353 12.8386 21.8548 13.0265 21.8011L16.2067 20.835C16.9045 19.1174 17.6023 17.3998 18.3 15.6822Z" fill="url(#paint46_linear_545_8142)"/>
<path style="mix-blend-mode:multiply" d="M52.4744 18.3792C50.5824 17.8156 49.1331 16.769 48.006 15.1185L45.5906 11.6967C45.3491 10.2475 45.1209 8.81166 44.9062 7.38928L47.0801 10.5293C48.1267 12.0187 49.4552 12.9849 51.1459 13.5082L53.6821 14.2731C54.192 15.9102 54.7153 17.5607 55.2521 19.2246L52.4744 18.3792Z" fill="url(#paint47_linear_545_8142)"/>
<path style="mix-blend-mode:multiply" d="M63.2655 18.2988V18.2586C62.8629 17.4535 62.1383 16.8496 61.2527 16.5678L58.3945 15.6822C59.0655 17.3998 59.7498 19.1174 60.4476 20.835L63.6278 21.8011C64.6342 22.1232 65.3991 22.7673 65.8419 23.6529L63.2655 18.2988Z" fill="url(#paint48_linear_545_8142)"/>
<path fill-rule="evenodd" clip-rule="evenodd" d="M42.535 3.76639C44.7088 6.87953 46.8826 9.99266 49.0565 13.1058C49.9421 14.394 51.1095 15.2394 52.599 15.6822C56.222 16.7825 59.8451 17.8963 63.4681 19.0234C65.1186 19.5065 66.3263 20.7142 66.8497 22.3244C67.373 23.9347 67.0912 25.6254 66.0848 26.9539C63.8036 29.9865 61.5224 33.0192 59.2412 36.0518C58.2751 37.2997 57.8323 38.6684 57.8726 40.2384C57.9262 44.0225 57.9933 47.82 58.0738 51.6309C58.0738 53.3216 57.3492 54.8514 55.9403 55.8175C54.5716 56.8239 52.8808 57.0655 51.3108 56.5421C47.7146 55.3076 44.1184 54.0731 40.5222 52.8386C39.0327 52.3152 37.6237 52.3152 36.1343 52.8386C32.5381 54.0731 28.9553 55.3076 25.3859 56.5421C23.7756 57.0655 22.0849 56.8239 20.7162 55.8175C19.3475 54.8514 18.5826 53.3216 18.6229 51.6309C18.6765 47.82 18.7436 44.0225 18.8241 40.2384C18.8241 38.6684 18.4216 37.2997 17.4554 36.0518C15.1742 33.0192 12.8931 29.9865 10.6119 26.9539C9.56523 25.6254 9.32371 23.9347 9.84704 22.3244C10.3704 20.7142 11.578 19.5065 13.1883 19.0234C16.8113 17.8963 20.4344 16.7825 24.0574 15.6822C25.5872 15.2394 26.7143 14.394 27.6402 13.1058C29.814 9.99266 31.9879 6.87953 34.1617 3.76639C35.1279 2.39768 36.6173 1.59256 38.3483 1.59256C40.0391 1.59256 41.5286 2.39768 42.535 3.76639ZM38.3483 3.16255C37.1407 3.16255 36.094 3.68588 35.4097 4.65202C33.2358 7.76516 31.062 10.8783 28.8882 13.9914C27.8013 15.5614 26.352 16.6081 24.5002 17.1717C20.8772 18.272 17.2541 19.3723 13.6311 20.4727C12.5039 20.835 11.6586 21.6401 11.2963 22.8075C10.9339 23.9347 11.1352 25.1021 11.8196 26.028C14.1008 29.0606 16.3819 32.0933 18.6631 35.1259C19.8305 36.6556 20.3941 38.3464 20.3539 40.2787C20.3002 44.0627 20.2331 47.8468 20.1526 51.6309C20.1526 52.8386 20.6357 53.8852 21.6421 54.5696C22.6082 55.2942 23.7354 55.4552 24.8626 55.0527C28.4588 53.845 32.055 52.6239 35.6512 51.3893C37.4627 50.7452 39.234 50.7452 41.0455 51.3893C44.6417 52.6239 48.2245 53.845 51.7939 55.0527C52.921 55.4552 54.0885 55.2942 55.0546 54.5696C56.0208 53.8852 56.5441 52.8386 56.5038 51.6309C56.4502 47.8468 56.3831 44.0627 56.3026 40.2787C56.3026 38.3464 56.8259 36.6556 57.9933 35.1259C60.2745 32.0933 62.5557 29.0606 64.8368 26.028C65.5615 25.1021 65.7627 23.9347 65.3602 22.8075C64.9979 21.6401 64.1928 20.835 63.0253 20.4727C59.4023 19.3723 55.7792 18.272 52.1562 17.1717C50.3044 16.6081 48.8954 15.5614 47.7683 13.9914C45.5944 10.8783 43.4206 7.76516 41.2468 4.65202C40.5624 3.68588 39.556 3.16255 38.3483 3.16255Z" fill="url(#paint49_radial_545_8142)"/>
<path d="M41.3268 5.57781L48.0093 15.1185C49.1365 16.769 50.5857 17.8157 52.4777 18.3792L63.6286 21.801C64.7961 22.1633 65.6414 23.0087 66.044 24.1761C66.4063 25.3436 66.205 26.511 65.4804 27.4771L58.4759 36.7763C57.2682 38.3865 56.7449 40.0773 56.7449 42.0498L56.9461 53.7241C56.9864 54.9318 56.4631 56.0187 55.4567 56.7433C54.4503 57.4277 53.2828 57.6289 52.1154 57.2264L41.1255 53.4423C39.2334 52.7982 37.4219 52.7982 35.5701 53.4423L24.54 57.2264C23.3726 57.6289 22.2051 57.4277 21.1987 56.7433C20.2326 56.0187 19.7093 54.9318 19.7093 53.7241L19.9105 42.0498C19.9508 40.0773 19.3872 38.3865 18.2198 36.7763L11.175 27.4771C10.4503 26.511 10.2491 25.3436 10.6516 24.1761C11.0139 23.0087 11.8593 22.1633 13.0267 21.801L24.1777 18.3792C26.0697 17.8157 27.5189 16.769 28.6461 15.1185L35.3286 5.57781C36.0532 4.57141 37.0999 4.04808 38.3478 4.04808C39.5555 4.04808 40.6424 4.57141 41.3268 5.57781Z" fill="url(#paint50_linear_545_8142)"/>
<path d="M37.3383 9.12033L31.6622 17.2118C30.0519 19.5198 27.9184 21.0764 25.2614 21.8815L15.761 24.7799C15.3584 24.9007 15.0766 25.1825 14.9559 25.5851C14.8351 25.9474 14.9156 26.3499 15.1572 26.672C17.1431 29.302 19.1291 31.9455 21.1151 34.6024C22.8058 36.8165 23.6109 39.3527 23.5707 42.1303C23.517 45.4313 23.4633 48.7323 23.4097 52.0333C23.3694 52.4359 23.5707 52.7982 23.8927 53.0397C24.2148 53.2813 24.6173 53.3215 25.0199 53.2007L34.3593 49.9803C37.0162 49.0678 39.6597 49.0678 42.2898 49.9803L51.6694 53.2007C52.072 53.3215 52.4343 53.2813 52.7966 53.0397C53.1187 52.7982 53.2797 52.4359 53.2797 52.0333C53.226 48.7323 53.1723 45.4313 53.1187 42.1303C53.0784 39.3527 53.8835 36.8165 55.534 34.6024L61.5322 26.672C61.7737 26.3499 61.814 25.9474 61.6932 25.5851C61.5724 25.1825 61.2907 24.9007 60.8881 24.7799C57.7481 23.8138 54.5947 22.8477 51.4279 21.8815C48.7442 21.0764 46.6106 19.5198 45.0272 17.2118L39.3511 9.12033C39.1095 8.75803 38.7472 8.597 38.3447 8.597C37.9421 8.597 37.5798 8.75803 37.3383 9.12033Z" fill="url(#paint51_radial_545_8142)"/>
<path d="M24.4161 40.3592C24.4563 37.7425 23.6915 35.3272 22.1215 33.2339C20.2429 30.7648 18.3642 28.2824 16.4856 25.7865C16.2441 25.4644 16.2038 25.1021 16.3246 24.7398C16.3246 24.6862 16.338 24.6459 16.3648 24.6191L15.761 24.7801C15.3584 24.9009 15.0766 25.1826 14.9559 25.5852C14.8351 25.9475 14.9156 26.3501 15.1572 26.6721C17.1431 29.3022 19.1291 31.9457 21.1151 34.6026C22.8058 36.8167 23.6109 39.3528 23.5707 42.1305C23.517 45.4315 23.4633 48.7325 23.4097 52.0335C23.3694 52.436 23.5707 52.7983 23.8927 53.0399C24.2148 53.2814 24.6173 53.3216 25.0199 53.2009L34.3593 49.9804C37.0162 49.0679 39.6597 49.0679 42.2898 49.9804L51.6694 53.2009C52.072 53.3216 52.4343 53.2814 52.7966 53.0399C53.1187 52.7983 53.2797 52.436 53.2797 52.0335C53.226 48.7325 53.1723 45.4315 53.1187 42.1305C53.0784 39.3528 53.8835 36.8167 55.534 34.6026L61.5322 26.6721C61.7737 26.3501 61.814 25.9475 61.6932 25.5852C61.5724 25.1826 61.2907 24.9009 60.8881 24.7801C60.7002 24.7264 60.5124 24.6727 60.3245 24.6191C60.3245 24.6459 60.3379 24.6862 60.3648 24.7398C60.4855 25.1021 60.405 25.4644 60.2037 25.7865L54.5679 33.2339C52.9979 35.3272 52.233 37.7425 52.2733 40.3592C52.327 43.4723 52.3806 46.5855 52.4343 49.6986C52.4343 50.0609 52.2733 50.4232 51.9512 50.6245C51.6292 50.866 51.2669 50.9063 50.9046 50.7855L42.0482 47.7663C39.5792 46.9075 37.0967 46.9075 34.6009 47.7663L25.7848 50.7855C25.4225 50.9063 25.0199 50.866 24.7381 50.6245C24.4161 50.4232 24.255 50.0609 24.255 49.6986C24.3087 46.5855 24.3624 43.4723 24.4161 40.3592Z" fill="url(#paint52_linear_545_8142)"/>
<path style="mix-blend-mode:screen" d="M29.6914 51.5906C33.0327 50.3024 35.8103 48.8129 39.0711 49.0545C42.1708 49.296 47.4443 51.8322 51.6712 53.0801C52.114 53.2009 52.4361 53.2411 52.7984 53.0398C52.4763 53.3619 52.1543 53.4021 51.631 53.2814C49.2961 52.8788 42.2513 49.8596 39.0711 49.5778C36.0116 49.2558 32.6301 50.7452 29.6914 51.5906Z" fill="url(#paint53_radial_545_8142)"/>
<path style="mix-blend-mode:multiply" d="M22.9673 42.1303C23.0478 39.4734 22.2427 37.0581 20.6727 34.9245C19.7871 33.7973 18.9149 32.6567 18.0561 31.5027C17.1302 30.2548 14.2317 30.5366 15.1174 31.704L18.6599 36.4542C19.9078 38.1047 20.5117 39.9565 20.4714 42.0901L20.2701 53.7241C20.2701 54.7707 20.713 55.6564 21.5583 56.2602C22.4037 56.8641 23.3699 57.0251 24.3763 56.6628L35.3662 52.8787C37.379 52.1943 39.3113 52.1943 41.2838 52.8787L52.314 56.6628C53.2801 57.0251 54.2865 56.8641 55.1319 56.2602C55.937 55.6564 56.3799 54.7707 56.3799 53.7241L56.1786 42.0901C56.1383 39.9565 56.7422 38.1047 57.9901 36.4542L61.5729 31.704C62.4585 30.5366 59.5601 30.2548 58.5939 31.5027L56.0175 34.9245C54.4073 37.0581 53.6424 39.4734 53.6827 42.1303C53.7364 45.4313 53.7901 48.7323 53.8437 52.0333C53.884 52.6372 53.6022 53.1605 53.1191 53.5228C52.636 53.8448 52.0322 53.9656 51.4686 53.7643L42.0889 50.5438C39.5931 49.6582 37.0838 49.6582 34.561 50.5438L25.1814 53.7643C24.6178 53.9656 24.0542 53.8448 23.5711 53.5228C23.0881 53.1605 22.8063 52.6372 22.8063 52.0333C22.8599 48.7323 22.9136 45.4313 22.9673 42.1303Z" fill="url(#paint54_linear_545_8142)"/>
<path style="mix-blend-mode:screen" d="M57.428 28.5239L59.7226 25.4242C59.8032 25.3168 59.8434 25.196 59.8434 25.0618C56.9718 24.1762 54.1136 23.304 51.2689 22.4452C48.4778 21.5864 46.2368 19.9627 44.5461 17.5742L38.87 9.44248C38.7358 9.25462 38.5614 9.16069 38.3467 9.16069C38.132 9.16069 37.9575 9.25462 37.8233 9.44248L32.107 17.5742C30.4431 19.9627 28.2155 21.5864 25.4244 22.4452L16.8499 25.0618C16.8231 25.196 16.8499 25.3168 16.9304 25.4242C17.7087 26.444 18.487 27.4772 19.2653 28.5239C22.2845 32.5495 54.3686 32.5495 57.428 28.5239Z" fill="url(#paint55_radial_545_8142)"/>
<path d="M13.1857 19.0234C16.8087 17.8962 20.4318 16.7825 24.0548 15.6821C25.5845 15.2393 26.7117 14.3939 27.6376 13.1057C29.8114 9.99261 31.9852 6.87947 34.1591 3.76634C35.1252 2.39763 36.6147 1.59251 38.3457 1.59251C40.0365 1.59251 41.5259 2.39763 42.5323 3.76634C44.7062 6.87947 46.88 9.99261 49.0538 13.1057C49.9395 14.3939 51.1069 15.2393 52.5964 15.6821C56.2194 16.7825 59.8425 17.8962 63.4655 19.0234C64.8745 19.426 66.0017 20.3921 66.6055 21.6803L65.7199 19.7077C65.1563 18.3793 64.0694 17.4131 62.6604 16.9703C59.1447 15.8968 55.6424 14.8233 52.1536 13.7498C50.6641 13.307 49.5772 12.5019 48.6915 11.254C46.5982 8.24818 44.4915 5.24239 42.3713 2.2366C41.4454 0.908153 39.9962 0.143288 38.3457 0.143288C36.6952 0.143288 35.246 0.908153 34.2798 2.2366C32.1865 5.24239 30.0798 8.24818 27.9597 11.254C27.1143 12.5019 25.9871 13.307 24.5379 13.7498C21.0222 14.8233 17.5199 15.8968 14.031 16.9703C12.5818 17.4131 11.5351 18.3793 10.9313 19.7077L10.0859 21.6803C10.6898 20.3921 11.7767 19.426 13.1857 19.0234Z" fill="url(#paint56_linear_545_8142)"/>
<path style="mix-blend-mode:screen" d="M18.623 20.1103C20.7566 19.3857 24.8225 18.339 26.5132 17.0105C29.3312 14.8367 32.3504 9.03984 35.0878 5.73884C36.1344 4.41039 36.698 4.08834 38.3485 4.04808C36.8188 4.2091 36.2149 4.77269 35.2891 5.94012C32.6322 9.28137 29.6532 15.4808 26.7145 17.4131C24.4602 18.9026 20.9982 19.4662 18.623 20.1103Z" fill="url(#paint57_radial_545_8142)"/>
<path style="mix-blend-mode:screen" d="M34.9247 2.92096C35.8506 2.07558 37.018 1.59251 38.3465 1.59251V0.465336V0.143288C36.696 0.143288 35.2467 0.908153 34.2806 2.2366C34.0122 2.61233 33.7438 3.00147 33.4755 3.40403L33.3145 4.97402C33.6097 4.57146 33.8914 4.1689 34.1598 3.76634C34.3745 3.44429 34.6295 3.16249 34.9247 2.92096Z" fill="url(#paint58_linear_545_8142)"/>
<path style="mix-blend-mode:multiply" d="M59.6816 16.0846L60.4868 18.0974C61.4797 18.3926 62.4727 18.7013 63.4657 19.0233C63.5194 19.0233 63.5731 19.0367 63.6267 19.0636C64.9552 19.5064 66.0019 20.4323 66.6057 21.6802L65.7201 19.7077C65.1565 18.3792 64.0695 17.4131 62.6606 16.9702C61.6676 16.675 60.6746 16.3798 59.6816 16.0846Z" fill="url(#paint59_linear_545_8142)"/>
<path style="mix-blend-mode:multiply" d="M54.8516 16.3665L54.2477 14.4343V14.394C53.55 14.1793 52.8522 13.9646 52.1544 13.7499C50.6649 13.3071 49.578 12.502 48.6924 11.254C47.1358 9.02652 45.5658 6.7856 43.9824 4.53126L44.2642 6.26227C45.5256 8.06037 46.7869 9.85848 48.0483 11.6566C48.3703 12.1397 48.7058 12.6227 49.0547 13.1058C49.9403 14.394 51.1077 15.2394 52.5972 15.6822C53.1608 15.8432 53.7244 16.0177 54.288 16.2055C54.4758 16.2592 54.6637 16.3129 54.8516 16.3665Z" fill="url(#paint60_linear_545_8142)"/>
<path style="mix-blend-mode:screen" d="M16.6057 17.9768L17.4511 15.9237C16.297 16.2726 15.1565 16.6215 14.0293 16.9704C13.8683 17.0241 13.7207 17.0778 13.5865 17.1314L12.5801 19.2247C12.7679 19.1442 12.9692 19.0771 13.1839 19.0235C14.3379 18.6746 15.4785 18.3257 16.6057 17.9768Z" fill="url(#paint61_linear_545_8142)"/>
<path style="mix-blend-mode:multiply" d="M23.5738 14.0718L22.9297 16.0444C23.3054 15.9102 23.6811 15.7894 24.0569 15.6821C25.5866 15.2392 26.7137 14.3939 27.6396 13.1057C28.6863 11.5759 29.7464 10.0596 30.8199 8.55674L31.1017 6.78547C30.055 8.28836 29.0084 9.77784 27.9617 11.2539C27.1163 12.5018 25.9892 13.307 24.5399 13.7498C24.2179 13.8571 23.8958 13.9645 23.5738 14.0718Z" fill="url(#paint62_linear_545_8142)"/>
<g style="mix-blend-mode:multiply">
<path d="M34.564 44.1431V31.8247L29.5723 33.6362V27.7186L40.9245 22.4853H42.9775V44.1431H34.564Z" fill="#7F4A5C"/>
<path fill-rule="evenodd" clip-rule="evenodd" d="M33.9181 44.7871C34.1328 44.5724 34.2401 44.4651 34.2401 44.4651C34.1596 44.3845 34.1194 44.2638 34.1194 44.143C34.1194 44.143 33.9718 44.143 33.6765 44.143C33.6765 44.3845 33.7571 44.6261 33.9181 44.7871ZM33.6765 44.143C33.9718 44.143 34.1194 44.143 34.1194 44.143C34.1194 40.2516 34.1194 36.3602 34.1194 32.4687C34.1194 32.4687 33.9718 32.6834 33.6765 33.1128C33.6765 36.7896 33.6765 40.4663 33.6765 44.143ZM34.1194 32.4687C34.2536 32.254 34.4012 32.0393 34.5622 31.8246C32.8983 32.4151 31.2344 33.0189 29.5704 33.6362C29.6241 33.7704 29.6778 33.9045 29.7315 34.0387C31.1807 33.5288 32.6433 33.0055 34.1194 32.4687ZM33.6765 33.1128C33.9718 32.6834 34.1194 32.4687 34.1194 32.4687C32.6433 33.0055 31.1807 33.5288 29.7315 34.0387C29.7315 34.0387 29.7851 34.1863 29.8925 34.4815C31.1538 34.0253 32.4152 33.5691 33.6765 33.1128ZM28.6445 33.6362C28.6445 33.7435 28.6714 33.8509 28.725 33.9582C28.8861 34.401 29.4094 34.6426 29.8925 34.4815C29.7851 34.1863 29.7315 34.0387 29.7315 34.0387V34.079C29.4899 34.1595 29.2081 34.0387 29.1276 33.7972C29.1276 33.7435 29.1276 33.6898 29.1276 33.6362C29.1276 33.6362 28.9666 33.6362 28.6445 33.6362ZM28.6445 33.6362C28.9666 33.6362 29.1276 33.6362 29.1276 33.6362C29.1276 31.6502 29.1276 29.6777 29.1276 27.7185C29.1276 27.7185 28.9666 27.7185 28.6445 27.7185C28.6445 29.6777 28.6445 31.6502 28.6445 33.6362ZM29.1679 26.8731C28.8861 26.9939 28.6445 27.316 28.6445 27.6783V27.7185C28.9666 27.7185 29.1276 27.7185 29.1276 27.7185V27.6783C29.1276 27.5172 29.2081 27.3562 29.3692 27.2757C29.3692 27.2757 29.3155 27.1415 29.2081 26.8731H29.1679ZM29.1679 26.8731C29.3021 27.1415 29.3692 27.2757 29.3692 27.2757C33.1264 25.5313 36.897 23.8003 40.6811 22.0827C40.6811 22.0827 40.6274 21.9485 40.5201 21.6801C36.736 23.3977 32.952 25.1287 29.1679 26.8731ZM40.8824 21.5593C40.7482 21.5593 40.6274 21.5862 40.5201 21.6399V21.6801C40.6274 21.9485 40.6811 22.0827 40.6811 22.0827H40.7214C40.775 22.0558 40.8287 22.0424 40.8824 22.0424C40.8824 22.0424 40.8824 21.8814 40.8824 21.5593ZM40.9226 21.5593C40.9226 21.8814 40.9226 22.0424 40.9226 22.0424C41.5936 22.0424 42.2645 22.0424 42.9354 22.0424C42.9354 22.0424 42.9354 21.8814 42.9354 21.5593C42.2645 21.5593 41.5936 21.5593 40.9226 21.5593ZM43.8614 22.4852C43.8614 21.9619 43.4588 21.5593 42.9354 21.5593C42.9354 21.8814 42.9354 22.0424 42.9354 22.0424C43.2172 22.0424 43.4185 22.2437 43.4185 22.4852C43.4185 22.4852 43.5661 22.4852 43.8614 22.4852ZM43.8614 22.4852C43.5661 22.4852 43.4185 22.4852 43.4185 22.4852C43.4185 29.7045 43.4185 36.9237 43.4185 44.143C43.4185 44.143 43.5661 44.143 43.8614 44.143C43.8614 36.9237 43.8614 29.7045 43.8614 22.4852ZM42.9354 45.0286C43.4588 45.0286 43.8614 44.6261 43.8614 44.143C43.5661 44.143 43.4185 44.143 43.4185 44.143C43.4185 44.3845 43.2172 44.5858 42.9354 44.5858C42.9354 44.5858 42.9354 44.7334 42.9354 45.0286ZM42.9354 45.0286C42.9354 44.7334 42.9354 44.5858 42.9354 44.5858C40.1444 44.5858 37.3399 44.5858 34.5219 44.5858C34.5219 44.5858 34.5219 44.7334 34.5219 45.0286C37.3399 45.0286 40.1444 45.0286 42.9354 45.0286ZM34.5219 45.0286C34.5219 44.7334 34.5219 44.5858 34.5219 44.5858C34.4012 44.5858 34.3207 44.5456 34.1999 44.4651C34.1999 44.4651 34.106 44.5724 33.9181 44.7871C34.0791 44.9481 34.2804 45.0286 34.5219 45.0286ZM34.1999 44.4651C34.3072 44.3577 34.4146 44.2504 34.5219 44.143C34.3877 44.143 34.2401 44.143 34.0791 44.143C34.0791 44.2638 34.1194 44.3845 34.1999 44.4651ZM34.0791 44.143C34.2401 44.143 34.3877 44.143 34.5219 44.143C34.5219 40.0369 34.5219 35.9308 34.5219 31.8246C34.3877 32.0393 34.2401 32.254 34.0791 32.4687C34.0791 36.3602 34.0791 40.2516 34.0791 44.143ZM34.5219 31.8246C34.4683 31.6636 34.4146 31.516 34.3609 31.3818C32.9117 31.9186 31.4491 32.4553 29.973 32.9921C29.8388 33.2068 29.6912 33.4215 29.5302 33.6362C31.1941 33.0189 32.858 32.4151 34.5219 31.8246ZM29.0874 33.6362C29.0874 33.6898 29.0874 33.7435 29.0874 33.7972C29.2081 34.0387 29.4497 34.1595 29.6912 34.0387C29.6375 33.9045 29.5838 33.7704 29.5302 33.6362C29.3691 33.6362 29.2215 33.6362 29.0874 33.6362ZM29.0874 33.5959C29.2215 33.5959 29.3691 33.5959 29.5302 33.5959C29.5302 31.6368 29.5302 29.6642 29.5302 27.6783C29.3691 27.6783 29.2215 27.6783 29.0874 27.6783C29.0874 29.6642 29.0874 31.6368 29.0874 33.5959ZM29.3289 27.2757C29.1679 27.3562 29.0874 27.5172 29.0874 27.6783C29.2215 27.6783 29.3691 27.6783 29.5302 27.6783C29.4765 27.5441 29.4094 27.4099 29.3289 27.2757ZM29.3692 27.2757C29.4228 27.4099 29.4765 27.5441 29.5302 27.6783C33.3142 25.9607 37.0983 24.2297 40.8824 22.4852C40.8287 22.351 40.7616 22.2169 40.6811 22.0827C36.9239 23.8003 33.1532 25.5313 29.3692 27.2757ZM40.8824 22.0424C40.8287 22.0424 40.775 22.0558 40.7214 22.0827H40.6811C40.7616 22.2169 40.8287 22.351 40.8824 22.4852H40.9226C40.9226 22.3242 40.9226 22.1766 40.9226 22.0424H40.8824ZM40.8824 22.0424C40.8824 22.1766 40.8824 22.3242 40.8824 22.4852C41.5533 22.4852 42.2243 22.4852 42.8952 22.4852C42.8952 22.3242 42.8952 22.1766 42.8952 22.0424C42.2243 22.0424 41.5533 22.0424 40.8824 22.0424ZM43.3783 22.4852C43.3783 22.2437 43.177 22.0424 42.9354 22.0424H42.8952C42.8952 22.1766 42.8952 22.3242 42.8952 22.4852H42.9354C43.0696 22.4852 43.2173 22.4852 43.3783 22.4852ZM43.3783 22.4852C43.2173 22.4852 43.0696 22.4852 42.9354 22.4852C42.9354 29.7045 42.9354 36.9103 42.9354 44.1028C43.0696 44.1028 43.2173 44.1028 43.3783 44.1028C43.3783 36.9103 43.3783 29.7045 43.3783 22.4852ZM42.9354 44.5858C43.177 44.5858 43.3783 44.3845 43.3783 44.143V44.1028C43.2173 44.1028 43.0696 44.1028 42.9354 44.1028V44.143H42.8952C42.8952 44.2772 42.8952 44.4248 42.8952 44.5858H42.9354ZM42.9354 44.5858C42.9354 44.4248 42.9354 44.2772 42.9354 44.143C40.1444 44.143 37.3533 44.143 34.5622 44.143C34.5622 44.2772 34.5622 44.4248 34.5622 44.5858C37.3533 44.5858 40.1444 44.5858 42.9354 44.5858ZM34.5622 44.5858C34.5622 44.4248 34.5622 44.2772 34.5622 44.143C34.4548 44.2504 34.3475 44.3577 34.2401 44.4651C34.3207 44.5456 34.4012 44.5858 34.5622 44.5858ZM34.5622 44.143C34.6964 43.982 34.844 43.821 35.005 43.6599C35.005 39.7148 35.005 35.7697 35.005 31.8246C34.844 31.8246 34.6964 31.8246 34.5622 31.8246C34.5622 35.9308 34.5622 40.0369 34.5622 44.143ZM42.9354 44.143C42.8013 43.982 42.6537 43.821 42.4926 43.6599C39.9968 43.6599 37.5009 43.6599 35.005 43.6599C34.844 43.821 34.6964 43.982 34.5622 44.143C37.3533 44.143 40.1444 44.143 42.9354 44.143ZM34.4012 31.3818C34.4548 31.355 34.5085 31.3416 34.5622 31.3416C34.8037 31.3416 35.005 31.5429 35.005 31.8246C35.005 31.8246 35.1526 31.8246 35.4478 31.8246C35.4478 31.3013 35.0453 30.8988 34.5622 30.8988C34.428 30.8988 34.3207 30.9122 34.2401 30.939V30.9793C34.3207 31.2476 34.3609 31.3818 34.3609 31.3818H34.4012ZM29.5704 33.5959C29.7315 33.3812 29.8791 33.1665 30.0132 32.9518C30.0132 31.3147 30.0132 29.6642 30.0132 28.0003C29.8791 27.893 29.7315 27.7856 29.5704 27.6783C29.5704 29.6642 29.5704 31.6368 29.5704 33.5959ZM29.5704 27.6783C29.7315 27.7856 29.8791 27.893 30.0132 28.0003V27.9601C29.8791 27.8795 29.7315 27.7856 29.5704 27.6783ZM29.5704 27.6783C29.7315 27.7856 29.8925 27.8795 30.0535 27.9601C33.7034 26.2961 37.3667 24.6188 41.0434 22.928C40.9898 22.7939 40.9495 22.6463 40.9226 22.4852C37.1386 24.2297 33.3545 25.9607 29.5704 27.6783ZM40.9226 22.4852C40.9495 22.6463 40.9898 22.7939 41.0434 22.928C41.0166 22.767 40.9897 22.6194 40.9629 22.4852H40.9226ZM40.9226 22.4852C40.9495 22.6194 40.9763 22.767 41.0032 22.928C41.5131 22.928 42.0096 22.928 42.4926 22.928C42.6537 22.767 42.8013 22.6194 42.9354 22.4852C42.2645 22.4852 41.5936 22.4852 40.9226 22.4852ZM42.9757 22.4852H42.9354C42.8013 22.6194 42.6537 22.767 42.4926 22.928C42.6537 22.7939 42.8147 22.6463 42.9757 22.4852ZM42.9757 22.4852C42.8147 22.6463 42.6537 22.7939 42.4926 22.928C42.4926 29.8521 42.4926 36.7627 42.4926 43.6599C42.6537 43.821 42.8147 43.9686 42.9757 44.1028C42.9757 36.9103 42.9757 29.7045 42.9757 22.4852ZM42.9757 44.143V44.1028C42.8147 43.9686 42.6537 43.821 42.4926 43.6599C42.6537 43.821 42.8013 43.982 42.9354 44.143H42.9757ZM35.0453 43.6599C35.0453 43.6599 35.1929 43.5123 35.4881 43.2171C35.4881 39.4062 35.4881 35.6087 35.4881 31.8246C35.1929 31.8246 35.0453 31.8246 35.0453 31.8246C35.0453 35.7697 35.0453 39.7148 35.0453 43.6599ZM42.5329 43.6599C42.5329 43.6599 42.3853 43.5123 42.0901 43.2171C39.8894 43.2171 37.6887 43.2171 35.4881 43.2171C35.1929 43.5123 35.0453 43.6599 35.0453 43.6599C37.5411 43.6599 40.037 43.6599 42.5329 43.6599ZM34.6025 31.8246C34.7366 31.8246 34.8842 31.8246 35.0453 31.8246C35.0453 31.5429 34.844 31.3416 34.6025 31.3416C34.5219 31.3416 34.4683 31.355 34.4414 31.3818H34.4012C34.4548 31.516 34.5085 31.6636 34.5622 31.8246H34.6025ZM34.4414 31.3818C34.4414 31.3818 34.3877 31.2476 34.2804 30.9793C33.019 31.4355 31.7577 31.8917 30.4963 32.348C30.2011 32.7774 30.0535 32.9921 30.0535 32.9921C31.5296 32.4553 32.9922 31.9186 34.4414 31.3818ZM30.0535 32.9921C30.0535 32.9921 30.2011 32.7774 30.4963 32.348C30.4963 30.9793 30.4963 29.624 30.4963 28.2821C30.2011 28.0942 30.0535 28.0003 30.0535 28.0003C30.0535 29.6642 30.0535 31.3281 30.0535 32.9921ZM30.0535 27.9601C30.0535 27.9601 30.2145 28.0674 30.5366 28.2821C34.0791 26.645 37.6217 25.0079 41.1642 23.3709C41.1105 23.0757 41.0837 22.928 41.0837 22.928C37.407 24.6188 33.7302 26.2961 30.0535 27.9601ZM41.0837 22.928C41.0837 22.928 41.1105 23.0757 41.1642 23.3709C41.4862 23.3709 41.8083 23.3709 42.1303 23.3709C42.4255 23.0757 42.5732 22.928 42.5732 22.928C42.0632 22.928 41.5667 22.928 41.0837 22.928ZM42.5732 22.928C42.5732 22.928 42.4255 23.0891 42.1303 23.4111C42.1303 30.0131 42.1303 36.6151 42.1303 43.2171C42.4255 43.5123 42.5732 43.6599 42.5732 43.6599C42.5732 36.7627 42.5732 29.8521 42.5732 22.928Z" fill="url(#paint63_linear_545_8142)"/>
</g>
<path style="mix-blend-mode:screen" d="M15.1602 18.4196C18.4209 17.3327 22.8088 16.2457 25.506 14.5952C26.2306 14.1927 26.8344 13.5888 27.5993 12.6227C29.6926 9.92554 32.6313 5.25583 33.9598 3.64559C35.3687 1.95483 36.7777 1.51201 38.3477 1.59253C36.7374 1.79381 35.8921 2.15611 34.8052 3.40405C32.8729 5.61813 30.377 10.1671 28.2031 12.985C27.3578 14.0719 26.7942 14.6758 25.828 15.1991C23.3724 16.5678 18.0586 17.7352 15.1602 18.4196Z" fill="url(#paint64_radial_545_8142)"/>
<path d="M34.1187 31.6235L29.127 33.4351V26.5915L40.8415 21.2375H43.4179V43.7809H34.1187V31.6235Z" fill="url(#paint65_radial_545_8142)"/>
<path d="M29.127 26.5917L40.8415 21.2376L40.3987 19.7079L30.0126 24.4984L29.127 26.5917Z" fill="url(#paint66_radial_545_8142)"/>
<path d="M40.3984 19.7079L40.8413 21.2376H43.4176L42.7736 19.7079H40.3984Z" fill="url(#paint67_radial_545_8142)"/>
<path d="M35.732 42.1302H41.8107V22.8476H41.1666L30.7402 27.6381V31.1403L35.732 29.3288V42.1302Z" fill="url(#paint68_radial_545_8142)"/>
<path d="M35.732 28.2822L30.7402 30.134V31.1404L35.732 29.3289V28.2822Z" fill="url(#paint69_radial_545_8142)"/>
<path d="M41.8091 41.1239H35.7305V42.1303H41.8091V41.1239Z" fill="url(#paint70_radial_545_8142)"/>
<defs>
<radialGradient id="paint0_radial_545_8142" cx="0" cy="0" r="1" gradientUnits="userSpaceOnUse" gradientTransform="translate(39.3131 82.7206) scale(25.7852 25.7852)">
<stop stop-color="#FF0000"/>
<stop offset="0.709" stop-color="#7D0000"/>
<stop offset="1" stop-color="#5E0000"/>
</radialGradient>
<radialGradient id="paint1_radial_545_8142" cx="0" cy="0" r="1" gradientUnits="userSpaceOnUse" gradientTransform="translate(38.3359 62.7574) scale(9.95734 9.95735)">
<stop stop-color="#FFEB68"/>
<stop offset="1" stop-color="#E67D2D"/>
</radialGradient>
<linearGradient id="paint2_linear_545_8142" x1="34.7399" y1="62.5944" x2="35.1425" y2="62.5944" gradientUnits="userSpaceOnUse">
<stop stop-color="#FF7D4A"/>
<stop offset="1" stop-color="#FF7D4A"/>
</linearGradient>
<linearGradient id="paint3_linear_545_8142" x1="45.0739" y1="65.0562" x2="45.4765" y2="65.0562" gradientUnits="userSpaceOnUse">
<stop stop-color="#FF7D4A"/>
<stop offset="1" stop-color="#FF7D4A"/>
</linearGradient>
<linearGradient id="paint4_linear_545_8142" x1="29.2934" y1="57.6228" x2="29.696" y2="57.6228" gradientUnits="userSpaceOnUse">
<stop stop-color="#FF7D4A"/>
<stop offset="1" stop-color="#FF7D4A"/>
</linearGradient>
<linearGradient id="paint5_linear_545_8142" x1="38.9734" y1="58.6382" x2="39.376" y2="58.6382" gradientUnits="userSpaceOnUse">
<stop stop-color="#FF7D4A"/>
<stop offset="1" stop-color="#FF7D4A"/>
</linearGradient>
<linearGradient id="paint6_linear_545_8142" x1="36.9111" y1="73.8153" x2="37.3137" y2="73.8153" gradientUnits="userSpaceOnUse">
<stop stop-color="#84303C"/>
<stop offset="1" stop-color="#84303C"/>
</linearGradient>
<linearGradient id="paint7_linear_545_8142" x1="32.3646" y1="74.1134" x2="32.7672" y2="74.1134" gradientUnits="userSpaceOnUse">
<stop stop-color="#84303C"/>
<stop offset="1" stop-color="#84303C"/>
</linearGradient>
<linearGradient id="paint8_linear_545_8142" x1="42.4038" y1="71.5292" x2="42.8064" y2="71.5292" gradientUnits="userSpaceOnUse">
<stop stop-color="#84303C"/>
<stop offset="1" stop-color="#84303C"/>
</linearGradient>
<radialGradient id="paint9_radial_545_8142" cx="0" cy="0" r="1" gradientUnits="userSpaceOnUse" gradientTransform="translate(38.77 68.5227) scale(25.7925 25.7925)">
<stop stop-color="#FF2626"/>
<stop offset="1" stop-color="#910000"/>
</radialGradient>
<radialGradient id="paint10_radial_545_8142" cx="0" cy="0" r="1" gradientUnits="userSpaceOnUse" gradientTransform="translate(33.5646 74.9038) scale(23.991 23.991)">
<stop stop-color="#FFEB68"/>
<stop offset="1" stop-color="#E67D2D"/>
</radialGradient>
<linearGradient id="paint11_linear_545_8142" x1="45.2831" y1="64.3869" x2="45.6856" y2="64.3869" gradientUnits="userSpaceOnUse">
<stop stop-color="#84303C"/>
<stop offset="1" stop-color="#84303C"/>
</linearGradient>
<linearGradient id="paint12_linear_545_8142" x1="39.3331" y1="65.6397" x2="39.7357" y2="65.6397" gradientUnits="userSpaceOnUse">
<stop stop-color="#84303C"/>
<stop offset="1" stop-color="#84303C"/>
</linearGradient>
<linearGradient id="paint13_linear_545_8142" x1="26.3998" y1="63.955" x2="26.8023" y2="63.955" gradientUnits="userSpaceOnUse">
<stop stop-color="#84303C"/>
<stop offset="1" stop-color="#84303C"/>
</linearGradient>
<linearGradient id="paint14_linear_545_8142" x1="33.3002" y1="69.9465" x2="33.7027" y2="69.9465" gradientUnits="userSpaceOnUse">
<stop stop-color="#84303C"/>
<stop offset="1" stop-color="#84303C"/>
</linearGradient>
<linearGradient id="paint15_linear_545_8142" x1="49.4859" y1="56.1776" x2="49.8884" y2="56.1776" gradientUnits="userSpaceOnUse">
<stop stop-color="#FF7D4A"/>
<stop offset="1" stop-color="#FF7D4A"/>
</linearGradient>
<linearGradient id="paint16_linear_545_8142" x1="42.9172" y1="54.506" x2="43.3197" y2="54.506" gradientUnits="userSpaceOnUse">
<stop stop-color="#FF7D4A"/>
<stop offset="1" stop-color="#FF7D4A"/>
</linearGradient>
<linearGradient id="paint17_linear_545_8142" x1="29.7357" y1="53.5729" x2="30.1382" y2="53.5729" gradientUnits="userSpaceOnUse">
<stop stop-color="#FF7D4A"/>
<stop offset="1" stop-color="#FF7D4A"/>
</linearGradient>
<linearGradient id="paint18_linear_545_8142" x1="36.2545" y1="56.8936" x2="36.6571" y2="56.8936" gradientUnits="userSpaceOnUse">
<stop stop-color="#FF7D4A"/>
<stop offset="1" stop-color="#FF7D4A"/>
</linearGradient>
<radialGradient id="paint19_radial_545_8142" cx="0" cy="0" r="1" gradientUnits="userSpaceOnUse" gradientTransform="translate(5.31568 23.8827) scale(18.4111 18.4111)">
<stop stop-color="#FFAF30"/>
<stop offset="1" stop-color="#B04100"/>
</radialGradient>
<radialGradient id="paint20_radial_545_8142" cx="0" cy="0" r="1" gradientUnits="userSpaceOnUse" gradientTransform="translate(4.46869 21.6062) scale(18.3495)">
<stop stop-color="#FFD663"/>
<stop offset="1" stop-color="#EB8C18"/>
</radialGradient>
<radialGradient id="paint21_radial_545_8142" cx="0" cy="0" r="1" gradientUnits="userSpaceOnUse" gradientTransform="translate(10.312 34.3866) scale(19.1289 19.1289)">
<stop stop-color="#FFAF30"/>
<stop offset="1" stop-color="#B04100"/>
</radialGradient>
<radialGradient id="paint22_radial_545_8142" cx="0" cy="0" r="1" gradientUnits="userSpaceOnUse" gradientTransform="translate(9.65824 32.869) scale(19.9855 19.9855)">
<stop stop-color="#FFD663"/>
<stop offset="1" stop-color="#EB8C18"/>
</radialGradient>
<radialGradient id="paint23_radial_545_8142" cx="0" cy="0" r="1" gradientUnits="userSpaceOnUse" gradientTransform="translate(7.13049 34.809) scale(17.5887 17.5887)">
<stop stop-color="#FFAA24"/>
<stop offset="1" stop-color="#C23F05"/>
</radialGradient>
<radialGradient id="paint24_radial_545_8142" cx="0" cy="0" r="1" gradientUnits="userSpaceOnUse" gradientTransform="translate(21.4275 20.8561) scale(30.9296 30.9296)">
<stop stop-color="#FFAA24"/>
<stop offset="1" stop-color="#C23F05"/>
</radialGradient>
<radialGradient id="paint25_radial_545_8142" cx="0" cy="0" r="1" gradientUnits="userSpaceOnUse" gradientTransform="translate(1.55637 34.0614) scale(23.4029 23.4029)">
<stop stop-color="#FFAF30"/>
<stop offset="1" stop-color="#B04100"/>
</radialGradient>
<radialGradient id="paint26_radial_545_8142" cx="0" cy="0" r="1" gradientUnits="userSpaceOnUse" gradientTransform="translate(-0.716895 32.7603) scale(23.4359 23.4359)">
<stop stop-color="#FFD663"/>
<stop offset="1" stop-color="#EB8C18"/>
</radialGradient>
<radialGradient id="paint27_radial_545_8142" cx="0" cy="0" r="1" gradientUnits="userSpaceOnUse" gradientTransform="translate(4.70928 35.2498) scale(15.9881 15.9881)">
<stop stop-color="#FFAA24"/>
<stop offset="1" stop-color="#C23F05"/>
</radialGradient>
<radialGradient id="paint28_radial_545_8142" cx="0" cy="0" r="1" gradientUnits="userSpaceOnUse" gradientTransform="translate(6.25475 40.4231) scale(21.2287 21.2286)">
<stop stop-color="#FFD663"/>
<stop offset="1" stop-color="#EB8C18"/>
</radialGradient>
<radialGradient id="paint29_radial_545_8142" cx="0" cy="0" r="1" gradientUnits="userSpaceOnUse" gradientTransform="translate(4.95368 40.3555) scale(25.8484 25.8484)">
<stop stop-color="#FFAF30"/>
<stop offset="1" stop-color="#B04100"/>
</radialGradient>
<radialGradient id="paint30_radial_545_8142" cx="0" cy="0" r="1" gradientUnits="userSpaceOnUse" gradientTransform="translate(6.57925 38.8237) scale(19.1571 19.1571)">
<stop stop-color="#FFAA24"/>
<stop offset="1" stop-color="#C23F05"/>
</radialGradient>
<radialGradient id="paint31_radial_545_8142" cx="0" cy="0" r="1" gradientUnits="userSpaceOnUse" gradientTransform="translate(71.3532 23.8827) rotate(180) scale(18.4111 18.4111)">
<stop stop-color="#FFD663"/>
<stop offset="1" stop-color="#EB8C18"/>
</radialGradient>
<radialGradient id="paint32_radial_545_8142" cx="0" cy="0" r="1" gradientUnits="userSpaceOnUse" gradientTransform="translate(72.2013 21.6063) rotate(180) scale(18.3495 18.3495)">
<stop stop-color="#FFAF30"/>
<stop offset="1" stop-color="#B04100"/>
</radialGradient>
<radialGradient id="paint33_radial_545_8142" cx="0" cy="0" r="1" gradientUnits="userSpaceOnUse" gradientTransform="translate(66.3573 34.3867) rotate(180) scale(19.1289 19.1289)">
<stop stop-color="#FFD663"/>
<stop offset="1" stop-color="#EB8C18"/>
</radialGradient>
<radialGradient id="paint34_radial_545_8142" cx="0" cy="0" r="1" gradientUnits="userSpaceOnUse" gradientTransform="translate(67.0111 32.869) rotate(180) scale(19.9855 19.9855)">
<stop stop-color="#FFAF30"/>
<stop offset="1" stop-color="#B04100"/>
</radialGradient>
<radialGradient id="paint35_radial_545_8142" cx="0" cy="0" r="1" gradientUnits="userSpaceOnUse" gradientTransform="translate(69.5413 34.809) rotate(180) scale(17.5887 17.5887)">
<stop stop-color="#FFAA24"/>
<stop offset="1" stop-color="#C23F05"/>
</radialGradient>
<radialGradient id="paint36_radial_545_8142" cx="0" cy="0" r="1" gradientUnits="userSpaceOnUse" gradientTransform="translate(55.2425 20.8564) rotate(180) scale(30.9296 30.9296)">
<stop stop-color="#FFAA24"/>
<stop offset="1" stop-color="#C23F05"/>
</radialGradient>
<radialGradient id="paint37_radial_545_8142" cx="0" cy="0" r="1" gradientUnits="userSpaceOnUse" gradientTransform="translate(75.1163 34.0614) rotate(180) scale(23.4029 23.4029)">
<stop stop-color="#FFD663"/>
<stop offset="1" stop-color="#EB8C18"/>
</radialGradient>
<radialGradient id="paint38_radial_545_8142" cx="0" cy="0" r="1" gradientUnits="userSpaceOnUse" gradientTransform="translate(77.386 32.7603) rotate(180) scale(23.4359 23.4359)">
<stop stop-color="#FFAF30"/>
<stop offset="1" stop-color="#B04100"/>
</radialGradient>
<radialGradient id="paint39_radial_545_8142" cx="0" cy="0" r="1" gradientUnits="userSpaceOnUse" gradientTransform="translate(71.9624 35.2499) rotate(180) scale(15.9881 15.9881)">
<stop stop-color="#FFAA24"/>
<stop offset="1" stop-color="#C23F05"/>
</radialGradient>
<radialGradient id="paint40_radial_545_8142" cx="0" cy="0" r="1" gradientUnits="userSpaceOnUse" gradientTransform="translate(70.4195 40.4231) rotate(180) scale(21.2287 21.2286)">
<stop stop-color="#FFD663"/>
<stop offset="1" stop-color="#EB8C18"/>
</radialGradient>
<radialGradient id="paint41_radial_545_8142" cx="0" cy="0" r="1" gradientUnits="userSpaceOnUse" gradientTransform="translate(71.7206 40.3555) rotate(180) scale(25.8484 25.8484)">
<stop stop-color="#FFAF30"/>
<stop offset="1" stop-color="#B04100"/>
</radialGradient>
<radialGradient id="paint42_radial_545_8142" cx="0" cy="0" r="1" gradientUnits="userSpaceOnUse" gradientTransform="translate(70.0928 38.8237) rotate(180) scale(19.1571)">
<stop stop-color="#FFAA24"/>
<stop offset="1" stop-color="#C23F05"/>
</radialGradient>
<linearGradient id="paint43_linear_545_8142" x1="10.8291" y1="0.485422" x2="65.8414" y2="0.485422" gradientUnits="userSpaceOnUse">
<stop stop-color="#FFE210"/>
<stop offset="0.135" stop-color="#FFB310"/>
<stop offset="0.297" stop-color="#E8831E"/>
<stop offset="0.479" stop-color="#FFD200"/>
<stop offset="0.563" stop-color="#ED7E00"/>
<stop offset="1" stop-color="#E65C1E"/>
</linearGradient>
<linearGradient id="paint44_linear_545_8142" x1="22.4374" y1="4.07057" x2="35.2087" y2="7.97511" gradientUnits="userSpaceOnUse">
<stop stop-color="white"/>
<stop offset="0.563" stop-color="#F2AB46"/>
<stop offset="1" stop-color="white"/>
</linearGradient>
<linearGradient id="paint45_linear_545_8142" x1="33.9321" y1="0.485422" x2="38.3337" y2="0.485422" gradientUnits="userSpaceOnUse">
<stop/>
<stop offset="0.555" stop-color="#FFD67D"/>
<stop offset="1"/>
</linearGradient>
<linearGradient id="paint46_linear_545_8142" x1="13.4258" y1="13.4109" x2="20.6546" y2="16.4794" gradientUnits="userSpaceOnUse">
<stop/>
<stop offset="0.322" stop-color="#FFD67D"/>
<stop offset="1"/>
</linearGradient>
<linearGradient id="paint47_linear_545_8142" x1="42.4305" y1="7.5962" x2="54.7372" y2="4.98031" gradientUnits="userSpaceOnUse">
<stop stop-color="white"/>
<stop offset="0.437" stop-color="#F2AB46"/>
<stop offset="1" stop-color="white"/>
</linearGradient>
<linearGradient id="paint48_linear_545_8142" x1="56.4755" y1="16.0401" x2="65.3685" y2="13.8229" gradientUnits="userSpaceOnUse">
<stop offset="0.041" stop-color="white"/>
<stop offset="0.744" stop-color="#F2AB46"/>
</linearGradient>
<radialGradient id="paint49_radial_545_8142" cx="0" cy="0" r="1" gradientUnits="userSpaceOnUse" gradientTransform="translate(6.79039 -17.1346) scale(87.5336 87.5336)">
<stop stop-color="#FFB429"/>
<stop offset="1" stop-color="#E87000"/>
</radialGradient>
<linearGradient id="paint50_linear_545_8142" x1="12.78" y1="57.4321" x2="12.78" y2="4.03681" gradientUnits="userSpaceOnUse">
<stop stop-color="#F9920A"/>
<stop offset="0.41" stop-color="#FFEF70"/>
<stop offset="1" stop-color="#FFBC14"/>
</linearGradient>
<radialGradient id="paint51_radial_545_8142" cx="0" cy="0" r="1" gradientUnits="userSpaceOnUse" gradientTransform="translate(38.1615 9.31316) scale(42.3587 42.3587)">
<stop stop-color="#9C0029"/>
<stop offset="1" stop-color="#470025"/>
</radialGradient>
<linearGradient id="paint52_linear_545_8142" x1="14.9031" y1="24.5993" x2="61.7653" y2="24.5993" gradientUnits="userSpaceOnUse">
<stop stop-color="#E65C1E"/>
<stop offset="0.182" stop-color="#AB2B00"/>
<stop offset="0.363" stop-color="#ED8B1B"/>
<stop offset="0.508" stop-color="#FFA414"/>
<stop offset="0.703" stop-color="#D35600"/>
<stop offset="1" stop-color="#F26C10"/>
</linearGradient>
<radialGradient id="paint53_radial_545_8142" cx="0" cy="0" r="1" gradientUnits="userSpaceOnUse" gradientTransform="translate(40.9909 47.8593) scale(29.6583 29.6583)">
<stop stop-color="#FFF9E0"/>
<stop offset="1" stop-color="#000800"/>
</radialGradient>
<linearGradient id="paint54_linear_545_8142" x1="31.0242" y1="56.8516" x2="31.0242" y2="30.6964" gradientUnits="userSpaceOnUse">
<stop stop-color="white"/>
<stop offset="1" stop-color="#D47848"/>
</linearGradient>
<radialGradient id="paint55_radial_545_8142" cx="0" cy="0" r="1" gradientUnits="userSpaceOnUse" gradientTransform="translate(35.569 3.05585) scale(54.6223 54.6223)">
<stop stop-color="#680000"/>
<stop offset="1"/>
</radialGradient>
<linearGradient id="paint56_linear_545_8142" x1="10.0751" y1="0.141677" x2="66.5962" y2="0.141677" gradientUnits="userSpaceOnUse">
<stop stop-color="#FFE210"/>
<stop offset="0.135" stop-color="#FFB310"/>
<stop offset="0.297" stop-color="#E8831E"/>
<stop offset="0.479" stop-color="#FFD200"/>
<stop offset="0.563" stop-color="#ED7E00"/>
<stop offset="1" stop-color="#E65C1E"/>
</linearGradient>
<radialGradient id="paint57_radial_545_8142" cx="0" cy="0" r="1" gradientUnits="userSpaceOnUse" gradientTransform="translate(32.7843 5.72394) scale(26.9897 26.9897)">
<stop stop-color="#FFF9E0"/>
<stop offset="1" stop-color="#000800"/>
</radialGradient>
<linearGradient id="paint58_linear_545_8142" x1="33.3245" y1="0.141678" x2="38.3364" y2="0.141678" gradientUnits="userSpaceOnUse">
<stop/>
<stop offset="0.555" stop-color="#FFD67D"/>
<stop offset="1"/>
</linearGradient>
<linearGradient id="paint59_linear_545_8142" x1="58.4256" y1="16.6719" x2="66.2603" y2="14.7187" gradientUnits="userSpaceOnUse">
<stop offset="0.041" stop-color="white"/>
<stop offset="0.744" stop-color="#F2AB46"/>
</linearGradient>
<linearGradient id="paint60_linear_545_8142" x1="41.53" y1="4.84002" x2="54.354" y2="2.11424" gradientUnits="userSpaceOnUse">
<stop stop-color="white"/>
<stop offset="0.437" stop-color="#F2AB46"/>
<stop offset="1" stop-color="white"/>
</linearGradient>
<linearGradient id="paint61_linear_545_8142" x1="13.134" y1="14.6521" x2="18.4328" y2="16.9013" gradientUnits="userSpaceOnUse">
<stop/>
<stop offset="0.322" stop-color="#FFD67D"/>
<stop offset="1"/>
</linearGradient>
<linearGradient id="paint62_linear_545_8142" x1="23.7328" y1="4.20505" x2="33.7767" y2="7.27586" gradientUnits="userSpaceOnUse">
<stop stop-color="white"/>
<stop offset="0.563" stop-color="#F2AB46"/>
<stop offset="1" stop-color="white"/>
</linearGradient>
<linearGradient id="paint63_linear_545_8142" x1="33.931" y1="44.7766" x2="34.3335" y2="44.7766" gradientUnits="userSpaceOnUse">
<stop stop-color="#7F4A5C"/>
<stop offset="1" stop-color="#7F4A5C"/>
</linearGradient>
<radialGradient id="paint64_radial_545_8142" cx="0" cy="0" r="1" gradientUnits="userSpaceOnUse" gradientTransform="translate(31.7972 1.38279) scale(33.1678 33.1678)">
<stop stop-color="#FFF9E0"/>
<stop offset="1" stop-color="#000800"/>
</radialGradient>
<radialGradient id="paint65_radial_545_8142" cx="0" cy="0" r="1" gradientUnits="userSpaceOnUse" gradientTransform="translate(35.8372 20.1393) scale(33.9419 33.9419)">
<stop stop-color="#FFEF70"/>
<stop offset="1" stop-color="#F56800"/>
</radialGradient>
<radialGradient id="paint66_radial_545_8142" cx="0" cy="0" r="1" gradientUnits="userSpaceOnUse" gradientTransform="translate(37.0872 16.4077) scale(32.0173 32.0173)">
<stop stop-color="#FFAA24"/>
<stop offset="1" stop-color="#C23F05"/>
</radialGradient>
<radialGradient id="paint67_radial_545_8142" cx="0" cy="0" r="1" gradientUnits="userSpaceOnUse" gradientTransform="translate(36.8712 26.8167) scale(14.3022 14.3022)">
<stop stop-color="#FFAA24"/>
<stop offset="1" stop-color="#C23F05"/>
</radialGradient>
<radialGradient id="paint68_radial_545_8142" cx="0" cy="0" r="1" gradientUnits="userSpaceOnUse" gradientTransform="translate(39.5209 42.8194) scale(19.3024 19.3024)">
<stop stop-color="#E0003B"/>
<stop offset="1" stop-color="#470025"/>
</radialGradient>
<radialGradient id="paint69_radial_545_8142" cx="0" cy="0" r="1" gradientUnits="userSpaceOnUse" gradientTransform="translate(39.5833 25.9836) scale(15.5385 15.5384)">
<stop stop-color="#FFAA24"/>
<stop offset="1" stop-color="#C23F05"/>
</radialGradient>
<radialGradient id="paint70_radial_545_8142" cx="0" cy="0" r="1" gradientUnits="userSpaceOnUse" gradientTransform="translate(42.2721 48.8724) scale(12.8308 12.8308)">
<stop stop-color="#FFAA24"/>
<stop offset="1" stop-color="#C23F05"/>
</radialGradient>
</defs>
</svg>
