<svg width="49" height="59" viewBox="0 0 49 59" fill="none" xmlns="http://www.w3.org/2000/svg">
<path d="M14.002 38.9825H35.2958V58.2056L24.6316 54.5473L14.002 58.2056V38.9825Z" fill="url(#paint0_radial_545_8055)"/>
<mask id="mask0_545_8055" style="mask-type:luminance" maskUnits="userSpaceOnUse" x="13" y="38" width="23" height="21">
<path d="M13.9902 38.9791H35.3013V58.2125L24.6475 54.5439L13.9902 58.2125V38.9791Z" fill="white"/>
</mask>
<g mask="url(#mask0_545_8055)">
<path style="mix-blend-mode:screen" opacity="0.65" d="M16.8996 50.0953C16.6925 49.6467 16.4509 49.3706 16.1749 49.3706C16.1749 51.0271 16.2094 54.6854 16.2094 58.8613C16.8306 58.8613 17.4633 58.8613 18.1075 58.8613C18.1075 54.927 17.5898 51.5103 16.8996 50.0953ZM16.1749 49.3706C15.8297 49.3706 15.5881 49.7847 15.4501 50.0953C14.7599 51.5103 14.2422 54.927 14.2422 58.8613C14.8864 58.8613 15.5306 58.8613 16.1749 58.8613C16.1749 58.8613 16.1864 58.8613 16.2094 58.8613C16.2094 54.6854 16.1749 51.0271 16.1749 49.3706Z" fill="url(#paint1_linear_545_8055)"/>
<path style="mix-blend-mode:screen" opacity="0.65" d="M22.8721 48.7493C22.7341 48.3352 22.5615 48.1281 22.3889 48.1281C22.3889 49.5776 22.3889 52.8217 22.3889 56.549C22.8261 56.549 23.2747 56.549 23.7349 56.549C23.7349 53.0288 23.3898 50.0262 22.8721 48.7493ZM22.3889 48.1281C22.1474 48.1281 21.9748 48.5077 21.8713 48.7493C21.3881 50.0262 21.043 53.0288 21.043 56.549C21.5031 56.549 21.9518 56.549 22.3889 56.549C22.3889 52.8217 22.3889 49.5776 22.3889 48.1281Z" fill="url(#paint2_linear_545_8055)"/>
<path style="mix-blend-mode:screen" opacity="0.65" d="M33.5664 49.0599C33.2903 48.5767 33.0142 48.3006 32.7036 48.3006C32.7036 50.0953 32.7036 54.0641 32.7036 58.5852C33.4858 58.5852 34.2681 58.5852 35.0504 58.5852C35.0504 54.3057 34.4292 50.6129 33.5664 49.0599ZM32.7036 48.3006C32.2549 48.3006 31.9788 48.7493 31.8063 49.0599C30.909 50.6129 30.3223 54.3057 30.3223 58.5852C31.1045 58.5852 31.8868 58.5852 32.6691 58.5852C32.6921 58.5852 32.7036 58.5852 32.7036 58.5852C32.7036 54.0641 32.7036 50.0953 32.7036 48.3006Z" fill="url(#paint3_linear_545_8055)"/>
<path style="mix-blend-mode:screen" opacity="0.65" d="M28.8396 48.6113C28.667 48.1972 28.46 47.9901 28.2529 47.9901C28.2529 49.4741 28.2874 52.7182 28.2874 56.4455C28.7936 56.4455 29.2998 56.4455 29.8059 56.4455C29.8059 52.9253 29.4263 49.8882 28.8396 48.6113ZM28.2529 47.9901C27.9768 47.9901 27.8042 48.3697 27.7007 48.6113C27.114 49.8882 26.7344 52.9253 26.7344 56.4455C27.2405 56.4455 27.7467 56.4455 28.2529 56.4455C28.2759 56.4455 28.2874 56.4455 28.2874 56.4455C28.2874 52.7182 28.2529 49.4741 28.2529 47.9901Z" fill="url(#paint4_linear_545_8055)"/>
<path style="mix-blend-mode:multiply" opacity="0.45" d="M19.7992 56.0659C19.6267 56.6181 19.4541 56.8942 19.247 56.9287C19.247 54.927 19.247 50.5785 19.247 45.6088C19.7532 45.6088 20.2479 45.6088 20.731 45.6088C20.731 50.3024 20.3514 54.3748 19.7992 56.0659ZM19.247 56.9287C18.9709 56.9287 18.7639 56.411 18.6603 56.0659C18.1081 54.3748 17.7285 50.3024 17.7285 45.6088C18.2347 45.6088 18.7409 45.6088 19.247 45.6088C19.247 50.5785 19.247 54.927 19.247 56.9287Z" fill="url(#paint5_linear_545_8055)"/>
<path style="mix-blend-mode:multiply" opacity="0.65" d="M30.7047 56.0658C30.6012 56.618 30.4631 56.8941 30.3251 56.9286C30.3251 54.8924 30.3251 50.4404 30.3251 45.3326C30.6702 45.3326 31.0268 45.3326 31.3949 45.3326C31.3949 50.1298 31.1188 54.3057 30.7047 56.0658ZM30.3251 56.9286C30.118 56.9286 29.98 56.4109 29.9109 56.0658C29.4968 54.3057 29.2207 50.1298 29.2207 45.3326C29.5888 45.3326 29.957 45.3326 30.3251 45.3326C30.3251 50.4404 30.3251 54.8924 30.3251 56.9286Z" fill="url(#paint6_linear_545_8055)"/>
<path style="mix-blend-mode:multiply" opacity="0.65" d="M25.9398 53.6155C25.7673 54.0987 25.5947 54.3748 25.3876 54.3748C25.3876 52.5802 25.4222 48.6458 25.4222 44.1593C25.8823 44.1593 26.354 44.1593 26.8371 44.1593C26.8371 48.4042 26.4575 52.097 25.9398 53.6155ZM25.3876 54.3748C25.1461 54.3748 24.9735 53.9261 24.87 53.6155C24.3178 52.097 23.9727 48.4042 23.9727 44.1593C24.4328 44.1593 24.9045 44.1593 25.3876 44.1593C25.3876 44.1593 25.3991 44.1593 25.4222 44.1593C25.4222 48.6458 25.3876 52.5802 25.3876 54.3748Z" fill="url(#paint7_linear_545_8055)"/>
</g>
<path d="M27.2217 4.43618L32.9507 12.6155C33.917 14.0305 35.1595 14.9278 36.7815 15.4109L46.3413 18.3445C47.3421 18.6551 48.0669 19.3798 48.412 20.3807C48.7226 21.3815 48.5501 22.3823 47.9288 23.2106L41.9238 31.1829C40.8884 32.5633 40.4053 34.0128 40.4398 35.7039L40.6123 45.7123C40.6468 46.7477 40.1637 47.6795 39.3354 48.3007C38.4726 48.8874 37.4718 49.06 36.4709 48.7149L27.0147 45.4708C25.4271 44.9186 23.8741 44.9186 22.2865 45.4708L12.8303 48.7149C11.8295 49.06 10.8286 48.8874 9.96582 48.3007C9.13754 47.6795 8.65437 46.7477 8.68888 45.7123L8.86144 35.7039C8.89595 34.0128 8.41279 32.5633 7.37743 31.1829L1.37237 23.2106C0.751157 22.3823 0.578598 21.3815 0.889204 20.3807C1.23432 19.3798 1.95907 18.6551 2.95991 18.3445L12.5197 15.4109C14.1418 14.9278 15.3842 14.0305 16.3505 12.6155L22.0795 4.43618C22.7007 3.57339 23.598 3.12473 24.6334 3.12473C25.7032 3.12473 26.6005 3.57339 27.2217 4.43618Z" fill="url(#paint8_linear_545_8055)"/>
<path d="M23.8081 7.47329L18.9074 14.4102C17.5499 16.3888 15.7208 17.7233 13.42 18.4135L5.30972 20.8984C4.9646 21.0019 4.72302 21.2435 4.61948 21.5886C4.51595 21.8992 4.55046 22.2444 4.79204 22.5204C6.49463 24.7752 8.19721 27.0415 9.8998 29.3193C11.3148 31.2174 12.0395 33.3917 11.9705 35.773C11.9245 38.603 11.8785 41.4329 11.8325 44.2629C11.8325 44.608 11.9705 44.9186 12.2811 45.1257C12.5572 45.3328 12.9023 45.3673 13.2129 45.2637L21.2542 42.5028C23.509 41.7205 25.7752 41.7205 28.053 42.5028L36.0943 45.2637C36.4049 45.3673 36.75 45.3328 37.0261 45.1257C37.3022 44.9186 37.4748 44.608 37.4748 44.2629C37.4287 41.4329 37.3712 38.603 37.3022 35.773C37.2677 33.3917 37.9924 31.2174 39.4074 29.3193L44.5152 22.5204C44.7222 22.2444 44.7913 21.8992 44.6877 21.5886C44.5842 21.2435 44.3426 21.0019 43.9975 20.8984C41.2826 20.0701 38.5791 19.2418 35.8872 18.4135C33.5864 17.7233 31.7458 16.3888 30.3653 14.4102L25.4992 7.47329C25.2921 7.16268 25.016 7.02463 24.6364 7.02463C24.2912 7.02463 24.0151 7.16268 23.8081 7.47329Z" fill="url(#paint9_radial_545_8055)"/>
<path d="M4.9949 13.8579C4.20112 14.0995 3.61442 14.6172 3.26931 15.342L1.06055 19.9665C1.44018 19.1728 2.0959 18.6206 2.9587 18.3445L12.5185 15.411C14.1405 14.9278 15.383 14.0305 16.3493 12.6155L22.0783 4.43621C22.6995 3.57341 23.5968 3.12476 24.6321 3.12476C25.702 3.12476 26.5993 3.57341 27.2205 4.43621L32.9495 12.6155C33.9158 14.0305 35.1582 14.9278 36.7803 15.411L46.3401 18.3445C47.2029 18.6206 47.8586 19.1728 48.2382 19.9665L46.0295 15.342C45.6844 14.6172 45.0631 14.0995 44.3039 13.8579L35.6414 11.235C34.1574 10.7864 33.053 9.95811 32.1557 8.68117L26.9789 1.29563C26.4268 0.50186 25.5985 0.0532055 24.6321 0.0532055C23.7003 0.0532055 22.872 0.50186 22.3198 1.29563L17.1431 8.68117C16.2458 9.95811 15.1069 10.7864 13.6574 11.235L4.9949 13.8579Z" fill="url(#paint10_linear_545_8055)"/>
<path d="M12.7298 34.2545C12.7643 32.0112 12.074 29.9405 10.7281 28.1459C9.11753 26.0291 7.51848 23.9009 5.93093 21.7612C5.72386 21.4851 5.65484 21.1745 5.75837 20.8639C5.78138 20.8179 5.80439 20.7833 5.8274 20.7603L5.30972 20.8984C4.9646 21.0019 4.72302 21.2435 4.61948 21.5886C4.51595 21.8992 4.55046 22.2443 4.79204 22.5204C6.49463 24.7752 8.19721 27.0415 9.8998 29.3193C11.3148 31.2174 12.0395 33.3917 11.9705 35.773C11.9245 38.603 11.8785 41.4329 11.8325 44.2629C11.8325 44.608 11.9705 44.9186 12.2811 45.1257C12.5572 45.3328 12.9023 45.3673 13.2129 45.2637L21.2542 42.5028C23.509 41.7205 25.7752 41.7205 28.053 42.5028L36.0943 45.2637C36.4049 45.3673 36.75 45.3328 37.0261 45.1257C37.3022 44.9186 37.4748 44.608 37.4748 44.2629C37.4287 41.4329 37.3712 38.603 37.3022 35.773C37.2677 33.3917 37.9924 31.2174 39.4074 29.3193L44.5152 22.5204C44.7222 22.2443 44.7913 21.8992 44.6877 21.5886C44.5842 21.2435 44.3426 21.0019 43.9975 20.8984C43.8364 20.8524 43.6639 20.8064 43.4798 20.7603C43.5028 20.7833 43.5258 20.8179 43.5488 20.8639C43.6524 21.1745 43.5834 21.4851 43.3763 21.7612L38.5791 28.1459C37.1987 29.9405 36.5429 32.0112 36.5774 34.2545C36.6235 36.9234 36.6695 39.5923 36.7155 42.2612C36.75 42.5718 36.5774 42.8824 36.3359 43.055C36.0598 43.2621 35.7492 43.2966 35.4386 43.193L27.846 40.6046C25.7062 39.8684 23.578 39.8684 21.4613 40.6046L13.8687 43.193C13.5581 43.2966 13.2474 43.2621 12.9713 43.055C12.7298 42.8824 12.5572 42.5718 12.5917 42.2612C12.6377 39.5923 12.6838 36.9234 12.7298 34.2545Z" fill="url(#paint11_linear_545_8055)"/>
<path style="mix-blend-mode:screen" d="M17.2461 43.8831C20.0761 42.7788 22.4919 41.5018 25.2874 41.7089C27.9103 41.916 32.4658 44.0902 36.0896 45.1601C36.4692 45.2636 36.7453 45.2981 37.0214 45.1256C36.7453 45.4017 36.5037 45.4362 36.055 45.3326C34.0188 44.9875 27.9793 42.3991 25.2528 42.1575C22.6645 41.8814 19.7655 43.1584 17.2461 43.8831Z" fill="url(#paint12_radial_545_8055)"/>
<path style="mix-blend-mode:multiply" d="M11.4833 35.773C11.5179 33.4952 10.8621 31.4245 9.48166 29.5953C8.74541 28.629 8.00916 27.6512 7.2729 26.6618C6.47913 25.592 3.95977 25.8335 4.71903 26.8344L7.79058 30.9068C8.86045 32.3218 9.37813 33.9093 9.34361 35.7384L9.17105 45.7124C9.17105 46.6097 9.55068 47.3689 10.2754 47.8866C10.9657 48.4043 11.8285 48.5423 12.6568 48.2317L22.113 44.9876C23.8041 44.4009 25.4606 44.4009 27.1862 44.9876L36.6425 48.2317C37.4708 48.5423 38.3336 48.4043 39.0238 47.8866C39.7485 47.3689 40.1282 46.6097 40.1282 45.7124L39.9556 35.7384C39.9211 33.9093 40.4388 32.3218 41.5086 30.9068L44.5457 26.8344C45.305 25.8335 42.8201 25.592 42.0263 26.6618L39.8176 29.5953C38.4371 31.4245 37.7814 33.4952 37.8159 35.773C37.8619 38.6029 37.9079 41.4329 37.9539 44.2629C37.9539 44.7805 37.7469 45.2292 37.3327 45.5398C36.9186 45.8159 36.4009 45.9194 35.9177 45.7469L27.8765 42.9859C25.7137 42.2267 23.5625 42.2267 21.4228 42.9859L13.3815 45.7469C12.8983 45.9194 12.3807 45.8159 11.9665 45.5398C11.5524 45.2292 11.3453 44.7805 11.3453 44.2629C11.3913 41.4329 11.4373 38.6029 11.4833 35.773Z" fill="url(#paint13_linear_545_8055)"/>
<g style="mix-blend-mode:multiply">
<path d="M24.7378 36.3252C22.4946 36.3252 20.4239 35.9455 18.5947 35.1518C17.9965 34.8987 17.4213 34.5651 16.8691 34.1509L18.8363 30.9758C20.4584 31.9767 22.322 32.4944 24.3582 32.4944C25.0254 32.4944 25.5546 32.3333 25.9458 32.0112C26.3599 31.6891 26.567 31.2979 26.567 30.8378C26.567 30.4466 26.4979 30.1245 26.3599 29.8715C26.2218 29.6414 26.0378 29.4343 25.8077 29.2502C25.1175 28.7671 24.1166 28.5255 22.8052 28.5255C22.4831 28.5255 22.2415 28.5255 22.0804 28.5255L21.1486 26.9034C21.3902 26.6964 22.0114 26.2477 23.5644 25.2124L24.5998 24.5221H17.7664V20.9674H32.2269V22.1753L26.567 26.4893L27.4643 26.5928C30.8809 27.0415 32.5375 28.5255 32.5375 31.1829C32.5375 32.4598 32.1579 33.5297 31.3641 34.3235C30.0872 35.6694 27.8784 36.3252 24.8069 36.3252H24.7378Z" fill="#577A78"/>
<path fill-rule="evenodd" clip-rule="evenodd" d="M19.8724 36.4287C20.9077 36.7393 22.5643 37.1189 24.7386 37.1189C24.7386 36.8428 24.7386 36.7048 24.7386 36.7048C22.5988 36.7048 21.0113 36.3596 19.9759 36.049C18.9406 35.7384 18.4574 35.4968 18.4574 35.4968C18.4574 35.4968 18.4114 35.6234 18.3194 35.8765C18.3194 35.8765 18.8025 36.1181 19.8724 36.4287ZM18.3194 35.8765C18.4114 35.6234 18.4574 35.4968 18.4574 35.4968C18.4574 35.4968 18.3999 35.6119 18.2848 35.842C18.2848 35.865 18.2963 35.8765 18.3194 35.8765ZM18.2848 35.842C18.3999 35.6119 18.4574 35.4968 18.4574 35.4968C17.8132 35.2207 17.215 34.8756 16.6628 34.4615C16.6628 34.4615 16.5823 34.565 16.4212 34.7721C17.0079 35.2207 17.6291 35.5659 18.2848 35.842ZM16.2141 33.7367C16.0071 34.0819 16.0761 34.5305 16.4212 34.7721C16.5823 34.565 16.6628 34.4615 16.6628 34.4615H16.6283C16.4902 34.358 16.4212 34.1164 16.5247 33.9438H16.5593C16.5593 33.9438 16.4442 33.8748 16.2141 33.7367ZM16.2141 33.7367C16.4442 33.8748 16.5593 33.9438 16.5593 33.9438C17.2035 32.8854 17.8477 31.8271 18.4919 30.7687C18.4919 30.7687 18.3884 30.6997 18.1813 30.5617C17.5141 31.62 16.8584 32.6784 16.2141 33.7367ZM19.2512 30.2856C19.2282 30.2856 19.2167 30.2856 19.2167 30.2856C18.8715 30.0785 18.3884 30.182 18.1813 30.5617C18.3884 30.6997 18.4919 30.7687 18.4919 30.7687V30.7342C18.5955 30.5617 18.837 30.5271 19.0441 30.6307C19.0441 30.6307 19.1131 30.5156 19.2512 30.2856ZM19.2512 30.2856C19.1131 30.5156 19.0441 30.6307 19.0441 30.6307C20.6317 31.597 22.4953 32.1147 24.3589 32.0802C24.3589 32.0802 24.3589 31.9536 24.3589 31.7005C22.5643 31.7005 20.7697 31.2519 19.2512 30.2856ZM24.3589 31.7005C24.3589 31.9536 24.3589 32.0802 24.3589 32.0802C24.8766 32.0802 25.3598 31.9766 25.7049 31.7005C25.7049 31.7005 25.6244 31.6085 25.4633 31.4244C25.2217 31.597 24.8076 31.7005 24.3589 31.7005ZM25.4633 31.4244C25.6244 31.6085 25.7049 31.7005 25.7049 31.7005C25.7049 31.7005 25.6244 31.597 25.4633 31.3899V31.4244ZM25.4978 31.4244C25.6589 31.6315 25.7394 31.7351 25.7394 31.7351C26.0155 31.4935 26.1881 31.2174 26.1881 30.8723C26.1881 30.8723 26.0615 30.8723 25.8084 30.8723C25.8084 31.0793 25.7394 31.2174 25.4978 31.4244ZM25.8084 30.8723C26.0615 30.8723 26.1881 30.8723 26.1881 30.8723C26.1881 30.5616 26.1535 30.2856 26.05 30.0785C26.05 30.0785 25.935 30.1475 25.7049 30.2856C25.7739 30.3891 25.8084 30.5962 25.8084 30.8723ZM25.7049 30.2856C25.912 30.1475 26.0155 30.0785 26.0155 30.0785C25.9235 29.8944 25.7854 29.7334 25.6014 29.5953C25.6014 29.5953 25.5208 29.6989 25.3598 29.9059C25.4978 29.998 25.6129 30.1245 25.7049 30.2856ZM25.3598 29.8714C25.4978 29.6643 25.5668 29.5608 25.5668 29.5608C24.8421 29.0431 23.8067 28.9051 22.8404 28.9051C22.8404 28.9051 22.8404 29.0316 22.8404 29.2847C23.7722 29.2847 24.7386 29.4573 25.3598 29.8714ZM22.8404 29.2847C22.8404 29.0316 22.8404 28.9051 22.8404 28.9051C22.8404 28.9051 22.8289 28.9051 22.8059 28.9051C22.8059 28.9051 22.8059 29.0316 22.8059 29.2847C22.8289 29.2847 22.8404 29.2847 22.8404 29.2847ZM22.8059 29.2847C22.8059 29.0316 22.8059 28.9051 22.8059 28.9051C22.5758 28.9051 22.3457 28.9166 22.1157 28.9396C22.1157 28.9396 22.1272 29.0661 22.1502 29.3192C22.3803 29.3192 22.5988 29.3077 22.8059 29.2847ZM22.1502 29.3192C22.1272 29.0661 22.1157 28.9396 22.1157 28.9396C22.1157 28.9396 22.1042 28.9396 22.0811 28.9396C22.0811 28.9396 22.0927 29.0661 22.1157 29.3192C22.1157 29.3192 22.1272 29.3192 22.1502 29.3192ZM20.9423 28.1113C21.0113 28.2494 21.0918 28.3874 21.1838 28.5255C21.2068 28.5945 21.2414 28.6635 21.2874 28.7325C21.3104 28.7555 21.3334 28.79 21.3564 28.8361C21.3564 28.8361 21.3564 28.8476 21.3564 28.8706C21.3794 28.8706 21.3909 28.8821 21.3909 28.9051V28.9396C21.736 29.1122 20.6662 28.5254 22.1157 29.3192C22.0927 29.0661 22.0811 28.9396 22.0811 28.9396C21.3564 28.5255 21.9086 28.8015 21.736 28.7325C21.736 28.7095 21.736 28.698 21.736 28.698C21.713 28.698 21.7015 28.6865 21.7015 28.6635C21.7015 28.6635 21.69 28.652 21.667 28.629C21.644 28.606 21.6325 28.5715 21.6325 28.5255C21.5865 28.4564 21.5405 28.3874 21.4944 28.3184C21.4254 28.1803 21.3564 28.0538 21.2874 27.9387C21.1263 27.6627 20.9653 27.3866 20.8042 27.1105C20.8042 27.1105 20.7007 27.1795 20.4936 27.3175C20.6317 27.5936 20.7812 27.8582 20.9423 28.1113ZM20.4936 27.3175C20.7007 27.1795 20.8042 27.1105 20.8042 27.1105C20.8042 27.1105 20.6892 27.1795 20.4591 27.3175C20.4591 27.3175 20.4706 27.3175 20.4936 27.3175ZM21.8741 25.4539C21.667 25.5919 21.4599 25.73 21.2529 25.868C21.1608 25.9601 21.0688 26.0406 20.9768 26.1096C20.9077 26.1326 20.8502 26.1671 20.8042 26.2132C20.7812 26.2362 20.7582 26.2477 20.7352 26.2477C20.7122 26.2707 20.7007 26.2822 20.7007 26.2822C20.6777 26.2822 20.6662 26.2937 20.6662 26.3167C20.5626 26.7653 20.8387 25.3159 20.4591 27.3175C20.6892 27.1795 20.8042 27.1105 20.8042 27.1105C20.9768 26.1096 20.8732 26.8344 20.9077 26.6273V26.5928C20.9308 26.5928 20.9423 26.5928 20.9423 26.5928C20.9423 26.5698 20.9538 26.5583 20.9768 26.5583C20.9998 26.5353 21.0228 26.5238 21.0458 26.5238C21.0918 26.4777 21.1493 26.4317 21.2183 26.3857C21.3104 26.3167 21.4024 26.2477 21.4944 26.1786C21.7015 26.0406 21.9086 25.9026 22.1157 25.7645C22.3457 25.6034 22.5873 25.4424 22.8404 25.2813C22.8404 25.2813 22.5873 25.2928 22.0811 25.3158C22.0121 25.3619 21.9431 25.4079 21.8741 25.4539ZM22.1157 25.7645C21.9086 25.9026 21.7015 26.0406 21.4944 26.1786C21.4024 26.2477 21.3104 26.3167 21.2183 26.3857C21.1493 26.4317 21.0918 26.4777 21.0458 26.5238C21.0228 26.5238 20.9998 26.5353 20.9768 26.5583C20.9538 26.5583 20.9423 26.5698 20.9423 26.5928C20.9423 26.5928 20.9308 26.5928 20.9077 26.5928V26.6273C20.8732 26.8344 20.9768 26.1096 20.8042 27.1105C20.9192 27.0414 21.0343 26.9724 21.1493 26.9034C21.9546 26.3512 22.7599 25.799 23.5652 25.2468C23.3121 25.2468 23.0705 25.2583 22.8404 25.2813C22.5873 25.4424 22.3457 25.6034 22.1157 25.7645ZM22.0811 25.3158C22.9324 25.0398 23.3581 24.9017 23.3581 24.9017C21.4944 24.9017 19.6423 24.9017 17.8017 24.9017C17.8017 24.9017 17.8017 25.0398 17.8017 25.3158C19.2282 25.3158 20.6547 25.3158 22.0811 25.3158ZM22.0811 25.3158C22.9324 25.0628 23.3581 24.9362 23.3581 24.9362V24.9017C23.3581 24.9017 22.9324 25.0398 22.0811 25.3158ZM22.0811 25.3158C22.5873 25.2928 22.8404 25.2813 22.8404 25.2813C23.0015 25.1663 23.174 25.0513 23.3581 24.9362C23.3581 24.9362 22.9324 25.0628 22.0811 25.3158ZM17.0079 24.5221C17.0079 24.9707 17.353 25.3158 17.7672 25.3158H17.8017C17.8017 25.0398 17.8017 24.9017 17.8017 24.9017H17.7672C17.5601 24.9017 17.3875 24.7292 17.3875 24.5221C17.3875 24.5221 17.261 24.5221 17.0079 24.5221ZM17.0079 24.5221C17.261 24.5221 17.3875 24.5221 17.3875 24.5221C17.3875 23.3487 17.3875 22.1753 17.3875 21.0019C17.3875 21.0019 17.261 21.0019 17.0079 21.0019C17.0079 22.1753 17.0079 23.3487 17.0079 24.5221ZM17.7672 20.2081C17.353 20.2081 17.0079 20.5532 17.0079 21.0019C17.261 21.0019 17.3875 21.0019 17.3875 21.0019C17.3875 20.7603 17.5601 20.5877 17.7672 20.5877H17.8017C17.8017 20.5877 17.8017 20.4612 17.8017 20.2081H17.7672ZM17.7672 20.2081C17.7672 20.4612 17.7672 20.5877 17.7672 20.5877C22.5758 20.5877 27.3845 20.5877 32.1931 20.5877C32.1931 20.5877 32.1931 20.4612 32.1931 20.2081C27.3845 20.2081 22.5758 20.2081 17.7672 20.2081ZM32.9524 21.0019L32.1931 20.2081C32.1931 20.4612 32.1931 20.5877 32.1931 20.5877L32.5727 21.0019C32.5727 21.0019 32.6993 21.0019 32.9524 21.0019ZM32.9524 21.0019C32.6993 21.0019 32.5727 21.0019 32.5727 21.0019C32.5727 21.393 32.5727 21.7956 32.5727 22.2098C32.5727 22.2098 32.6993 22.2098 32.9524 22.2098C32.9524 21.7956 32.9524 21.393 32.9524 21.0019ZM32.6418 22.831H32.6763L32.9524 22.2098C32.6993 22.2098 32.5727 22.2098 32.5727 22.2098L32.4347 22.5204H32.4002C32.4002 22.5204 32.4807 22.6239 32.6418 22.831ZM32.6418 22.831C32.4807 22.6239 32.4002 22.5204 32.4002 22.5204C30.7666 23.7628 29.1331 25.0052 27.4995 26.2477C27.4995 26.2477 27.8216 26.1671 28.4658 26.0061C29.8693 24.9477 31.2613 23.8894 32.6418 22.831ZM32.4002 22.5204C32.3312 22.4284 32.2506 22.3248 32.1586 22.2098C30.295 23.6363 28.4198 25.0743 26.5332 26.5238C26.8553 26.4317 27.1774 26.3397 27.4995 26.2477C29.1331 25.0052 30.7666 23.7628 32.4002 22.5204ZM32.1586 22.2098C32.0436 22.1408 31.917 22.0717 31.779 22.0027C30.9047 22.693 30.0189 23.3717 29.1216 24.0389C28.6384 24.407 28.1667 24.7637 27.7066 25.1088C27.4765 25.2928 27.2349 25.4769 26.9818 25.661C26.8668 25.753 26.7518 25.845 26.6367 25.9371C26.5907 25.9831 26.5332 26.0291 26.4642 26.0751C26.4411 26.0981 26.4181 26.1211 26.3951 26.1441C26.3721 26.1441 26.3491 26.1556 26.3261 26.1786C26.3031 26.1786 26.2916 26.1786 26.2916 26.1786V26.2132C26.3606 26.5238 26.119 25.5229 26.4642 26.9034C26.4872 26.7653 26.5102 26.6388 26.5332 26.5238C28.4198 25.0743 30.295 23.6363 32.1586 22.2098ZM26.2916 26.2132V26.1786C26.2916 26.1786 26.3031 26.1786 26.3261 26.1786C26.3491 26.1556 26.3721 26.1441 26.3951 26.1441C26.4181 26.1211 26.4411 26.0981 26.4642 26.0751C26.5332 26.0291 26.5907 25.9831 26.6367 25.9371C26.7518 25.845 26.8668 25.753 26.9818 25.661C27.2349 25.4769 27.4765 25.2928 27.7066 25.1088C28.1667 24.7637 28.6384 24.407 29.1216 24.0389C30.0189 23.3717 30.9047 22.693 31.779 22.0027C31.779 22.0027 31.6524 21.9452 31.3993 21.8302C30.5711 22.4744 29.7313 23.1071 28.88 23.7283C28.4198 24.0964 27.9482 24.4646 27.465 24.8327C27.2349 24.9937 27.0048 25.1663 26.7748 25.3504C26.6367 25.4424 26.5102 25.5344 26.3951 25.6265C26.3491 25.6725 26.2916 25.7185 26.2226 25.7645C26.1996 25.7875 26.1766 25.8105 26.1535 25.8335C26.1305 25.8335 26.1075 25.845 26.0845 25.868C26.0845 25.868 26.073 25.868 26.05 25.868V25.9026C26.2226 26.5238 25.6704 24.4876 26.4296 27.283C26.4526 27.0299 26.4642 26.9034 26.4642 26.9034C26.119 25.5229 26.3606 26.5238 26.2916 26.2132ZM32.8834 29.0431C32.6073 28.3184 32.0896 27.6972 31.5029 27.2485C30.8817 26.7999 30.2259 26.4893 29.5702 26.2822C29.2251 26.1671 28.8915 26.0751 28.5694 26.0061C28.4313 26.0061 28.4658 26.0061 28.4658 26.0061C28.1437 26.2132 27.9827 26.3167 27.9827 26.3167C28.1552 26.3512 28.2243 26.3512 28.5003 26.3857C28.8225 26.4547 29.1331 26.5468 29.4322 26.6618C30.0879 26.8344 30.7091 27.145 31.2613 27.5591C31.8135 27.9733 32.2621 28.5255 32.5382 29.1812C32.8143 29.8369 32.9179 30.5271 32.9179 31.1829C32.9179 31.1829 33.0444 31.1829 33.2975 31.1829C33.2975 30.4926 33.194 29.7334 32.8834 29.0431ZM33.2975 31.1829C33.0444 31.1829 32.9179 31.1829 32.9179 31.1829C32.9179 31.1829 32.9179 31.1944 32.9179 31.2174C32.9179 31.2174 33.0444 31.2174 33.2975 31.2174C33.2975 31.2174 33.2975 31.2059 33.2975 31.1829ZM33.2975 31.2174C33.0444 31.2174 32.9179 31.2174 32.9179 31.2174C32.9179 32.4253 32.5037 33.7022 31.6409 34.5995C31.6409 34.5995 31.733 34.6916 31.917 34.8756C32.8834 33.9093 33.332 32.4943 33.2975 31.2174ZM31.917 34.8756C31.733 34.6916 31.6409 34.5995 31.6409 34.5995C31.6179 34.5995 31.6064 34.5995 31.6064 34.5995C31.6064 34.5995 31.6984 34.6916 31.8825 34.8756C31.9055 34.8756 31.917 34.8756 31.917 34.8756ZM28.4658 36.7048C29.6737 36.4287 30.9162 35.8765 31.8825 34.8756C31.6984 34.6916 31.6064 34.5995 31.6064 34.5995C30.7091 35.5314 29.5357 36.049 28.3623 36.3251C27.1889 36.6357 25.981 36.7048 24.7731 36.7393C24.7731 36.7393 24.7731 36.8658 24.7731 37.1189C26.0155 37.1189 27.2234 37.0154 28.4658 36.7048ZM24.7731 37.1189C24.7731 36.8658 24.7731 36.7393 24.7731 36.7393C24.7731 36.7393 24.7501 36.7393 24.704 36.7393C24.704 36.7393 24.704 36.8658 24.704 37.1189C24.7501 37.1189 24.7731 37.1189 24.7731 37.1189ZM19.9414 36.0835C20.9768 36.3596 22.5643 36.7393 24.704 36.7393C24.704 36.6012 24.704 36.4632 24.704 36.3251C22.5988 36.3251 21.0803 35.98 20.0795 35.7039C19.0441 35.3933 18.5955 35.1517 18.5955 35.1517C18.5494 35.2898 18.4919 35.4163 18.4229 35.5314C18.4229 35.5314 18.9061 35.7729 19.9414 36.0835ZM18.4229 35.5314C18.4919 35.4163 18.5494 35.2898 18.5955 35.1517C18.5955 35.1517 18.5839 35.1517 18.5609 35.1517C18.5149 35.2668 18.4689 35.3933 18.4229 35.5314ZM18.4229 35.5314C18.4689 35.3933 18.5149 35.2668 18.5609 35.1517C17.9627 34.8986 17.3875 34.5765 16.8353 34.1854C16.7663 34.2774 16.6973 34.381 16.6283 34.496C17.1805 34.9101 17.7787 35.2553 18.4229 35.5314ZM16.5247 33.9783C16.4212 34.1164 16.4557 34.358 16.6283 34.4615V34.496C16.6973 34.381 16.7663 34.2774 16.8353 34.1854V34.1509C16.7433 34.0819 16.6398 34.0128 16.5247 33.9438V33.9783ZM16.5247 33.9783C16.6398 34.0473 16.7433 34.1164 16.8353 34.1854C17.5026 33.127 18.1583 32.0687 18.8025 31.0103C18.6875 30.9413 18.5724 30.8723 18.4574 30.8032C17.8132 31.8616 17.169 32.92 16.5247 33.9783ZM19.0096 30.6652C18.8025 30.5616 18.5954 30.6307 18.4574 30.8032C18.5724 30.8723 18.6875 30.9413 18.8025 31.0103C18.8715 30.8953 18.9406 30.7802 19.0096 30.6652ZM19.0096 30.6652C18.9406 30.7802 18.8715 30.8953 18.8025 31.0103C20.4591 32.0457 22.3918 32.5288 24.3244 32.5288C24.3244 32.3908 24.3244 32.2642 24.3244 32.1492C22.4608 32.1492 20.5971 31.666 19.0096 30.6652ZM24.3244 32.1492C24.3244 32.2642 24.3244 32.3908 24.3244 32.5288C24.3244 32.5288 24.3359 32.5288 24.3589 32.5288C24.3359 32.3908 24.3244 32.2642 24.3244 32.1492ZM24.3244 32.1492C24.3244 32.2642 24.3359 32.3908 24.3589 32.5288C24.9111 32.5288 25.4633 32.4253 25.912 32.0802C25.8429 31.9651 25.7624 31.8616 25.6704 31.7696C25.3253 32.0457 24.8421 32.1492 24.3244 32.1492ZM25.6704 31.7696C25.7624 31.8616 25.8429 31.9651 25.912 32.0802C25.912 32.0802 25.9235 32.0687 25.9465 32.0457C25.8544 31.9536 25.7739 31.8616 25.7049 31.7696C25.6819 31.7696 25.6704 31.7696 25.6704 31.7696ZM25.7049 31.7696C25.7739 31.8616 25.8544 31.9536 25.9465 32.0457C26.2916 31.8041 26.5677 31.3554 26.5677 30.9068C26.4296 30.9068 26.2916 30.9068 26.1535 30.9068C26.1535 31.2174 25.981 31.528 25.7049 31.7696ZM26.1535 30.9068C26.2916 30.9068 26.4296 30.9068 26.5677 30.9068C26.5677 30.9068 26.5677 30.8953 26.5677 30.8723C26.4296 30.8723 26.2916 30.8723 26.1535 30.8723C26.1535 30.8953 26.1535 30.9068 26.1535 30.9068ZM26.1535 30.8723C26.2916 30.8723 26.4296 30.8723 26.5677 30.8723C26.5677 30.5616 26.4987 30.2165 26.3606 29.9404C26.2456 29.9865 26.1305 30.044 26.0155 30.113C26.119 30.3201 26.1535 30.5962 26.1535 30.8723ZM26.0155 30.113C26.1305 30.044 26.2456 29.9865 26.3606 29.9404C26.3376 29.9174 26.3261 29.9059 26.3261 29.9059C26.2111 29.9749 26.1075 30.044 26.0155 30.113ZM25.981 30.113C26.096 30.044 26.2111 29.9749 26.3261 29.9059C26.1881 29.6643 26.0155 29.4573 25.7739 29.2847C25.7049 29.3998 25.6359 29.5148 25.5668 29.6298C25.7509 29.7449 25.889 29.9059 25.981 30.113ZM25.5668 29.6298C25.6359 29.5148 25.7049 29.3998 25.7739 29.2847C25.7049 29.3998 25.6244 29.5033 25.5323 29.5953C25.5553 29.5953 25.5668 29.6068 25.5668 29.6298ZM25.5323 29.5953C25.6244 29.5033 25.7049 29.3998 25.7739 29.2847C24.9111 28.698 23.8413 28.56 22.8059 28.56C22.8059 28.675 22.8059 28.8015 22.8059 28.9396C23.8067 28.9396 24.8076 29.0776 25.5323 29.5953ZM22.8059 28.9396C22.8059 28.8015 22.8059 28.675 22.8059 28.56C22.5528 28.56 22.2997 28.56 22.0466 28.56C22.0696 28.698 22.0811 28.8246 22.0811 28.9396C22.3112 28.9396 22.5528 28.9396 22.8059 28.9396ZM22.0466 28.56C22.0696 28.698 22.0811 28.8246 22.0811 28.9396C22.0581 28.8246 22.0466 28.698 22.0466 28.56ZM21.2529 27.9733C21.3219 28.0883 21.3909 28.2148 21.4599 28.3529C21.506 28.4219 21.552 28.4909 21.598 28.56C21.621 28.583 21.6325 28.6175 21.6325 28.6635C21.6555 28.6865 21.667 28.698 21.667 28.698C21.69 28.721 21.7015 28.7325 21.7015 28.7325V28.767C21.8741 28.8361 21.3564 28.56 22.0811 28.9396C22.0581 28.8246 22.0466 28.698 22.0466 28.56C21.7475 28.0308 21.4369 27.5016 21.1148 26.9724C20.9998 27.0184 20.8847 27.076 20.7697 27.145C20.9308 27.4211 21.0918 27.6972 21.2529 27.9733ZM20.7697 27.145C20.8847 27.076 20.9998 27.0184 21.1148 26.9724C21.1148 26.9494 21.1148 26.9379 21.1148 26.9379C20.9998 27.0069 20.8847 27.076 20.7697 27.145ZM21.1148 26.9379C21.2759 26.9839 21.4484 27.0299 21.6325 27.076C22.3227 26.5698 23.0245 26.0751 23.7377 25.5919C23.6687 25.4769 23.5997 25.3734 23.5306 25.2813C22.7254 25.8335 21.9201 26.3857 21.1148 26.9379ZM22.8059 25.3158C23.036 25.2928 23.2776 25.2813 23.5306 25.2813C23.5306 25.2583 23.5306 25.2468 23.5306 25.2468C23.3006 25.2698 23.059 25.2813 22.8059 25.2813V25.3158ZM22.8059 25.3158C23.059 25.3158 23.3006 25.3043 23.5306 25.2813C23.8758 25.0513 24.2209 24.8212 24.566 24.5911C24.1519 24.7291 23.7377 24.8557 23.3236 24.9707C23.1625 25.0858 22.99 25.2008 22.8059 25.3158ZM23.3236 24.9707C23.7377 24.8557 24.1519 24.7291 24.566 24.5911H24.6005C24.1634 24.7291 23.7377 24.8557 23.3236 24.9707ZM23.3236 24.9707C23.7607 24.8327 24.1864 24.7061 24.6005 24.5911C22.3227 24.5911 20.0449 24.5911 17.7672 24.5911C17.7672 24.7061 17.7672 24.8327 17.7672 24.9707C19.6308 24.9707 21.4829 24.9707 23.3236 24.9707ZM17.3875 24.5911C17.3875 24.7982 17.5601 24.9707 17.7672 24.9707C17.7672 24.8327 17.7672 24.7061 17.7672 24.5911C17.6291 24.5911 17.5026 24.5911 17.3875 24.5911ZM17.3875 24.5911C17.5026 24.5911 17.6291 24.5911 17.7672 24.5911C17.7672 23.4177 17.7672 22.2328 17.7672 21.0364C17.6291 21.0364 17.5026 21.0364 17.3875 21.0364C17.3875 22.2328 17.3875 23.4177 17.3875 24.5911ZM17.7672 20.6568C17.5601 20.6568 17.3875 20.8293 17.3875 21.0364C17.5026 21.0364 17.6291 21.0364 17.7672 21.0364C17.7672 20.9213 17.7672 20.7948 17.7672 20.6568ZM17.7672 20.6568C17.7672 20.7948 17.7672 20.9213 17.7672 21.0364C22.5758 21.0364 27.3845 21.0364 32.1931 21.0364C32.1931 20.9213 32.1931 20.7948 32.1931 20.6568C27.3845 20.6568 22.5758 20.6568 17.7672 20.6568ZM32.6073 21.0364L32.1931 20.6568C32.1931 20.7948 32.1931 20.9213 32.1931 21.0364C32.2276 21.0364 32.1931 21.0364 32.1931 21.0709C32.3312 21.0709 32.4692 21.0709 32.6073 21.0709V21.0364ZM32.6073 21.0364C32.4692 21.0364 32.3312 21.0364 32.1931 21.0364C32.1931 21.4275 32.1931 21.8187 32.1931 22.2098C32.3312 22.2098 32.4692 22.2098 32.6073 22.2098C32.6073 21.8187 32.6073 21.4275 32.6073 21.0364ZM32.4347 22.5204L32.6073 22.2098C32.4692 22.2098 32.3312 22.2098 32.1931 22.2098C32.1931 22.2328 32.1931 22.2443 32.1931 22.2443C32.2851 22.3363 32.3657 22.4399 32.4347 22.5549V22.5204ZM27.534 26.2477C27.1889 26.3397 26.8553 26.4202 26.5332 26.4893C26.5332 26.4893 26.5447 26.4893 26.5677 26.4893C26.8898 26.4202 27.2119 26.3397 27.534 26.2477ZM27.534 26.2477C27.2119 26.3397 26.8898 26.4202 26.5677 26.4893C26.8668 26.5353 27.1659 26.5813 27.465 26.6273C27.6491 26.5123 27.8216 26.4087 27.9827 26.3167C27.8446 26.2937 27.6951 26.2707 27.534 26.2477ZM27.9827 26.3167C27.8216 26.4087 27.6491 26.5123 27.465 26.6273C27.488 26.6273 27.4995 26.6273 27.4995 26.6273C27.6606 26.5123 27.8216 26.4087 27.9827 26.3167ZM32.5727 29.1812C32.2967 28.5255 31.848 27.9733 31.2958 27.5591C30.7436 27.1105 30.1224 26.8344 29.4667 26.6273C29.1446 26.5353 28.8225 26.4547 28.5003 26.3857C28.2588 26.3512 28.1897 26.3167 28.0172 26.3167C27.8331 26.4087 27.6606 26.5123 27.4995 26.6273C28.7419 26.7999 30.0189 27.076 31.0542 27.8352C31.5374 28.2494 31.9515 28.7325 32.1931 29.3192C32.4692 29.9059 32.5727 30.5616 32.5727 31.1829C32.6878 31.1829 32.8143 31.1829 32.9524 31.1829C32.9524 30.4926 32.8488 29.8024 32.5727 29.1812ZM32.9524 31.1829C32.8143 31.1829 32.6878 31.1829 32.5727 31.1829C32.5727 32.3218 32.1931 33.4952 31.3648 34.3234C31.4799 34.4155 31.5834 34.5075 31.6754 34.5995C32.5382 33.7022 32.9524 32.3908 32.9524 31.1829ZM31.6754 34.5995C31.5834 34.5075 31.4799 34.4155 31.3648 34.3234C31.4569 34.4155 31.5489 34.5075 31.6409 34.5995C31.6409 34.5995 31.6524 34.5995 31.6754 34.5995ZM28.3968 36.3251C29.5702 36.049 30.7436 35.5314 31.6409 34.5995C31.5489 34.5075 31.4569 34.4155 31.3648 34.3234C30.5365 35.1862 29.4322 35.6694 28.2933 35.9455C27.1544 36.2561 25.981 36.3251 24.8076 36.3251C24.8076 36.4632 24.8076 36.5897 24.8076 36.7048C26.0155 36.7048 27.2234 36.6357 28.3968 36.3251ZM24.8076 36.7048C24.8076 36.5897 24.8076 36.4632 24.8076 36.3251C24.8076 36.3251 24.7846 36.3251 24.7386 36.3251C24.7386 36.4632 24.7386 36.5897 24.7386 36.7048C24.7846 36.7048 24.8076 36.7048 24.8076 36.7048ZM20.0795 35.7039C21.0803 35.98 22.6333 36.3251 24.7386 36.3251C24.7386 36.2101 24.7386 36.0835 24.7386 35.9455C22.7024 35.9455 21.1838 35.6004 20.2175 35.3243C19.2167 35.0137 18.768 34.8066 18.768 34.8066C18.722 34.9216 18.676 35.0367 18.63 35.1517C18.63 35.1517 19.0786 35.3933 20.0795 35.7039ZM18.63 35.1517C18.676 35.0367 18.722 34.9216 18.768 34.8066C18.699 34.9216 18.6415 35.0367 18.5955 35.1517C18.5955 35.1517 18.607 35.1517 18.63 35.1517ZM18.5955 35.1517C18.6415 35.0367 18.699 34.9216 18.768 34.8066C18.4689 34.6686 18.1813 34.519 17.9052 34.358C17.8132 34.3119 17.7096 34.2544 17.5946 34.1854C17.5256 34.1394 17.4566 34.0934 17.3875 34.0473C17.2265 34.0934 17.0539 34.1279 16.8699 34.1509C17.4221 34.542 17.9972 34.8756 18.5955 35.1517ZM17.3875 34.0473C17.2265 34.0934 17.0539 34.1279 16.8699 34.1509C17.0539 34.1049 17.2265 34.0704 17.3875 34.0473ZM16.8699 34.1509C17.0539 34.1049 17.238 34.0704 17.422 34.0473C17.9282 33.1961 18.4459 32.3448 18.9751 31.4935C18.9291 31.3094 18.8831 31.1368 18.837 30.9758C18.1928 32.0342 17.5371 33.0925 16.8699 34.1509ZM18.837 30.9413C18.8831 31.1023 18.9291 31.2749 18.9751 31.459C19.0786 31.528 19.1822 31.5625 19.2857 31.6315C19.5158 31.7466 19.7458 31.8501 19.9759 31.9421C20.4361 32.1492 20.9077 32.3218 21.3909 32.4598C22.3572 32.7014 23.3581 32.8394 24.3589 32.8394C24.3589 32.7014 24.3589 32.5748 24.3589 32.4598C22.4263 32.4598 20.4936 31.9421 18.837 30.9413ZM24.3589 32.4598C24.3589 32.5748 24.3589 32.7014 24.3589 32.8394C24.9801 32.8394 25.6359 32.7359 26.1881 32.2872C26.119 32.1952 26.0385 32.0917 25.9465 31.9766C25.4978 32.3563 24.9111 32.4598 24.3589 32.4598ZM25.9465 31.9766C26.0385 32.0917 26.119 32.1952 26.1881 32.2872C26.6367 31.9766 26.9818 31.4244 26.9818 30.8377C26.8438 30.8377 26.7172 30.8377 26.6022 30.8377C26.6022 31.2864 26.3261 31.7005 25.9465 31.9766ZM26.6022 30.8377C26.7172 30.8377 26.8438 30.8377 26.9818 30.8377C26.9818 30.8147 26.9818 30.8032 26.9818 30.8032C26.8438 30.8032 26.7172 30.8032 26.6022 30.8032C26.6022 30.8032 26.6022 30.8147 26.6022 30.8377ZM26.6022 30.8032C26.7172 30.8032 26.8438 30.8032 26.9818 30.8032C26.9818 30.4581 26.9128 30.044 26.7057 29.6643C26.5907 29.7334 26.4757 29.7909 26.3606 29.8369C26.5332 30.1475 26.6022 30.4926 26.6022 30.8032ZM26.3606 29.8369C26.4757 29.7909 26.5907 29.7334 26.7057 29.6643C26.7057 29.6643 26.7057 29.6528 26.7057 29.6298C26.5907 29.6989 26.4757 29.7679 26.3606 29.8369ZM26.3606 29.8369C26.4757 29.7679 26.5907 29.6989 26.7057 29.6298C26.5332 29.3537 26.3261 29.1122 26.05 28.9051C25.981 29.0201 25.912 29.1237 25.8429 29.2157C26.05 29.3882 26.2226 29.5953 26.3606 29.8369ZM25.8429 29.2157C25.912 29.1237 25.981 29.0201 26.05 28.9051C25.981 29.0201 25.9005 29.1237 25.8084 29.2157C25.8084 29.2157 25.8199 29.2157 25.8429 29.2157ZM25.8084 29.2157C25.9005 29.1237 25.981 29.0201 26.05 28.9051C25.0492 28.2148 23.9103 28.1113 22.8404 28.0768C22.8404 28.2148 22.8404 28.3529 22.8404 28.4909C23.8758 28.4909 24.9456 28.629 25.8084 29.2157ZM22.8404 28.4909C22.8404 28.3529 22.8404 28.2148 22.8404 28.0768C22.6563 28.0998 22.4838 28.1113 22.3227 28.1113C22.2537 28.2494 22.1732 28.3759 22.0811 28.4909C22.3342 28.4909 22.5873 28.4909 22.8404 28.4909ZM22.0811 28.4909C22.1732 28.3759 22.2537 28.2494 22.3227 28.1113H22.2882C22.2192 28.2494 22.1502 28.3759 22.0811 28.4909ZM22.0811 28.4909C22.1502 28.3759 22.2192 28.2494 22.2882 28.1113C22.0811 27.7432 21.8741 27.3751 21.667 27.0069C21.5059 26.9609 21.3334 26.9264 21.1493 26.9034C21.4714 27.4326 21.782 27.9618 22.0811 28.4909ZM21.1493 26.9034C21.3334 26.9264 21.5059 26.9609 21.667 27.0069C21.5059 26.9609 21.3334 26.9149 21.1493 26.8689C21.1493 26.8689 21.1493 26.8804 21.1493 26.9034ZM22.1157 25.2813C22.5988 25.2583 22.8404 25.2468 22.8404 25.2468V25.2123C22.8404 25.2123 22.5988 25.2353 22.1157 25.2813ZM23.5652 25.2123C23.6342 25.3043 23.7032 25.4079 23.7722 25.5229C23.7722 25.5229 23.7837 25.5229 23.8067 25.5229C23.7147 25.4079 23.6342 25.2928 23.5652 25.1778C23.5652 25.1778 23.5652 25.1893 23.5652 25.2123ZM23.5652 25.1778C23.6342 25.2928 23.7147 25.4079 23.8067 25.5229C24.1519 25.2928 24.497 25.0628 24.8421 24.8327C24.7501 24.7176 24.6695 24.6026 24.6005 24.4876C24.2554 24.7176 23.9103 24.9477 23.5652 25.1778ZM24.6005 24.4876C24.6695 24.6026 24.7501 24.7176 24.8421 24.8327V24.7982L24.635 24.1079C24.635 24.223 24.635 24.3495 24.635 24.4876H24.6005ZM24.6005 24.4876C24.6005 24.3495 24.6005 24.223 24.6005 24.1079C22.4608 24.1079 20.3095 24.1079 18.1468 24.1079C18.0318 24.223 17.9052 24.3495 17.7672 24.4876C20.0449 24.4876 22.3227 24.4876 24.6005 24.4876ZM17.7672 24.4876C17.9052 24.3495 18.0318 24.2115 18.1468 24.0734C18.1468 23.1761 18.1468 22.2673 18.1468 21.347C18.0318 21.2089 17.9052 21.0709 17.7672 20.9328C17.7672 22.1293 17.7672 23.3142 17.7672 24.4876ZM17.7672 20.9328C17.9052 21.0709 18.0318 21.2089 18.1468 21.347V21.3125C18.0318 21.1974 17.9052 21.0709 17.7672 20.9328ZM17.7672 20.9328C17.9052 21.0709 18.0318 21.1974 18.1468 21.3125C22.7024 21.3125 27.2579 21.3125 31.8135 21.3125C31.9515 21.1974 32.0781 21.0709 32.1931 20.9328C27.3845 20.9328 22.5758 20.9328 17.7672 20.9328ZM32.1931 20.9328C32.0781 21.0709 31.9515 21.1974 31.8135 21.3125V21.347C31.9515 21.2089 32.0896 21.0824 32.2276 20.9674C32.1931 20.9328 32.2276 20.9328 32.1931 20.9328ZM32.2276 20.9674C32.0896 21.0824 31.9515 21.2089 31.8135 21.347C31.8135 21.5541 31.8135 21.7611 31.8135 21.9682C31.9515 22.0142 32.0896 22.0717 32.2276 22.1408C32.2276 21.7496 32.2276 21.3585 32.2276 20.9674ZM32.2276 22.1408C32.0896 22.0717 31.9515 22.0142 31.8135 21.9682C31.9515 22.0372 32.0781 22.0947 32.1931 22.1408C32.1931 22.1408 32.2046 22.1408 32.2276 22.1408ZM28.5003 25.9371C27.8561 26.1211 27.534 26.2132 27.534 26.2132C27.6951 26.2132 27.8446 26.2247 27.9827 26.2477C27.9827 26.2477 28.1552 26.1441 28.5003 25.9371ZM26.5677 26.4547C26.5447 26.5698 26.5217 26.6963 26.4987 26.8344C26.4987 26.8344 26.5102 26.8344 26.5332 26.8344C26.5332 26.7193 26.5447 26.5928 26.5677 26.4547ZM26.5677 26.4547C26.5447 26.5928 26.5332 26.7193 26.5332 26.8344C26.8323 26.8804 27.1314 26.9149 27.4305 26.9379C27.4535 26.8229 27.465 26.6963 27.465 26.5583C27.1659 26.5353 26.8668 26.5008 26.5677 26.4547ZM27.465 26.5583C27.465 26.6963 27.4535 26.8229 27.4305 26.9379C27.4535 26.8229 27.4765 26.6963 27.4995 26.5583C27.4995 26.5583 27.488 26.5583 27.465 26.5583ZM32.1931 29.2847C31.9515 28.698 31.5374 28.1803 31.0542 27.8007C30.0189 27.0414 28.7419 26.7308 27.4995 26.5583C27.4765 26.6963 27.4535 26.8229 27.4305 26.9379C28.6729 27.1105 29.8808 27.4211 30.8126 28.1113C31.7445 28.8015 32.1931 29.9404 32.1586 31.1138C32.2967 31.1138 32.4232 31.1253 32.5382 31.1484C32.5382 30.4926 32.4692 29.8714 32.1931 29.2847ZM32.5382 31.1484C32.4232 31.1253 32.2967 31.1138 32.1586 31.1138C32.1586 31.1368 32.1586 31.1484 32.1586 31.1484C32.2967 31.1484 32.4232 31.1484 32.5382 31.1484ZM32.5382 31.1484C32.4232 31.1484 32.2967 31.1484 32.1586 31.1484C32.1586 32.2182 31.8135 33.2536 31.0887 34.0128C31.1808 34.1049 31.2728 34.1969 31.3648 34.2889C32.1931 33.4606 32.5727 32.2872 32.5382 31.1484ZM28.2933 35.911C29.4322 35.6349 30.5365 35.1172 31.3648 34.2889C31.2728 34.1969 31.1808 34.1049 31.0887 34.0128C30.3295 34.7721 29.2941 35.2553 28.1897 35.5314C27.1199 35.8074 25.9465 35.8765 24.8076 35.911C24.8076 36.026 24.8076 36.1526 24.8076 36.2906C25.981 36.2906 27.1544 36.1871 28.2933 35.911ZM24.8076 36.2906C24.8076 36.1526 24.8076 36.026 24.8076 35.911C24.8076 35.911 24.7846 35.911 24.7386 35.911C24.7386 36.026 24.7386 36.1526 24.7386 36.2906C24.7846 36.2906 24.8076 36.2906 24.8076 36.2906ZM20.183 35.2553C21.1838 35.5659 22.6679 35.8765 24.7386 35.911C24.7386 35.911 24.7386 35.7729 24.7386 35.4968C22.7369 35.4968 21.2529 35.1862 20.321 34.9101C19.3547 34.5995 18.9061 34.3925 18.9061 34.3925C18.814 34.6225 18.768 34.7376 18.768 34.7376C18.768 34.7376 19.2167 34.9792 20.183 35.2553ZM17.5946 34.1509C17.7096 34.1969 17.8132 34.2544 17.9052 34.3234C18.1813 34.4845 18.4689 34.6225 18.768 34.7376C18.768 34.7376 18.814 34.6225 18.9061 34.3925C18.63 34.2774 18.3654 34.1394 18.1123 33.9783C18.0433 33.9553 17.9742 33.9208 17.9052 33.8748C17.5601 33.9438 17.3875 33.9783 17.3875 33.9783C17.4566 34.0473 17.5256 34.1049 17.5946 34.1509ZM17.3875 33.9783C17.3875 33.9783 17.5601 33.9438 17.9052 33.8748C18.3194 33.2306 18.722 32.5863 19.1131 31.9421C19.0211 31.597 18.9751 31.4244 18.9751 31.4244C18.4459 32.2757 17.9167 33.127 17.3875 33.9783ZM21.3909 32.4253C20.9077 32.3102 20.4361 32.1492 19.9759 31.9421C19.7458 31.8501 19.5158 31.7466 19.2857 31.6315C19.1822 31.5625 19.0786 31.4935 18.9751 31.4244C18.9751 31.4244 19.0211 31.597 19.1131 31.9421C19.1131 31.9651 19.1131 31.9766 19.1131 31.9766C19.3432 32.0917 19.5733 32.1952 19.8034 32.2872C20.2865 32.4943 20.7812 32.6669 21.2874 32.8049C22.2882 33.081 23.3236 33.2191 24.3589 33.2191C24.3589 32.966 24.3589 32.8394 24.3589 32.8394C23.3581 32.8394 22.3572 32.7014 21.3909 32.4253ZM24.3589 32.8394C24.3589 32.8394 24.3589 32.966 24.3589 33.2191C25.0147 33.2191 25.7739 33.081 26.4296 32.5978C26.2686 32.3908 26.1881 32.2872 26.1881 32.2872C25.6359 32.7014 24.9456 32.8394 24.3589 32.8394ZM26.1881 32.2872C26.1881 32.2872 26.2686 32.3908 26.4296 32.5978C26.4296 32.5978 26.4296 32.5863 26.4296 32.5633C26.2686 32.3793 26.1881 32.2872 26.1881 32.2872ZM26.1881 32.2872C26.1881 32.2872 26.2686 32.3793 26.4296 32.5633C26.9128 32.2182 27.3615 31.5625 27.3615 30.8032C27.1084 30.8032 26.9818 30.8032 26.9818 30.8032C26.9818 31.4244 26.6022 31.9766 26.1881 32.2872ZM26.9818 30.8032C26.9818 30.8032 27.1084 30.8032 27.3615 30.8032C27.3615 30.3891 27.2924 29.9059 27.0509 29.4573C26.8208 29.5723 26.7057 29.6298 26.7057 29.6298C26.9128 30.0095 26.9473 30.4236 26.9818 30.8032ZM26.7057 29.6298C26.7057 29.6298 26.8208 29.5723 27.0509 29.4573C27.0509 29.4573 27.0393 29.4458 27.0163 29.4228C26.8093 29.5608 26.7057 29.6298 26.7057 29.6298ZM26.7057 29.6298C26.7057 29.6298 26.8093 29.5608 27.0163 29.4228C26.8438 29.1122 26.5677 28.8015 26.2916 28.5945C26.1305 28.8015 26.05 28.9051 26.05 28.9051C26.2916 29.1122 26.5332 29.3537 26.7057 29.6298ZM26.05 28.9051C26.05 28.9051 26.1305 28.8015 26.2916 28.5945C26.2686 28.5945 26.2571 28.5945 26.2571 28.5945C26.119 28.8015 26.05 28.9051 26.05 28.9051ZM26.05 28.9051C26.05 28.9051 26.119 28.8015 26.2571 28.5945C25.1527 27.8007 23.9448 27.6972 22.8404 27.6972C22.8404 27.9503 22.8404 28.0768 22.8404 28.0768C23.9103 28.1113 25.0492 28.2148 26.05 28.9051ZM22.8404 28.0768C22.8404 28.0768 22.8404 27.9503 22.8404 27.6972C22.8404 27.6972 22.8289 27.6972 22.8059 27.6972C22.8059 27.9503 22.8059 28.0768 22.8059 28.0768C22.8289 28.0768 22.8404 28.0768 22.8404 28.0768ZM22.8059 28.0768C22.8059 28.0768 22.8059 27.9503 22.8059 27.6972C22.7139 27.6972 22.6218 27.6972 22.5298 27.6972C22.3687 27.9503 22.2882 28.0768 22.2882 28.0768C22.4723 28.0768 22.6448 28.0768 22.8059 28.0768ZM22.2882 28.0768C22.2882 28.0768 22.3687 27.9503 22.5298 27.6972C22.3918 27.4901 22.2652 27.283 22.1502 27.076C21.8281 27.0069 21.667 26.9724 21.667 26.9724C21.8741 27.3405 22.0811 27.7087 22.2882 28.0768ZM21.6325 26.9724C21.6325 26.9724 21.8051 27.0069 22.1502 27.076C22.7714 26.6618 23.3811 26.2477 23.9793 25.8335C23.8412 25.6265 23.7722 25.5229 23.7722 25.5229C23.059 26.0061 22.3457 26.4893 21.6325 26.9724ZM23.7377 25.4884C23.7377 25.4884 23.8182 25.6034 23.9793 25.8335C23.9793 25.8335 23.9793 25.822 23.9793 25.799C23.8412 25.5919 23.7722 25.4884 23.7722 25.4884C23.7722 25.4884 23.7607 25.4884 23.7377 25.4884ZM23.7722 25.4884C23.7722 25.4884 23.8412 25.5919 23.9793 25.799C24.3244 25.5689 24.6695 25.3504 25.0147 25.1433C24.8766 24.9132 24.8076 24.7982 24.8076 24.7982C24.4625 25.0283 24.1173 25.2583 23.7722 25.4884ZM24.6005 24.0734L24.8076 24.7982C24.8076 24.7982 24.8766 24.9132 25.0147 25.1433V25.1088L24.6005 23.6938C24.6005 23.9469 24.6005 24.0734 24.6005 24.0734ZM24.6005 24.0734C24.6005 24.0734 24.6005 23.9469 24.6005 23.6938C22.5758 23.6938 20.5511 23.6938 18.5264 23.6938C18.2733 23.9469 18.1468 24.0734 18.1468 24.0734C20.3095 24.0734 22.4608 24.0734 24.6005 24.0734ZM18.1468 24.0734C18.1468 24.0734 18.2733 23.9469 18.5264 23.6938C18.5264 23.0266 18.5264 22.3593 18.5264 21.6921C18.2733 21.439 18.1468 21.3125 18.1468 21.3125C18.1468 22.2328 18.1468 23.1531 18.1468 24.0734ZM18.1468 21.3125C18.1468 21.3125 18.2848 21.439 18.5609 21.6921C22.8404 21.6921 27.1314 21.6921 31.4339 21.6921C31.6869 21.439 31.8135 21.3125 31.8135 21.3125C27.2579 21.3125 22.7024 21.3125 18.1468 21.3125ZM31.8135 21.347C31.8135 21.347 31.6869 21.4735 31.4339 21.7266C31.4339 21.7266 31.4339 21.7381 31.4339 21.7611C31.6869 21.8762 31.8135 21.9337 31.8135 21.9337C31.8135 21.7266 31.8135 21.5311 31.8135 21.347ZM31.8135 21.9337C31.8135 21.9337 31.6869 21.8762 31.4339 21.7611C31.6869 21.8992 31.8135 21.9682 31.8135 21.9682V21.9337ZM26.4987 26.7999C26.4987 26.7999 26.4872 26.9264 26.4642 27.1795C26.7633 27.2255 27.0624 27.2715 27.3615 27.3175C27.4075 27.0414 27.4305 26.9034 27.4305 26.9034C27.1314 26.8804 26.8208 26.8459 26.4987 26.7999ZM27.4305 26.9034C27.4305 26.9034 27.4075 27.0414 27.3615 27.3175C27.3845 27.3175 27.396 27.3175 27.396 27.3175C27.419 27.0414 27.4305 26.9034 27.4305 26.9034ZM30.8126 28.0768C29.8808 27.3866 28.6384 27.076 27.4305 26.9034C27.4305 26.9034 27.419 27.0414 27.396 27.3175C28.5694 27.4556 29.7428 27.7662 30.5711 28.3874C31.3993 29.0086 31.779 29.9749 31.779 31.1138C32.0321 31.1138 32.1586 31.1138 32.1586 31.1138C32.1931 29.9059 31.7445 28.767 30.8126 28.0768ZM32.1586 31.1138C32.1586 31.1138 32.0321 31.1138 31.779 31.1138C31.779 32.1147 31.4684 33.0465 30.8126 33.7022C30.9967 33.8863 31.0887 33.9783 31.0887 33.9783C31.8135 33.2191 32.1586 32.1837 32.1586 31.1138ZM28.1897 35.4968C29.2941 35.2207 30.3295 34.7376 31.0887 33.9783C31.0887 33.9783 30.9967 33.8863 30.8126 33.7022C30.1224 34.3925 29.1561 34.8756 28.0862 35.1172C27.0509 35.3933 25.912 35.4623 24.8076 35.4623C24.8076 35.7384 24.8076 35.8765 24.8076 35.8765C25.9465 35.842 27.0854 35.7729 28.1897 35.4968ZM24.8076 35.8765C24.8076 35.8765 24.8076 35.7384 24.8076 35.4623C24.8076 35.4623 24.7961 35.4623 24.7731 35.4623C24.7731 35.7384 24.7731 35.8765 24.7731 35.8765C24.7961 35.8765 24.8076 35.8765 24.8076 35.8765ZM24.7731 35.8765C24.7731 35.8765 24.7731 35.7384 24.7731 35.4623C24.7731 35.4623 24.7616 35.4623 24.7386 35.4623C24.7386 35.7384 24.7386 35.8765 24.7386 35.8765C24.7616 35.8765 24.7731 35.8765 24.7731 35.8765Z" fill="url(#paint14_linear_545_8055)"/>
</g>
<g style="mix-blend-mode:screen">
<path d="M40.9911 24.1079L42.9927 21.4505C43.0618 21.3585 43.0963 21.255 43.0963 21.1399C40.6344 20.3807 38.1726 19.6329 35.7107 18.8967C33.3179 18.1604 31.4083 16.7684 29.9818 14.7207L25.0811 7.74933C24.9891 7.58828 24.8395 7.50775 24.6324 7.50775C24.4484 7.50775 24.2988 7.58828 24.1838 7.74933L19.3176 14.7207C17.8911 16.7684 15.9815 18.1604 13.5887 18.8967L6.20312 21.1399C6.20312 21.255 6.23764 21.3585 6.30666 21.4505C6.97389 22.3248 7.62961 23.2106 8.27384 24.1079C10.8967 27.5591 38.4027 27.5591 40.9911 24.1079Z" fill="url(#paint15_radial_545_8055)"/>
</g>
<path d="M18.6964 29.7334C20.376 30.8378 22.2626 31.39 24.3564 31.39C24.9316 31.39 25.3802 31.2635 25.7023 31.0104C26.0244 30.7573 26.1855 30.4697 26.1855 30.1476C26.1855 29.8255 26.128 29.5609 26.0129 29.3538C25.8979 29.1697 25.7483 29.0087 25.5643 28.8706C24.9661 28.4105 24.0457 28.1804 22.8033 28.1804C22.3202 28.1804 22.0096 28.2034 21.8715 28.2494L20.6636 26.1442C20.6636 26.0292 21.5609 25.385 23.3555 24.2115H17.385V19.8976H32.6047V21.6922L27.5314 25.523C31.1207 25.9601 32.9153 27.6167 32.9153 30.4927C32.9153 31.8732 32.4896 33.0006 31.6384 33.8749C30.2809 35.3014 28.0031 36.0146 24.805 36.0146C22.4582 36.0146 20.3415 35.612 18.4548 34.8067C17.7186 34.4846 17.0168 34.0589 16.3496 33.5297L18.6964 29.7334Z" fill="url(#paint16_radial_545_8055)"/>
<path d="M31.9162 18.8277H18.077L17.3867 19.8975H32.6064L31.9162 18.8277Z" fill="url(#paint17_radial_545_8055)"/>
<path d="M23.3579 24.2115H21.943C21.3447 24.6716 21.0456 24.9362 21.0456 25.0052L20.666 26.1441C20.758 25.9831 21.6554 25.3388 23.3579 24.2115Z" fill="url(#paint18_radial_545_8055)"/>
<path d="M28.6376 24.6946L27.5332 25.5229C29.903 25.822 31.4906 26.6388 32.2958 27.9733L31.5366 26.6963C30.9614 25.73 29.995 25.0628 28.6376 24.6946Z" fill="url(#paint19_radial_545_8055)"/>
<path d="M25.5996 29.8024C25.3005 30.0555 24.8979 30.182 24.3917 30.182C22.4821 30.182 20.768 29.6298 19.2495 28.5255L18.6973 29.7334C20.3768 30.8378 22.2635 31.3899 24.3572 31.3899C24.9324 31.3899 25.3811 31.2634 25.7032 31.0103C26.0253 30.7572 26.1863 30.4696 26.1863 30.1475C26.1863 29.8254 26.1288 29.5608 26.0138 29.3537C26.0138 29.3307 26.0023 29.3077 25.9793 29.2847C25.9102 29.4918 25.7837 29.6643 25.5996 29.8024Z" fill="url(#paint20_radial_545_8055)"/>
<path d="M17.2109 32.1837L18.6949 29.7334L19.2471 28.5255L17.2109 32.1837Z" fill="url(#paint21_radial_545_8055)"/>
<path d="M19.0771 31.2518L17.8691 33.219C18.1913 33.426 18.5364 33.6101 18.9045 33.7711C20.7681 34.5649 22.7698 34.8755 24.806 34.8755C26.7732 34.8755 29.3961 34.5994 30.8456 33.1154C31.5358 32.3907 31.8119 31.4934 31.8119 30.4925C31.8119 27.8006 29.7757 26.9378 27.3944 26.6617L24.6335 26.3166L31.4668 21.1053V21.0363H18.5249V23.0725H27.0838L23.9777 25.1432C23.3795 25.5343 22.7928 25.9255 22.2176 26.3166C22.1946 26.3396 22.1601 26.3741 22.1141 26.4201L22.4937 27.0758C22.6088 27.0758 22.7123 27.0758 22.8043 27.0758C23.9777 27.0758 25.2892 27.2484 26.2555 27.9386C26.5546 28.1687 26.7962 28.4563 26.9803 28.8014C27.2219 29.2156 27.3254 29.6642 27.3254 30.1474C27.3254 30.8722 26.9458 31.4589 26.3936 31.9075C25.8069 32.3562 25.0821 32.5287 24.3574 32.5287C22.4592 32.5287 20.6991 32.1146 19.0771 31.2518Z" fill="url(#paint22_radial_545_8055)"/>
<path d="M18.5234 23.0726H27.0824V22.3479H18.5234V23.0726Z" fill="url(#paint23_radial_545_8055)"/>
<path d="M30.6398 21.0363L24.6348 25.5918V26.3166L31.4681 21.1053V21.0363H30.6398Z" fill="url(#paint24_radial_545_8055)"/>
<path d="M22.4929 27.0759V26.3512L22.3894 26.2131C22.3434 26.2362 22.2858 26.2707 22.2168 26.3167C22.1938 26.3397 22.1593 26.3742 22.1133 26.4202L22.4929 27.0759Z" fill="url(#paint25_radial_545_8055)"/>
<path d="M22.4941 26.3513V27.0761C22.6092 27.0761 22.7127 27.0761 22.8047 27.0761C23.9781 27.0761 25.2896 27.2486 26.2559 27.9389C26.555 28.1689 26.7966 28.4565 26.9807 28.8017C27.2223 29.1813 27.3258 29.6299 27.3258 30.0786V29.4229C27.3258 28.9742 27.2223 28.4911 26.9807 28.0769C26.7966 27.7548 26.555 27.4787 26.2559 27.2486C25.2896 26.5239 23.9781 26.3513 22.8047 26.3513C22.7127 26.3513 22.6092 26.3513 22.4941 26.3513Z" fill="url(#paint26_radial_545_8055)"/>
<path d="M24.806 34.1509C22.7698 34.1509 20.7681 33.8403 18.9045 33.0466C18.6514 32.9315 18.4213 32.8165 18.2143 32.7014L17.8691 33.2191C18.1913 33.4262 18.5364 33.6103 18.9045 33.7713C20.7681 34.5651 22.7698 34.8757 24.806 34.8757C26.7732 34.8757 29.3961 34.5996 30.8456 33.1156C31.5358 32.3908 31.8119 31.4935 31.8119 30.4927C31.8119 30.3546 31.8004 30.2281 31.7774 30.1131C31.7429 30.9759 31.4668 31.7351 30.8456 32.3908C29.3961 33.8748 26.7732 34.1509 24.806 34.1509Z" fill="url(#paint27_radial_545_8055)"/>
<path style="mix-blend-mode:multiply" d="M12.52 15.411C14.142 14.9278 15.3845 14.0305 16.3508 12.6155L18.4215 9.68202C18.6286 8.43959 18.8242 7.20867 19.0082 5.98925L17.1446 8.68117C16.2473 9.95811 15.1084 10.7864 13.6589 11.235L11.5191 11.8908C11.059 13.2943 10.5988 14.7092 10.1387 16.1357L12.52 15.411Z" fill="url(#paint28_linear_545_8055)"/>
<path style="mix-blend-mode:screen" d="M24.6309 3.12476C24.6309 2.11241 24.6309 1.08856 24.6309 0.0532055C23.6991 0.0532055 22.8708 0.50186 22.3186 1.29563L21.2143 2.84866C21.0992 3.95304 20.9842 5.05742 20.8691 6.1618L22.0771 4.43621C22.6983 3.57341 23.5956 3.12476 24.6309 3.12476Z" fill="url(#paint29_linear_545_8055)"/>
<path style="mix-blend-mode:screen" d="M7.48078 13.0986L4.99593 13.8579C4.88089 13.9039 4.76585 13.9499 4.65081 13.9959L2.47656 18.5515C2.61461 18.4595 2.77567 18.3904 2.95973 18.3444L5.68616 17.5161C6.28437 16.0436 6.88257 14.5711 7.48078 13.0986Z" fill="url(#paint30_linear_545_8055)"/>
<path style="mix-blend-mode:multiply" d="M36.7792 15.411C35.1572 14.9278 33.9148 14.0305 32.9484 12.6155L30.8777 9.68202C30.6706 8.43959 30.4751 7.20867 30.291 5.98925L32.1547 8.68117C33.052 9.95811 34.1563 10.7864 35.6404 11.235L37.7801 11.8908C38.2402 13.2943 38.7004 14.7092 39.1606 16.1357L36.7792 15.411Z" fill="url(#paint31_linear_545_8055)"/>
<path style="mix-blend-mode:multiply" d="M46.0288 15.3419L45.9943 15.3074C45.6492 14.6171 45.0625 14.0995 44.3032 13.8579L41.8184 13.0986C42.4166 14.5711 43.0148 16.0436 43.613 17.5161L46.3394 18.3444C47.2022 18.6205 47.8579 19.1727 48.2376 19.932L46.0288 15.3419Z" fill="url(#paint32_linear_545_8055)"/>
<path style="mix-blend-mode:screen" d="M7.72266 16.895C9.5863 16.2737 13.0375 15.3764 14.5215 14.2375C16.9373 12.3739 19.5257 7.4042 21.838 4.57423C22.7698 3.43534 23.2185 3.15924 24.6335 3.12473C23.3565 3.26278 22.8388 3.74595 22.0106 4.74679C19.7673 7.61127 17.1789 12.9261 14.694 14.5827C12.7614 15.8596 9.79337 16.3428 7.72266 16.895Z" fill="url(#paint33_radial_545_8055)"/>
<defs>
<radialGradient id="paint0_radial_545_8055" cx="0" cy="0" r="1" gradientUnits="userSpaceOnUse" gradientTransform="translate(24.7403 71.6442) scale(26.804 26.804)">
<stop offset="0.521" stop-color="#00877C"/>
<stop offset="1" stop-color="#005C59"/>
</radialGradient>
<linearGradient id="paint1_linear_545_8055" x1="16.9034" y1="50.0846" x2="17.2485" y2="50.0846" gradientUnits="userSpaceOnUse">
<stop stop-color="#10544D"/>
<stop offset="1" stop-color="#10544D"/>
</linearGradient>
<linearGradient id="paint2_linear_545_8055" x1="22.8883" y1="48.7531" x2="23.2334" y2="48.7531" gradientUnits="userSpaceOnUse">
<stop stop-color="#10544D"/>
<stop offset="1" stop-color="#10544D"/>
</linearGradient>
<linearGradient id="paint3_linear_545_8055" x1="33.5712" y1="49.0789" x2="33.9163" y2="49.0789" gradientUnits="userSpaceOnUse">
<stop stop-color="#10544D"/>
<stop offset="1" stop-color="#10544D"/>
</linearGradient>
<linearGradient id="paint4_linear_545_8055" x1="28.8458" y1="48.6172" x2="29.1909" y2="48.6172" gradientUnits="userSpaceOnUse">
<stop stop-color="#10544D"/>
<stop offset="1" stop-color="#10544D"/>
</linearGradient>
<linearGradient id="paint5_linear_545_8055" x1="19.802" y1="56.069" x2="20.1471" y2="56.069" gradientUnits="userSpaceOnUse">
<stop stop-color="#098C85"/>
<stop offset="1" stop-color="#098C85"/>
</linearGradient>
<linearGradient id="paint6_linear_545_8055" x1="30.7192" y1="56.0472" x2="31.0643" y2="56.0472" gradientUnits="userSpaceOnUse">
<stop stop-color="#098C85"/>
<stop offset="1" stop-color="#098C85"/>
</linearGradient>
<linearGradient id="paint7_linear_545_8055" x1="25.9343" y1="53.6083" x2="26.2794" y2="53.6083" gradientUnits="userSpaceOnUse">
<stop stop-color="#098C85"/>
<stop offset="1" stop-color="#098C85"/>
</linearGradient>
<linearGradient id="paint8_linear_545_8055" x1="2.73835" y1="48.8912" x2="2.73835" y2="3.11507" gradientUnits="userSpaceOnUse">
<stop stop-color="#9C4D16"/>
<stop offset="0.41" stop-color="#EDAC61"/>
<stop offset="1" stop-color="#C26B2F"/>
</linearGradient>
<radialGradient id="paint9_radial_545_8055" cx="0" cy="0" r="1" gradientUnits="userSpaceOnUse" gradientTransform="translate(25.2099 8.14316) scale(39.1903)">
<stop stop-color="#008A67"/>
<stop offset="1" stop-color="#0B2630"/>
</radialGradient>
<linearGradient id="paint10_linear_545_8055" x1="1.06676" y1="0.0704617" x2="48.2293" y2="0.0704617" gradientUnits="userSpaceOnUse">
<stop stop-color="#EDAC61"/>
<stop offset="0.135" stop-color="#CC9343"/>
<stop offset="0.297" stop-color="#BD7749"/>
<stop offset="0.479" stop-color="#EDAC61"/>
<stop offset="0.563" stop-color="#BA6D33"/>
<stop offset="1" stop-color="#9C4B3D"/>
</linearGradient>
<linearGradient id="paint11_linear_545_8055" x1="4.56461" y1="20.7434" x2="44.7398" y2="20.7434" gradientUnits="userSpaceOnUse">
<stop stop-color="#BB6149"/>
<stop offset="0.182" stop-color="#863425"/>
<stop offset="0.363" stop-color="#C07C48"/>
<stop offset="0.508" stop-color="#D98936"/>
<stop offset="0.703" stop-color="#A6522D"/>
<stop offset="1" stop-color="#C16841"/>
</linearGradient>
<radialGradient id="paint12_radial_545_8055" cx="0" cy="0" r="1" gradientUnits="userSpaceOnUse" gradientTransform="translate(32.7091 47.4458) scale(34.9356 34.9356)">
<stop stop-color="#FFD780"/>
<stop offset="1" stop-color="#000800"/>
</radialGradient>
<linearGradient id="paint13_linear_545_8055" x1="18.3809" y1="48.3936" x2="18.3809" y2="25.9706" gradientUnits="userSpaceOnUse">
<stop stop-color="white"/>
<stop offset="1" stop-color="#D19C7A"/>
</linearGradient>
<linearGradient id="paint14_linear_545_8055" x1="24.7827" y1="37.1037" x2="25.1258" y2="37.1037" gradientUnits="userSpaceOnUse">
<stop stop-color="#577A78"/>
<stop offset="1" stop-color="#577A78"/>
</linearGradient>
<radialGradient id="paint15_radial_545_8055" cx="0" cy="0" r="1" gradientUnits="userSpaceOnUse" gradientTransform="translate(25.02 -16.1691) scale(51.637 51.6369)">
<stop stop-color="#006361"/>
<stop offset="1"/>
</radialGradient>
<radialGradient id="paint16_radial_545_8055" cx="0" cy="0" r="1" gradientUnits="userSpaceOnUse" gradientTransform="translate(22.6963 18.103) scale(21.3338 21.3338)">
<stop stop-color="#FFCF96"/>
<stop offset="1" stop-color="#C26B2F"/>
</radialGradient>
<radialGradient id="paint17_radial_545_8055" cx="0" cy="0" r="1" gradientUnits="userSpaceOnUse" gradientTransform="translate(18.0207 18.1868) scale(32.6057 32.6057)">
<stop stop-color="#E38B24"/>
<stop offset="1" stop-color="#9E4F1B"/>
</radialGradient>
<radialGradient id="paint18_radial_545_8055" cx="0" cy="0" r="1" gradientUnits="userSpaceOnUse" gradientTransform="translate(19.7449 27.5719) scale(5.87633 5.87633)">
<stop stop-color="#D48222"/>
<stop offset="1" stop-color="#803808"/>
</radialGradient>
<radialGradient id="paint19_radial_545_8055" cx="0" cy="0" r="1" gradientUnits="userSpaceOnUse" gradientTransform="translate(31.7726 29.9049) scale(7.26371 7.26371)">
<stop stop-color="#B86B12"/>
<stop offset="1" stop-color="#803808"/>
</radialGradient>
<radialGradient id="paint20_radial_545_8055" cx="0" cy="0" r="1" gradientUnits="userSpaceOnUse" gradientTransform="translate(19.2412 28.7877) scale(9.42656 9.42656)">
<stop stop-color="#E08A24"/>
<stop offset="1" stop-color="#5E2D0D"/>
</radialGradient>
<radialGradient id="paint21_radial_545_8055" cx="0" cy="0" r="1" gradientUnits="userSpaceOnUse" gradientTransform="translate(18.327 29.0217) scale(8.07369 8.0737)">
<stop stop-color="#D48222"/>
<stop offset="1" stop-color="#803808"/>
</radialGradient>
<radialGradient id="paint22_radial_545_8055" cx="0" cy="0" r="1" gradientUnits="userSpaceOnUse" gradientTransform="translate(25.2143 35.6686) scale(17.3122 17.3122)">
<stop stop-color="#009C74"/>
<stop offset="1" stop-color="#03403D"/>
</radialGradient>
<radialGradient id="paint23_radial_545_8055" cx="0" cy="0" r="1" gradientUnits="userSpaceOnUse" gradientTransform="translate(26.8429 23.8671) scale(13.0468 13.0468)">
<stop stop-color="#E38B24"/>
<stop offset="1" stop-color="#9E4F1B"/>
</radialGradient>
<radialGradient id="paint24_radial_545_8055" cx="0" cy="0" r="1" gradientUnits="userSpaceOnUse" gradientTransform="translate(24.7028 25.8559) scale(13.0034 13.0034)">
<stop stop-color="#E38B24"/>
<stop offset="1" stop-color="#9E4F1B"/>
</radialGradient>
<radialGradient id="paint25_radial_545_8055" cx="0" cy="0" r="1" gradientUnits="userSpaceOnUse" gradientTransform="translate(25.3647 27.0756) scale(3.45569 3.45567)">
<stop stop-color="#B86B12"/>
<stop offset="1" stop-color="#803808"/>
</radialGradient>
<radialGradient id="paint26_radial_545_8055" cx="0" cy="0" r="1" gradientUnits="userSpaceOnUse" gradientTransform="translate(26.6224 27.8443) scale(8.41813 8.41813)">
<stop stop-color="#B86B12"/>
<stop offset="1" stop-color="#803808"/>
</radialGradient>
<radialGradient id="paint27_radial_545_8055" cx="0" cy="0" r="1" gradientUnits="userSpaceOnUse" gradientTransform="translate(31.5345 31.5215) scale(16.3724)">
<stop stop-color="#E08A24"/>
<stop offset="1" stop-color="#5E2D0D"/>
</radialGradient>
<linearGradient id="paint28_linear_545_8055" x1="11.0194" y1="3.14409" x2="21.9683" y2="6.49142" gradientUnits="userSpaceOnUse">
<stop stop-color="white"/>
<stop offset="0.563" stop-color="#F2AB46"/>
<stop offset="1" stop-color="white"/>
</linearGradient>
<linearGradient id="paint29_linear_545_8055" x1="20.8733" y1="0.0704615" x2="24.6468" y2="0.0704615" gradientUnits="userSpaceOnUse">
<stop/>
<stop offset="0.555" stop-color="#FFD67D"/>
<stop offset="1"/>
</linearGradient>
<linearGradient id="paint30_linear_545_8055" x1="3.29242" y1="11.1515" x2="9.48967" y2="13.782" gradientUnits="userSpaceOnUse">
<stop/>
<stop offset="0.322" stop-color="#E39337"/>
<stop offset="1"/>
</linearGradient>
<linearGradient id="paint31_linear_545_8055" x1="28.1585" y1="6.16664" x2="38.7091" y2="3.92403" gradientUnits="userSpaceOnUse">
<stop stop-color="white"/>
<stop offset="0.437" stop-color="#F2AB46"/>
<stop offset="1" stop-color="white"/>
</linearGradient>
<linearGradient id="paint32_linear_545_8055" x1="40.1977" y1="13.4054" x2="47.8217" y2="11.5046" gradientUnits="userSpaceOnUse">
<stop offset="0.041" stop-color="white"/>
<stop offset="0.744" stop-color="#F2AB46"/>
</linearGradient>
<radialGradient id="paint33_radial_545_8055" cx="0" cy="0" r="1" gradientUnits="userSpaceOnUse" gradientTransform="translate(21.0266 2.84208) scale(32.6682 32.6682)">
<stop stop-color="#FFD780"/>
<stop offset="1" stop-color="#000800"/>
</radialGradient>
</defs>
</svg>
