<svg width="62" height="61" viewBox="0 0 62 61" fill="none" xmlns="http://www.w3.org/2000/svg">
<path d="M18.7402 37.1468H44.1409V60.0627L31.4406 55.7142L18.7402 60.0627V37.1468Z" fill="url(#paint0_radial_545_8272)"/>
<path fill-rule="evenodd" clip-rule="evenodd" d="M43.1393 38.1479V58.6824L31.4397 54.6445L19.7402 58.6824V38.1479H43.1393ZM21.0517 39.4593V56.8188L31.4397 53.264L41.8278 56.8188V39.4593H21.0517Z" fill="url(#paint1_radial_545_8272)"/>
<mask id="mask0_545_8272" style="mask-type:luminance" maskUnits="userSpaceOnUse" x="18" y="37" width="27" height="24">
<path d="M18.75 37.1572H44.1438V60.0765L31.4469 55.7073L18.75 60.0765V37.1572Z" fill="white"/>
</mask>
<g mask="url(#mask0_545_8272)">
<path style="mix-blend-mode:screen" opacity="0.65" d="M22.2259 50.3994C21.9498 49.8472 21.6737 49.5711 21.3631 49.5366C21.3631 51.5383 21.3631 55.8523 21.3631 60.8565C22.1223 60.8565 22.8816 60.8565 23.6409 60.8565C23.6409 56.1629 23.0541 52.0905 22.2259 50.3994ZM21.3631 49.5366C20.9489 49.5366 20.6728 50.0543 20.5003 50.3994C19.672 52.0905 19.0508 56.1629 19.0508 60.8565C19.833 60.8565 20.6038 60.8565 21.3631 60.8565C21.3631 55.8523 21.3631 51.5383 21.3631 49.5366Z" fill="url(#paint2_linear_545_8272)"/>
<path style="mix-blend-mode:screen" opacity="0.65" d="M29.3364 48.8118C29.1638 48.3287 28.9567 48.0526 28.7497 48.0526C28.7497 49.8127 28.7497 53.678 28.7497 58.0955C29.2788 58.0955 29.808 58.0955 30.3372 58.0955C30.3372 53.9196 29.9231 50.2959 29.3364 48.8118ZM28.7497 48.0526C28.4736 48.0526 28.2665 48.5012 28.163 48.8118C27.5762 50.2959 27.1621 53.9196 27.1621 58.0955C27.6913 58.0955 28.2205 58.0955 28.7497 58.0955C28.7497 53.678 28.7497 49.8127 28.7497 48.0526Z" fill="url(#paint3_linear_545_8272)"/>
<path style="mix-blend-mode:screen" opacity="0.65" d="M42.0704 49.1914C41.7598 48.6047 41.4147 48.2941 41.035 48.2941C41.035 50.4338 41.035 55.1274 41.035 60.5458C41.9784 60.5458 42.9102 60.5458 43.8305 60.5458C43.8305 55.438 43.1058 51.0205 42.0704 49.1914ZM41.035 48.2941C40.5174 48.2596 40.1723 48.8118 39.9652 49.1914C38.9298 51.0205 38.2051 55.438 38.2051 60.5458C39.1484 60.5458 40.0917 60.5458 41.035 60.5458C41.035 55.1274 41.035 50.4338 41.035 48.2941Z" fill="url(#paint4_linear_545_8272)"/>
<path style="mix-blend-mode:screen" opacity="0.65" d="M36.4432 48.6393C36.2361 48.1561 35.9945 47.88 35.753 47.88C35.753 49.6401 35.7875 53.54 35.7875 57.9575C36.3857 57.9575 36.9839 57.9575 37.5821 57.9575C37.5821 53.7816 37.1334 50.1578 36.4432 48.6393ZM35.753 47.88C35.4423 47.88 35.2008 48.3287 35.0627 48.6393C34.407 50.1578 33.9238 53.7816 33.9238 57.9575C34.522 57.9575 35.1317 57.9575 35.753 57.9575C35.753 57.9575 35.7645 57.9575 35.7875 57.9575C35.7875 53.54 35.753 49.6401 35.753 47.88Z" fill="url(#paint5_linear_545_8272)"/>
<path style="mix-blend-mode:multiply" opacity="0.45" d="M25.6763 57.5434C25.4692 58.1646 25.2276 58.5097 24.986 58.5442C24.986 56.1629 25.0205 50.9861 25.0205 45.0846C25.5957 45.0846 26.1824 45.0846 26.7806 45.0846C26.7806 50.6755 26.332 55.5072 25.6763 57.5434ZM24.986 58.5442C24.6754 58.5442 24.4683 57.9575 24.3303 57.5434C23.6746 55.5072 23.1914 50.6755 23.1914 45.0846C23.7896 45.0846 24.3878 45.0846 24.986 45.0846C24.986 45.0846 24.9975 45.0846 25.0205 45.0846C25.0205 50.9861 24.986 56.1629 24.986 58.5442Z" fill="url(#paint6_linear_545_8272)"/>
<path style="mix-blend-mode:multiply" opacity="0.65" d="M38.6872 57.5088C38.5146 58.1645 38.3766 58.5097 38.204 58.5442C38.204 56.1283 38.204 50.8135 38.204 44.7394C38.6412 44.7394 39.0668 44.7394 39.481 44.7394C39.481 50.4684 39.1359 55.4381 38.6872 57.5088ZM38.204 58.5442C37.9625 58.5442 37.7899 57.923 37.7209 57.5088C37.2377 55.4381 36.8926 50.4684 36.8926 44.7394C37.3297 44.7394 37.7669 44.7394 38.204 44.7394C38.204 50.8135 38.204 56.1283 38.204 58.5442Z" fill="url(#paint7_linear_545_8272)"/>
<path style="mix-blend-mode:multiply" opacity="0.65" d="M32.9926 54.6098C32.7856 55.162 32.5785 55.5071 32.3369 55.5071C32.3369 53.3674 32.3369 48.6738 32.3369 43.3244C32.9121 43.3244 33.4873 43.3244 34.0625 43.3244C34.0625 48.3977 33.6139 52.7807 32.9926 54.6098ZM32.3369 55.5071C32.0263 55.5071 31.8192 54.9549 31.6812 54.6098C31.06 52.7807 30.6113 48.3977 30.6113 43.3244C31.1865 43.3244 31.7617 43.3244 32.3369 43.3244C32.3369 48.6738 32.3369 53.3674 32.3369 55.5071Z" fill="url(#paint8_linear_545_8272)"/>
</g>
<path d="M14.7022 39.4592C15.2544 39.8388 16.4968 40.6671 16.7384 41.737C17.256 43.8422 17.9808 45.8784 19.1887 48.2942C17.9118 47.4659 17.0835 46.12 16.2207 45.2572C15.5995 44.636 14.8057 44.1528 14.0465 43.8422C11.251 42.7378 8.17943 41.6334 6.38482 40.2184C4.8663 39.0105 3.31327 36.4221 3.48583 34.7311C6.52287 34.9381 12.4589 37.9061 14.7022 39.4592Z" fill="url(#paint9_radial_545_8272)"/>
<path d="M14.4917 42.0476C10.0052 39.8388 5.82923 38.3893 3.48242 34.7311C6.51946 34.9381 12.4555 37.9061 14.6988 39.4592C15.251 39.8388 16.4934 40.6671 16.735 41.737C17.1146 43.3245 17.6323 44.843 18.357 46.4996C18.15 46.12 17.8048 45.4988 17.5287 44.9466C16.7005 43.29 16.1483 42.8759 14.4917 42.0476Z" fill="url(#paint10_radial_545_8272)"/>
<path style="mix-blend-mode:screen" d="M15.3568 42.4962C11.9402 40.3565 8.45449 39.6317 4.76172 36.3186C7.55718 39.5282 11.5951 40.6671 15.3568 42.4962Z" fill="url(#paint11_radial_545_8272)"/>
<path d="M12.977 39.1831C9.93992 37.6991 5.83301 35.3523 4.00388 33.5922C2.41634 32.0737 0.93233 29.0366 1.31196 27.173C4.69412 27.7942 11.562 32.1772 13.9433 34.1789C14.1504 34.3859 14.4265 34.6275 14.7371 34.9036C15.3928 35.5248 15.7724 36.2841 15.876 37.1469C16.1866 39.1831 16.4972 41.0122 17.0494 42.8413C15.9795 40.9432 14.3229 39.8733 12.977 39.1831Z" fill="url(#paint12_radial_545_8272)"/>
<path d="M11.6621 35.6974C6.24379 32.902 2.96516 30.8313 1.30859 27.173C4.69075 27.7942 11.5586 32.1772 13.9399 34.1789C14.147 34.386 14.4231 34.6276 14.7337 34.9037C15.3894 35.5249 15.769 36.2841 15.8726 37.1469C16.1832 39.1831 16.4938 41.0123 17.046 42.8414C16.0106 40.6326 15.769 39.4247 14.6647 38.0788C14.0089 37.3195 12.8355 36.2841 11.6621 35.6974Z" fill="url(#paint13_radial_545_8272)"/>
<path style="mix-blend-mode:screen" d="M14.0452 37.4229C13.2859 36.4566 12.1815 35.8354 11.0426 35.2142C8.14363 33.6956 4.76147 31.763 2.65625 29.4162C4.45087 32.1081 8.24717 34.0753 10.9391 35.4557C12.078 36.0424 12.9408 36.4911 14.0452 37.4229Z" fill="url(#paint14_radial_545_8272)"/>
<path d="M15.9435 37.768C15.1497 35.8009 13.148 34.5239 11.733 33.5576C8.59246 31.3488 4.83067 28.5189 3.07056 26.2411C1.55204 24.2394 0.447666 21.2369 1.20693 19.2007C4.58909 20.4431 11.3879 25.4818 13.7347 28.1392C14.2869 28.795 14.9426 30.0719 15.1497 30.8312C15.2878 31.4524 15.3913 32.0391 15.4948 32.5913C15.6329 33.5231 15.7019 34.4204 15.7709 35.3177C15.8169 36.169 15.8745 36.9858 15.9435 37.768Z" fill="url(#paint15_radial_545_8272)"/>
<path d="M15.9455 37.768C15.3934 35.1451 14.8757 33.0744 12.7705 30.8312C8.07684 25.8615 3.21067 24.3429 1.20898 19.2007C4.59114 20.4431 11.39 25.4818 13.7368 28.1392C14.289 28.795 14.9447 30.0719 15.1518 30.8312C15.2898 31.4524 15.3933 32.0391 15.4969 32.5913C15.6349 33.5231 15.704 34.4204 15.7385 35.3177C15.8075 36.169 15.8765 36.9858 15.9455 37.768Z" fill="url(#paint16_radial_545_8272)"/>
<path style="mix-blend-mode:screen" d="M15.0784 34.5584C13.6289 29.4852 7.4858 26.6207 3.48242 22.8244C7.76189 27.6561 12.2829 28.7605 15.0784 34.5584Z" fill="url(#paint17_radial_545_8272)"/>
<path d="M48.1799 39.4592C47.6277 39.8388 46.4198 40.6671 46.1437 41.7369C45.626 43.8422 44.9013 45.8784 43.6934 48.2942C44.9703 47.4659 45.7986 46.1199 46.6614 45.2571C47.2826 44.6359 48.0764 44.1528 48.8701 43.8422C51.6311 42.7378 54.7026 41.6334 56.4973 40.2184C58.0158 39.0105 59.6033 36.4221 59.3962 34.731C56.3937 34.9381 50.4232 37.9061 48.1799 39.4592Z" fill="url(#paint18_radial_545_8272)"/>
<path d="M48.3855 42.0476C52.872 39.8388 57.0825 38.3893 59.3948 34.7311C56.3922 34.9381 50.4217 37.9061 48.1784 39.4592C47.6262 39.8388 46.4183 40.6671 46.1422 41.737C45.7626 43.3245 45.2794 44.843 44.5547 46.4996C44.7272 46.12 45.0724 45.4988 45.3485 44.9466C46.1767 43.29 46.7289 42.8758 48.3855 42.0476Z" fill="url(#paint19_radial_545_8272)"/>
<path style="mix-blend-mode:screen" d="M47.5605 42.4962C50.9427 40.3564 54.4284 39.6317 58.1557 36.3186C55.3602 39.5282 51.2878 40.6671 47.5605 42.4962Z" fill="url(#paint20_radial_545_8272)"/>
<path d="M49.9051 39.1831C52.9421 37.6991 57.049 35.3523 58.9127 33.5922C60.4657 32.0737 61.9497 29.0367 61.5701 27.173C58.1879 27.7942 51.3201 32.1772 48.9733 34.1789C48.7317 34.386 48.4556 34.6276 48.1795 34.9037C47.4892 35.5249 47.1096 36.2841 47.0061 37.1469C46.73 39.1831 46.3849 41.0123 45.8672 42.8414C46.9025 40.9432 48.5591 39.8734 49.9051 39.1831Z" fill="url(#paint21_radial_545_8272)"/>
<path d="M51.251 35.6974C56.6349 32.902 59.9135 30.8313 61.5701 27.173C58.1879 27.7942 51.3201 32.1772 48.9733 34.1789C48.7317 34.386 48.4556 34.6276 48.1795 34.9037C47.4892 35.5249 47.1096 36.2841 47.0061 37.1469C46.73 39.1831 46.3849 41.0123 45.8672 42.8414C46.868 40.6326 47.1096 39.4247 48.214 38.0788C48.8697 37.3195 50.0431 36.2841 51.251 35.6974Z" fill="url(#paint22_radial_545_8272)"/>
<path style="mix-blend-mode:screen" d="M48.8359 37.4229C49.5952 36.4566 50.6996 35.8354 51.8385 35.2142C54.7375 33.6956 58.1196 31.763 60.2249 29.4162C58.4648 32.1081 54.6339 34.0753 51.942 35.4557C50.8031 36.0424 49.9748 36.4911 48.8359 37.4229Z" fill="url(#paint23_radial_545_8272)"/>
<path d="M46.9727 37.768C47.7319 35.8009 49.7681 34.5239 51.1486 33.5576C54.2892 31.3488 58.051 28.5189 59.8111 26.2411C61.3296 24.2394 62.434 21.2369 61.6747 19.2007C58.2925 20.4431 51.4937 25.4818 49.1469 28.1392C48.5947 28.795 47.939 30.0719 47.7664 30.8312C47.5939 31.4524 47.4903 32.0391 47.4213 32.5913C47.2487 33.5231 47.1797 34.4204 47.1452 35.3177C47.0762 36.169 47.0187 36.9858 46.9727 37.768Z" fill="url(#paint24_radial_545_8272)"/>
<path d="M46.9727 37.768C47.4903 35.1451 48.008 33.0744 50.1132 30.8312C54.8414 25.8615 59.673 24.3429 61.6747 19.2007C58.2925 20.4431 51.4937 25.4818 49.1469 28.1392C48.5947 28.795 47.939 30.0719 47.7664 30.8312C47.5939 31.4524 47.4903 32.0391 47.4213 32.5913C47.2487 33.5231 47.1797 34.4204 47.1452 35.3177C47.0762 36.169 47.0187 36.9858 46.9727 37.768Z" fill="url(#paint25_radial_545_8272)"/>
<path style="mix-blend-mode:screen" d="M47.8027 34.5584C49.2522 29.4852 55.3953 26.6207 59.3987 22.8244C55.1192 27.6561 50.5982 28.7605 47.8027 34.5584Z" fill="url(#paint26_radial_545_8272)"/>
<path d="M33.9956 4.8438L39.7246 13.0231C40.7254 14.4381 41.9678 15.3354 43.5899 15.8186L53.1152 18.7521C54.1505 19.0627 54.8753 19.7874 55.1859 20.7883C55.531 21.7891 55.3584 22.79 54.7027 23.6182L48.6976 31.5905C47.6968 32.971 47.2136 34.4204 47.2481 36.1115L47.4207 46.12C47.4207 47.1553 46.9721 48.0871 46.1093 48.7083C45.281 49.295 44.2456 49.4676 43.2793 49.1225L33.823 45.8784C32.201 45.3262 30.6825 45.3262 29.0604 45.8784L19.6387 49.1225C18.6378 49.4676 17.637 49.295 16.7742 48.7083C15.9114 48.0871 15.4627 47.1553 15.4627 46.12L15.6353 36.1115C15.6698 34.4204 15.2212 32.971 14.1858 31.5905L8.18075 23.6182C7.52502 22.79 7.38698 21.7891 7.69759 20.7883C8.00819 19.7874 8.76745 19.0627 9.7683 18.7521L19.2936 15.8186C20.9156 15.3354 22.1926 14.4381 23.1589 13.0231L28.8879 4.8438C29.4746 3.981 30.4064 3.53235 31.4417 3.53235C32.5116 3.53235 33.4089 3.981 33.9956 4.8438Z" fill="url(#paint27_linear_545_8272)"/>
<path d="M30.5775 7.8809L25.7113 14.8178C24.3308 16.7965 22.5017 18.1309 20.2239 18.8212L12.1136 21.306C11.7685 21.4095 11.5269 21.6511 11.4234 21.9962C11.2853 22.3069 11.3544 22.652 11.5614 22.9281C13.264 25.1828 14.9666 27.4491 16.6692 29.7269C18.1187 31.625 18.8089 33.7993 18.7744 36.1806C18.7284 39.0106 18.6824 41.8405 18.6364 44.6705C18.6364 45.0156 18.7744 45.3262 19.0505 45.5333C19.3611 45.7404 19.6717 45.7749 20.0168 45.6714L28.0581 42.9104C30.3129 42.1281 32.5676 42.1281 34.8224 42.9104L42.8637 45.6714C43.2088 45.7749 43.5539 45.7404 43.83 45.5333C44.1061 45.3262 44.2441 45.0156 44.2441 44.6705C44.1981 41.8405 44.1521 39.0106 44.1061 36.1806C44.0716 33.7993 44.7618 31.625 46.2113 29.7269L51.3191 22.9281C51.5261 22.652 51.5952 22.3069 51.4916 21.9962C51.3536 21.6511 51.112 21.4095 50.8014 21.306C48.0865 20.4777 45.3715 19.6494 42.6566 18.8212C40.3788 18.1309 38.5497 16.7965 37.1692 14.8178L32.303 7.8809C32.096 7.5703 31.7854 7.43225 31.4403 7.43225C31.0951 7.43225 30.7845 7.5703 30.5775 7.8809Z" fill="url(#paint28_radial_545_8272)"/>
<g style="mix-blend-mode:multiply">
<path d="M25.3596 36.7674V34.4551L31.1921 29.5544C32.0894 28.7952 32.5381 28.0014 32.5381 27.1386C32.5381 26.6554 32.377 26.2528 32.0549 25.9307C31.7328 25.6086 31.3301 25.4475 30.847 25.4475C30.4098 25.4475 29.9957 25.5165 29.6046 25.6546C28.3966 26.0342 27.2232 26.7935 26.1189 27.8978L24.2207 25.1714C24.98 23.998 26.0843 23.1007 27.4993 22.4105C29.0524 21.7202 30.7089 21.3751 32.4345 21.3751C34.1601 21.3751 35.6096 21.7547 36.783 22.5485C38.0254 23.4458 38.6466 24.5847 38.6466 26.1377C38.6466 27.3111 38.0945 28.4845 37.0591 29.5199C36.4839 30.0951 35.8972 30.6013 35.299 31.0384C34.7008 31.4986 34.2291 31.8552 33.884 32.1083L32.9867 32.7985H38.7502V36.7674H25.3596Z" fill="#6993B5"/>
<path fill-rule="evenodd" clip-rule="evenodd" d="M24.805 37.3196C24.9891 37.1356 25.0811 37.0436 25.0811 37.0436C25.0121 36.9745 24.943 36.871 24.943 36.7675C24.943 36.7675 24.8165 36.7675 24.5634 36.7675C24.5634 36.9745 24.6669 37.1816 24.805 37.3196ZM24.5634 36.7675C24.8165 36.7675 24.943 36.7675 24.943 36.7675C24.943 36.0082 24.943 35.2489 24.943 34.4897C24.943 34.4897 24.8165 34.4897 24.5634 34.4897C24.5634 35.2489 24.5634 36.0082 24.5634 36.7675ZM24.8395 33.8685C24.6669 34.0065 24.5634 34.2481 24.5634 34.4552V34.4897C24.8165 34.4897 24.943 34.4897 24.943 34.4897V34.4552C24.943 34.3516 25.0121 34.2481 25.0811 34.1791C25.0811 34.1791 25.0006 34.0755 24.8395 33.8685ZM24.8395 33.8685C25.0236 34.0755 25.1156 34.1791 25.1156 34.1791C27.0713 32.5225 29.0154 30.8774 30.9481 29.2439C30.9481 29.2439 30.8676 29.1518 30.7065 28.9678C28.7509 30.6013 26.7952 32.2349 24.8395 33.8685ZM30.7065 28.9678C30.8676 29.1518 30.9481 29.2439 30.9481 29.2439C30.9711 29.2439 30.9826 29.2439 30.9826 29.2439C30.9826 29.2439 30.8906 29.1518 30.7065 28.9678ZM30.7065 28.9678C30.8906 29.1518 30.9826 29.2439 30.9826 29.2439C31.6383 28.6917 32.1905 27.9324 32.156 27.1387C32.156 27.1387 32.0295 27.1387 31.7764 27.1387C31.7764 27.7944 31.3622 28.4156 30.7065 28.9678ZM31.7764 27.1387C32.0295 27.1387 32.156 27.1387 32.156 27.1387C32.156 26.759 32.0525 26.4484 31.8109 26.1723C31.8109 26.1723 31.7189 26.2644 31.5348 26.4484C31.7074 26.6555 31.7764 26.828 31.7764 27.1387ZM31.5348 26.4484C31.7189 26.2644 31.8109 26.1723 31.8109 26.1723C31.8109 26.1723 31.7994 26.1723 31.7764 26.1723C31.7764 26.1723 31.6959 26.2644 31.5348 26.4484ZM31.5003 26.4484C31.6844 26.2644 31.7764 26.1723 31.7764 26.1723C31.5348 25.9307 31.2242 25.7927 30.8446 25.7927C30.8446 25.7927 30.8446 25.9307 30.8446 26.2068C31.1207 26.2068 31.3277 26.2759 31.5003 26.4484ZM30.8446 26.2068C30.8446 25.9307 30.8446 25.7927 30.8446 25.7927C30.4534 25.7927 30.0738 25.8617 29.7057 25.9998C29.7057 25.9998 29.7517 26.1148 29.8437 26.3449C30.1658 26.2528 30.4994 26.2068 30.8446 26.2068ZM29.8437 26.3449C29.7517 26.1148 29.7057 25.9998 29.7057 25.9998C29.7057 25.9998 29.7402 26.1148 29.8092 26.3449C29.8322 26.3449 29.8437 26.3449 29.8437 26.3449ZM29.8092 26.3449C29.7402 26.1148 29.7057 25.9998 29.7057 25.9998C28.4633 26.4139 27.3589 27.2077 26.3925 28.1395C26.3925 28.1395 26.4846 28.2315 26.6686 28.4156C27.6005 27.5183 28.6358 26.759 29.8092 26.3449ZM25.4607 28.3121L26.6686 28.4501V28.4156C26.4846 28.2315 26.3925 28.1395 26.3925 28.1395V28.174L25.8058 28.105C25.8058 28.105 25.6908 28.174 25.4607 28.3121ZM25.4607 28.3121C25.6908 28.174 25.8058 28.105 25.8058 28.105C25.1616 27.1847 24.5174 26.2759 23.8732 25.3785C23.8732 25.3785 23.7696 25.4476 23.5626 25.5856C24.2068 26.5059 24.8395 27.4147 25.4607 28.3121ZM23.5626 24.7228C23.39 24.9644 23.3555 25.3095 23.5626 25.5856C23.7696 25.4476 23.8732 25.3785 23.8732 25.3785V25.344C23.7696 25.2405 23.8042 25.0679 23.8732 24.9299C23.8732 24.9299 23.7696 24.8609 23.5626 24.7228ZM23.5626 24.7228C23.7696 24.8609 23.8732 24.9299 23.8732 24.9299C24.7015 23.653 25.9784 22.6866 27.3244 22.0654C27.3244 22.0654 27.2668 21.9389 27.1518 21.6858C25.7368 22.3415 24.4254 23.3423 23.5626 24.7228ZM27.1518 21.6858C27.2668 21.9389 27.3244 22.0654 27.3244 22.0654C27.3244 22.0654 27.3244 22.0539 27.3244 22.0309C27.3244 22.0309 27.2784 21.9159 27.1863 21.6858C27.1633 21.6858 27.1518 21.6858 27.1518 21.6858ZM27.1863 21.6858C27.2784 21.9159 27.3244 22.0309 27.3244 22.0309C28.9119 21.3062 30.672 20.9265 32.3976 20.9265C32.3976 20.9265 32.3976 20.8 32.3976 20.5469C30.6375 20.5469 28.8084 20.9265 27.1863 21.6858ZM32.3976 20.5469C32.3976 20.8 32.3976 20.9265 32.3976 20.9265C32.4206 20.9265 32.4321 20.9265 32.4321 20.9265C32.4321 20.9265 32.4321 20.8 32.4321 20.5469C32.4321 20.5469 32.4206 20.5469 32.3976 20.5469ZM32.4321 20.5469C32.4321 20.8 32.4321 20.9265 32.4321 20.9265C33.9851 20.9265 35.6417 21.2716 36.9532 22.2035C36.9532 22.2035 37.0337 22.0999 37.1948 21.8929C35.7453 20.892 34.0542 20.5469 32.4321 20.5469ZM37.1948 21.8929C37.0337 22.0999 36.9532 22.2035 36.9532 22.2035C36.9762 22.2035 36.9877 22.2035 36.9877 22.2035C36.9877 22.2035 37.0567 22.0999 37.1948 21.8929ZM38.8513 23.6875C38.4717 22.9627 37.8505 22.3415 37.1948 21.8929C37.0567 22.0999 36.9877 22.2035 36.9877 22.2035C37.6089 22.6521 38.1611 23.2043 38.5062 23.8945C38.8513 24.5503 39.0239 25.344 39.0239 26.0688C39.0239 26.0688 39.1504 26.0688 39.4035 26.0688C39.4035 25.3095 39.2309 24.4467 38.8513 23.6875ZM39.4035 26.0688C39.1504 26.0688 39.0239 26.0688 39.0239 26.0688C39.0239 26.0918 39.0239 26.1033 39.0239 26.1033C39.0239 26.1033 39.1504 26.1033 39.4035 26.1033C39.4035 26.1033 39.4035 26.0918 39.4035 26.0688ZM39.4035 26.1033C39.1504 26.1033 39.0239 26.1033 39.0239 26.1033C39.0239 27.5183 38.2646 28.8297 37.3328 29.7616C37.3328 29.7616 37.4248 29.8536 37.6089 30.0376C38.6097 29.0713 39.4035 27.6563 39.4035 26.1033ZM37.6089 30.0376C37.4248 29.8536 37.3328 29.7616 37.3328 29.7616C36.7806 30.3137 36.1939 30.8659 35.5382 31.3146C35.5382 31.3146 35.6187 31.4181 35.7798 31.6252C36.4355 31.142 37.0567 30.6243 37.6089 30.0376ZM35.7798 31.6252C35.6187 31.4181 35.5382 31.3146 35.5382 31.3146C35.5382 31.3146 35.6187 31.4296 35.7798 31.6597C35.7798 31.6367 35.7798 31.6252 35.7798 31.6252ZM35.7798 31.6597C35.6187 31.4296 35.5382 31.3146 35.5382 31.3146C35.2161 31.5677 34.894 31.8093 34.5719 32.0393C34.5719 32.0393 34.8134 32.0278 35.2966 32.0048C35.3311 31.9703 35.0895 32.1429 35.7798 31.6597ZM35.2966 32.0048C34.5143 32.2579 34.1232 32.3845 34.1232 32.3845C35.6647 32.3845 37.1948 32.3845 38.7133 32.3845C38.7133 32.3845 38.7133 32.2579 38.7133 32.0048C37.5629 32.0048 36.424 32.0048 35.2966 32.0048ZM35.8488 33.1782C35.3656 33.1782 34.8825 33.1782 34.3993 33.1782C34.1692 33.1782 33.9276 33.1782 33.6745 33.1782C33.5595 33.1782 33.4445 33.1782 33.3294 33.1782C33.2604 33.1782 33.2029 33.1782 33.1569 33.1782C33.1339 33.1782 33.0993 33.1782 33.0533 33.1782C33.0533 33.1782 33.0418 33.1782 33.0188 33.1782C33.0188 33.1782 33.0073 33.1782 32.9843 33.1782C33.1914 33.7994 32.6737 32.3154 32.7427 32.4535C32.7427 32.4535 32.6622 32.3499 32.5011 32.1429C32.3976 31.8668 33.3984 34.8003 32.9843 33.5579C33.0073 33.5579 33.0188 33.5579 33.0188 33.5579C33.0418 33.5579 33.0533 33.5579 33.0533 33.5579C33.0993 33.5579 33.1339 33.5579 33.1569 33.5579C33.2029 33.5579 33.2604 33.5579 33.3294 33.5579C33.4445 33.5579 33.5595 33.5579 33.6745 33.5579C33.9276 33.5579 34.1692 33.5579 34.3993 33.5579C34.8825 33.5579 35.3656 33.5579 35.8488 33.5579C36.539 33.5579 37.2408 33.5579 37.954 33.5579C38.2071 33.3048 38.3336 33.1782 38.3336 33.1782C37.5054 33.1782 36.6771 33.1782 35.8488 33.1782ZM35.5382 31.3146C35.4692 31.2226 35.3886 31.119 35.2966 31.004C34.8364 31.3721 34.3648 31.7287 33.8816 32.0738C34.1117 32.0738 34.3418 32.0623 34.5719 32.0393C34.894 31.8093 35.2161 31.5677 35.5382 31.3146ZM39.507 32.7641L38.7133 32.0048C38.7133 32.2579 38.7133 32.3845 38.7133 32.3845L39.1274 32.7641C39.1274 32.7641 39.254 32.7641 39.507 32.7641ZM39.507 32.7641C39.254 32.7641 39.1274 32.7641 39.1274 32.7641C39.1274 34.0985 39.1274 35.4215 39.1274 36.7329C39.1274 36.7329 39.254 36.7329 39.507 36.7329C39.507 35.4215 39.507 34.0985 39.507 32.7641ZM38.7133 37.5267L39.507 36.7329C39.254 36.7329 39.1274 36.7329 39.1274 36.7329L38.7133 37.1126C38.7133 37.1126 38.7133 37.2506 38.7133 37.5267ZM38.7133 37.5267C38.7133 37.2506 38.7133 37.1126 38.7133 37.1126C34.2497 37.1126 29.7862 37.1126 25.3227 37.1126C25.3227 37.1126 25.3227 37.2506 25.3227 37.5267C29.7862 37.5267 34.2497 37.5267 38.7133 37.5267ZM25.3227 37.5267C25.3227 37.2506 25.3227 37.1126 25.3227 37.1126C25.2191 37.1126 25.1156 37.0781 25.0466 37.009C25.0466 37.009 24.9546 37.1011 24.7705 37.2851C24.9085 37.4232 25.1156 37.5267 25.3227 37.5267ZM25.0466 37.009C25.1386 36.917 25.2306 36.825 25.3227 36.7329C25.2076 36.7329 25.0811 36.7329 24.943 36.7329C24.943 36.8365 24.9776 36.94 25.0466 37.009ZM24.943 36.7329C25.0811 36.7329 25.2076 36.7329 25.3227 36.7329C25.3227 35.9737 25.3227 35.2144 25.3227 34.4552C25.2076 34.4552 25.0811 34.4552 24.943 34.4552C24.943 35.2144 24.943 35.9737 24.943 36.7329ZM25.0811 34.1446C25.0121 34.2136 24.943 34.3171 24.943 34.4552C25.0811 34.4552 25.2076 34.4552 25.3227 34.4552V34.4207C25.2536 34.3286 25.1731 34.2366 25.0811 34.1446ZM25.0811 34.1446C25.1731 34.2366 25.2652 34.3286 25.3572 34.4207C27.2898 32.7871 29.234 31.1535 31.1897 29.52C31.1207 29.4279 31.0401 29.3359 30.9481 29.2439C28.9924 30.8774 27.0368 32.511 25.0811 34.1446ZM30.9481 29.2439C31.0401 29.3359 31.1207 29.4279 31.1897 29.52C31.1897 29.52 31.2012 29.52 31.2242 29.52C31.1322 29.4279 31.0401 29.3244 30.9481 29.2094C30.9481 29.2094 30.9481 29.2209 30.9481 29.2439ZM30.9481 29.2094C31.0401 29.3244 31.1322 29.4279 31.2242 29.52C31.9144 28.9333 32.5357 28.105 32.5357 27.1387C32.4206 27.1387 32.2941 27.1387 32.156 27.1387C32.156 27.9324 31.6383 28.6572 30.9481 29.2094ZM32.156 27.1387C32.2941 27.1387 32.4206 27.1387 32.5357 27.1387C32.5357 27.1156 32.5357 27.1041 32.5357 27.1041C32.4206 27.1041 32.2941 27.1041 32.156 27.1041C32.156 27.1041 32.156 27.1156 32.156 27.1387ZM32.156 27.1041C32.2941 27.1041 32.4206 27.1041 32.5357 27.1041C32.5702 26.6555 32.3976 26.2068 32.0525 25.8962C31.9604 25.9883 31.8684 26.0803 31.7764 26.1723C32.0525 26.4139 32.156 26.7245 32.156 27.1041ZM31.7764 26.1723C31.8684 26.0803 31.9604 25.9883 32.0525 25.8962C31.7419 25.5856 31.2932 25.4131 30.8446 25.4131C30.8446 25.5281 30.8446 25.6546 30.8446 25.7927C31.2242 25.7927 31.5348 25.9307 31.7764 26.1723ZM30.8446 25.7927C30.8446 25.6546 30.8446 25.5281 30.8446 25.4131C30.4074 25.4131 29.9933 25.4821 29.6021 25.6201C29.6482 25.7352 29.6827 25.8502 29.7057 25.9653C30.0738 25.8502 30.4534 25.7927 30.8446 25.7927ZM29.7057 25.9653C29.6827 25.8502 29.6482 25.7352 29.6021 25.6201C29.6021 25.6201 29.5906 25.6201 29.5676 25.6201C29.6137 25.7352 29.6597 25.8502 29.7057 25.9653ZM29.7057 25.9653C29.6597 25.8502 29.6137 25.7352 29.5676 25.6201C28.2562 26.0343 27.1173 26.8971 26.1165 27.8634C26.2085 27.9554 26.3005 28.0475 26.3925 28.1395C27.3589 27.2077 28.4633 26.3794 29.7057 25.9653ZM25.8058 28.105L26.3925 28.1395C26.3005 28.0475 26.2085 27.9554 26.1165 27.8634C26.0014 27.9324 25.8979 28.013 25.8058 28.105ZM25.8058 28.105C25.8979 28.013 26.0014 27.9324 26.1165 27.8634C25.4722 26.9661 24.8395 26.0573 24.2183 25.137C24.1033 25.206 23.9997 25.2865 23.9077 25.3785C24.5289 26.2759 25.1616 27.1847 25.8058 28.105ZM23.8732 24.9299C23.8042 25.0334 23.8042 25.206 23.8732 25.344L23.9077 25.3785C23.9997 25.2865 24.1033 25.206 24.2183 25.137C24.1033 25.0679 23.9882 24.9989 23.8732 24.9299ZM23.8732 24.8954C23.9882 24.9874 24.1033 25.0679 24.2183 25.137C25.0121 23.9291 26.1855 22.9972 27.4969 22.4105C27.4279 22.2725 27.3704 22.1459 27.3244 22.0309C25.9784 22.6521 24.736 23.6184 23.8732 24.8954ZM27.3244 22.0309C27.3704 22.1459 27.4279 22.2725 27.4969 22.4105C27.4969 22.3875 27.4969 22.376 27.4969 22.376C27.4509 22.261 27.4049 22.1459 27.3589 22.0309C27.3359 22.0309 27.3244 22.0309 27.3244 22.0309ZM27.3589 22.0309C27.4049 22.1459 27.4509 22.261 27.4969 22.376C29.05 21.6858 30.741 21.3062 32.4321 21.3062C32.4321 21.1911 32.4321 21.0646 32.4321 20.9265C30.672 20.9265 28.9119 21.3062 27.3589 22.0309ZM32.4321 20.9265C32.4321 21.0646 32.4321 21.1911 32.4321 21.3062C33.9506 21.3062 35.5037 21.6513 36.7461 22.5141C36.8151 22.399 36.8956 22.2955 36.9877 22.2035C35.6417 21.2716 33.9851 20.9265 32.4321 20.9265ZM36.9877 22.2035C36.8956 22.2955 36.8151 22.399 36.7461 22.5141C36.7461 22.5141 36.7576 22.5141 36.7806 22.5141C36.8496 22.422 36.9187 22.3185 36.9877 22.2035ZM38.5062 23.86C38.1611 23.1698 37.6089 22.6176 36.9877 22.2035C36.9187 22.3185 36.8496 22.422 36.7806 22.5141C37.3328 22.9282 37.8505 23.4459 38.1611 24.0671C38.5062 24.6883 38.6442 25.3785 38.6442 26.0688C38.7593 26.0688 38.8858 26.0688 39.0239 26.0688C39.0239 25.344 38.8858 24.5503 38.5062 23.86ZM39.0239 26.0688C38.8858 26.0688 38.7593 26.0688 38.6442 26.0688C38.6442 26.0688 38.6442 26.0803 38.6442 26.1033C38.7593 26.1033 38.8858 26.1033 39.0239 26.1033C39.0239 26.0803 39.0239 26.0688 39.0239 26.0688ZM39.0239 26.1033C38.8858 26.1033 38.7593 26.1033 38.6442 26.1033C38.6442 27.3802 37.954 28.5881 37.0567 29.4855C37.1487 29.5545 37.2408 29.635 37.3328 29.727C38.2991 28.7952 39.0239 27.5183 39.0239 26.1033ZM37.3328 29.727C37.2408 29.635 37.1487 29.5545 37.0567 29.4855C37.1487 29.5775 37.2408 29.6695 37.3328 29.7616C37.3328 29.7616 37.3328 29.75 37.3328 29.727ZM37.3328 29.7616C37.2408 29.6695 37.1487 29.5775 37.0567 29.4855C36.5275 30.0376 35.9523 30.5438 35.3311 31.004C35.4001 31.096 35.4692 31.1995 35.5382 31.3146C36.1939 30.8314 36.7806 30.3137 37.3328 29.7616ZM35.5382 31.3146C35.4692 31.1995 35.4001 31.096 35.3311 31.004C35.3311 31.004 35.3196 31.004 35.2966 31.004C35.3886 31.119 35.4692 31.2226 35.5382 31.3146ZM35.2966 31.004C35.2276 30.9119 35.1586 30.8084 35.0895 30.6934C34.6064 31.0615 34.1232 31.4181 33.64 31.7632C33.7321 31.8553 33.8126 31.9588 33.8816 32.0738C34.3648 31.7287 34.8364 31.3721 35.2966 31.004ZM34.6064 32.0393C34.3533 32.0393 34.1117 32.0508 33.8816 32.0738C34.1117 32.0738 34.3418 32.0623 34.5719 32.0393H34.6064ZM34.6064 32.0393C34.3763 32.0623 34.1462 32.0738 33.9161 32.0738C33.617 32.3039 33.3179 32.534 33.0188 32.7641C33.41 32.626 33.7896 32.4995 34.1577 32.3845C34.3188 32.2694 34.4683 32.1544 34.6064 32.0393ZM33.0188 32.7641C32.9268 32.672 32.8463 32.5685 32.7772 32.4535C32.7082 32.3154 33.2259 33.7649 33.0188 33.1437C33.0418 33.1437 33.0533 33.1437 33.0533 33.1437C33.0763 33.1437 33.0878 33.1437 33.0878 33.1437C33.1339 33.1437 33.1684 33.1437 33.1914 33.1437C33.2374 33.1437 33.2949 33.1437 33.3639 33.1437C33.479 33.1437 33.594 33.1437 33.7091 33.1437C33.9621 33.1437 34.2037 33.1437 34.4338 33.1437C34.917 33.1437 35.4001 33.1437 35.8833 33.1437C36.7116 33.1437 37.5399 33.1437 38.3682 33.1437C38.4832 33.0287 38.6097 32.9021 38.7478 32.7641C36.8381 32.7641 34.9285 32.7641 33.0188 32.7641ZM34.1577 32.3845C33.7896 32.4995 33.41 32.626 33.0188 32.7641C34.9285 32.7641 36.8381 32.7641 38.7478 32.7641C38.7478 32.649 38.7478 32.5225 38.7478 32.3845C37.2293 32.3845 35.6992 32.3845 34.1577 32.3845ZM39.1619 32.7641L38.7478 32.3845C38.7478 32.5225 38.7478 32.649 38.7478 32.7641C38.8858 32.7641 39.0239 32.7641 39.1619 32.7641ZM39.1619 32.7641C39.0239 32.7641 38.8858 32.7641 38.7478 32.7641C38.7478 34.0755 38.7478 35.3985 38.7478 36.7329C38.8858 36.7329 39.0239 36.7329 39.1619 36.7329C39.1619 35.3985 39.1619 34.0755 39.1619 32.7641ZM38.7478 37.1126L39.1619 36.7329C39.0239 36.7329 38.8858 36.7329 38.7478 36.7329C38.7478 36.871 38.7478 36.9975 38.7478 37.1126ZM38.7478 37.1126C38.7478 36.9975 38.7478 36.871 38.7478 36.7329C34.2843 36.7329 29.8207 36.7329 25.3572 36.7329C25.3572 36.871 25.3572 36.9975 25.3572 37.1126C29.8207 37.1126 34.2843 37.1126 38.7478 37.1126ZM25.3572 37.1126C25.3572 36.9975 25.3572 36.871 25.3572 36.7329C25.2652 36.825 25.1731 36.917 25.0811 37.009C25.1501 37.0781 25.2536 37.1126 25.3572 37.1126ZM25.3572 36.7329C25.4952 36.5949 25.6218 36.4684 25.7368 36.3533C25.7368 35.7781 25.7368 35.2029 25.7368 34.6277C25.6218 34.5587 25.4952 34.5012 25.3572 34.4552C25.3572 35.2144 25.3572 35.9737 25.3572 36.7329ZM38.7478 36.7329C38.6327 36.5949 38.5062 36.4684 38.3682 36.3533C34.1577 36.3533 29.9473 36.3533 25.7368 36.3533C25.6218 36.4684 25.4952 36.5949 25.3572 36.7329C29.8207 36.7329 34.2843 36.7329 38.7478 36.7329ZM25.3572 34.4207V34.4552C25.4952 34.5012 25.6218 34.5587 25.7368 34.6277H25.7713C25.6333 34.5587 25.4952 34.4897 25.3572 34.4207ZM25.3917 34.4207C25.5067 34.4897 25.6333 34.5472 25.7713 34.5932C27.681 33.0057 29.5906 31.4181 31.5003 29.8306C31.4083 29.7155 31.3162 29.612 31.2242 29.52C29.2685 31.1535 27.3244 32.7871 25.3917 34.4207ZM31.2242 29.52C31.3162 29.612 31.4083 29.7155 31.5003 29.8306C31.5003 29.8306 31.5003 29.8191 31.5003 29.7961C31.4083 29.704 31.3277 29.612 31.2587 29.52C31.2357 29.52 31.2242 29.52 31.2242 29.52ZM31.2587 29.52C31.3277 29.612 31.4083 29.704 31.5003 29.7961C32.2596 29.1749 32.9843 28.243 32.9843 27.1041C32.8463 27.1041 32.7082 27.1041 32.5702 27.1041C32.5702 28.0705 31.9489 28.9333 31.2587 29.52ZM32.5702 27.1041C32.7082 27.1041 32.8463 27.1041 32.9843 27.1041C32.9843 26.5865 32.7772 25.9998 32.3631 25.6201C32.2711 25.7122 32.179 25.8042 32.087 25.8962C32.4321 26.2068 32.6047 26.6555 32.5702 27.1041ZM32.087 25.8962C32.179 25.8042 32.2711 25.7122 32.3631 25.6201C32.3631 25.6201 32.3631 25.6086 32.3631 25.5856C32.2711 25.6776 32.179 25.7697 32.087 25.8617C32.087 25.8847 32.087 25.8962 32.087 25.8962ZM32.087 25.8617C32.179 25.7697 32.2711 25.6776 32.3631 25.5856C31.9835 25.206 31.3968 24.9989 30.8791 24.9989C30.8791 25.137 30.8791 25.275 30.8791 25.4131C31.3277 25.4131 31.7764 25.5511 32.087 25.8617ZM30.8791 25.4131C30.8791 25.275 30.8791 25.137 30.8791 24.9989C30.3959 24.9989 29.9473 25.1025 29.4986 25.2405C29.5446 25.3555 29.5906 25.4706 29.6367 25.5856C30.0278 25.4706 30.4419 25.4131 30.8791 25.4131ZM29.6367 25.5856C29.5906 25.4706 29.5446 25.3555 29.4986 25.2405C29.5446 25.3555 29.5791 25.4821 29.6021 25.6201C29.6252 25.6201 29.6367 25.6086 29.6367 25.5856ZM29.6021 25.6201C29.5791 25.4821 29.5446 25.3555 29.4986 25.2405C28.8084 25.4821 28.1527 25.7927 27.5314 26.2068C27.2323 26.4139 26.9447 26.6325 26.6686 26.8626C26.5766 26.9316 26.4846 27.0121 26.3925 27.1041C26.3465 27.1502 26.289 27.2077 26.22 27.2767C26.197 27.4608 26.174 27.6563 26.151 27.8634C27.1518 26.8971 28.2907 26.0343 29.6021 25.6201ZM26.151 27.8634C26.174 27.6563 26.197 27.4608 26.22 27.2767C25.7138 26.5635 25.2191 25.8502 24.736 25.137C24.5749 25.137 24.4139 25.137 24.2528 25.137C24.874 26.0343 25.5067 26.9431 26.151 27.8634ZM24.2528 25.1025C24.4139 25.1255 24.5749 25.137 24.736 25.137C24.782 25.0449 24.828 24.9644 24.874 24.8954C24.9776 24.7918 25.0811 24.6538 25.1846 24.5158C25.4147 24.2627 25.6678 24.0326 25.9439 23.8255C26.4616 23.3769 27.0483 23.0317 27.704 22.7556C27.635 22.6176 27.5775 22.4911 27.5314 22.376C26.22 22.9972 25.0466 23.8945 24.2528 25.1025ZM27.5314 22.376C27.5775 22.4911 27.635 22.6176 27.704 22.7556C27.704 22.7326 27.704 22.7211 27.704 22.7211C27.658 22.6061 27.6005 22.4911 27.5314 22.376ZM27.5314 22.376C27.6005 22.4911 27.658 22.6061 27.704 22.7211C29.188 22.0309 30.8101 21.6858 32.4666 21.7203C32.4666 21.5822 32.4666 21.4442 32.4666 21.3062C30.7755 21.3062 29.0845 21.6858 27.5314 22.376ZM32.4666 21.3062C32.4666 21.4442 32.4666 21.5822 32.4666 21.7203C33.9161 21.6858 35.4001 22.0309 36.5735 22.8247C36.6426 22.7326 36.7116 22.6291 36.7806 22.5141C35.5382 21.6513 33.9851 21.3062 32.4666 21.3062ZM36.7806 22.5141C36.7116 22.6291 36.6426 22.7326 36.5735 22.8247C36.6426 22.7326 36.7231 22.6291 36.8151 22.5141C36.7921 22.5141 36.7806 22.5141 36.7806 22.5141ZM38.1956 24.0326C37.885 23.4114 37.3673 22.9282 36.8151 22.5141C36.7231 22.6291 36.6426 22.7326 36.5735 22.8247C37.1257 23.2043 37.5744 23.6875 37.8505 24.2397C38.1611 24.7918 38.2646 25.4131 38.2646 26.0688C38.4027 26.0688 38.5407 26.0688 38.6788 26.0688C38.6788 25.3785 38.5407 24.6538 38.1956 24.0326ZM38.6788 26.0688C38.5407 26.0688 38.4027 26.0688 38.2646 26.0688C38.2991 27.2422 37.6779 28.3466 36.8151 29.1748C36.9072 29.2669 36.9992 29.3589 37.0912 29.4509C37.9885 28.5881 38.6788 27.3802 38.6788 26.0688ZM37.0912 29.4509C36.9992 29.3589 36.9072 29.2669 36.8151 29.1748C36.8151 29.1979 36.8151 29.2094 36.8151 29.2094C36.9072 29.3014 36.9992 29.3934 37.0912 29.4855C37.0912 29.4855 37.0912 29.474 37.0912 29.4509ZM37.0912 29.4855C36.9992 29.3934 36.9072 29.3014 36.8151 29.2094C36.2859 29.7385 35.7222 30.2332 35.124 30.6934C35.1931 30.7854 35.2736 30.8889 35.3656 31.004C35.9868 30.5438 36.562 30.0376 37.0912 29.4855ZM35.3656 31.004C35.2736 30.8889 35.1931 30.7854 35.124 30.6934C35.1931 30.7854 35.2621 30.8889 35.3311 31.004C35.3541 31.004 35.3656 31.004 35.3656 31.004ZM35.3311 31.9703C34.8479 32.0163 34.6064 32.0393 34.6064 32.0393C34.4683 32.1544 34.3303 32.2579 34.1922 32.3499C34.1922 32.3499 34.5718 32.2234 35.3311 31.9703ZM33.9161 32.0738C33.8471 31.9588 33.7666 31.8553 33.6745 31.7632C33.7436 31.8783 33.8241 31.9818 33.9161 32.0738ZM33.9161 32.0738C33.8241 31.9818 33.7436 31.8783 33.6745 31.7632C33.3754 31.9933 33.0763 32.2234 32.7772 32.4535C32.8693 32.5455 32.9498 32.649 33.0188 32.7641C33.3179 32.534 33.617 32.3039 33.9161 32.0738ZM34.1922 32.3499C33.8011 32.488 33.41 32.626 33.0188 32.7641C33.41 32.626 33.7896 32.4995 34.1577 32.3845L34.1922 32.3499ZM38.7823 32.7296C38.6442 32.8676 38.5177 32.9942 38.4027 33.1092C38.5407 32.9942 38.6672 32.8676 38.7823 32.7296ZM38.7823 32.7296C38.6672 32.8676 38.5407 32.9942 38.4027 33.1092C38.4027 34.1676 38.4027 35.2259 38.4027 36.2843C38.5407 36.4223 38.6672 36.5489 38.7823 36.6639C38.7823 35.3525 38.7823 34.041 38.7823 32.7296ZM38.7823 36.6639C38.6672 36.5489 38.5407 36.4223 38.4027 36.2843V36.3188C38.5407 36.4338 38.6672 36.5604 38.7823 36.6984C38.7823 36.6984 38.7823 36.6869 38.7823 36.6639ZM25.8058 36.3188C25.8058 36.3188 25.9324 36.1808 26.1855 35.9047C26.1855 35.5365 26.1855 35.1569 26.1855 34.7658C25.9324 34.6507 25.8058 34.5932 25.8058 34.5932C25.8058 35.1684 25.8058 35.7436 25.8058 36.3188ZM38.4027 36.3188C38.4027 36.3188 38.2761 36.1808 38.023 35.9047C34.0657 35.9047 30.1198 35.9047 26.1855 35.9047C25.9324 36.1808 25.8058 36.3188 25.8058 36.3188C29.9933 36.3188 34.1922 36.3188 38.4027 36.3188ZM25.8058 34.5932C25.8058 34.5932 25.9324 34.6507 26.1855 34.7658C25.9324 34.6277 25.8058 34.5587 25.8058 34.5587V34.5932ZM25.8058 34.5932C25.8058 34.5932 25.9324 34.6622 26.1855 34.8003C28.0491 33.2357 29.9128 31.6712 31.7764 30.1067C31.6153 29.9226 31.5348 29.8306 31.5348 29.8306C29.6251 31.4181 27.7155 33.0057 25.8058 34.5932ZM31.5348 29.8306C31.5348 29.8306 31.6153 29.9226 31.7764 30.1067C31.6153 29.8996 31.5348 29.7961 31.5348 29.7961C31.5348 29.7961 31.5348 29.8076 31.5348 29.8306ZM31.5348 29.7961C31.5348 29.7961 31.6153 29.8996 31.7764 30.1067C32.1905 29.7616 32.5702 29.3474 32.8808 28.8642C33.1914 28.3811 33.3985 27.7599 33.3985 27.1041C33.1454 27.1041 33.0188 27.1041 33.0188 27.1041C33.0188 28.243 32.2941 29.1749 31.5348 29.7961ZM33.0188 27.1041C33.0188 27.1041 33.1454 27.1041 33.3985 27.1041C33.3985 26.4829 33.1569 25.7927 32.6737 25.344C32.4896 25.5281 32.3976 25.6201 32.3976 25.6201C32.8117 25.9998 33.0188 26.5865 33.0188 27.1041ZM32.3976 25.6201C32.3976 25.6201 32.4896 25.5281 32.6737 25.344C32.6737 25.344 32.6737 25.3325 32.6737 25.3095C32.4896 25.4936 32.3976 25.5856 32.3976 25.5856C32.3976 25.6086 32.3976 25.6201 32.3976 25.6201ZM32.3976 25.5856C32.3976 25.5856 32.4896 25.4936 32.6737 25.3095C32.225 24.8609 31.5348 24.6193 30.9136 24.6193C30.9136 24.8724 30.9136 24.9989 30.9136 24.9989C31.4313 24.9989 32.018 25.206 32.3976 25.5856ZM30.9136 24.9989C30.9136 24.9989 30.9136 24.8724 30.9136 24.6193C30.3959 24.6193 29.9128 24.7228 29.4296 24.8609C29.4986 25.114 29.5331 25.2405 29.5331 25.2405C29.9818 25.1025 30.4304 24.9989 30.9136 24.9989ZM29.5331 25.2405C29.5331 25.2405 29.4986 25.114 29.4296 24.8609C29.4296 24.8609 29.4181 24.8609 29.3951 24.8609C29.4871 25.114 29.5331 25.2405 29.5331 25.2405ZM26.4271 27.1041C26.5191 27.0121 26.6111 26.9316 26.7031 26.8626C26.9792 26.6325 27.2668 26.4139 27.5659 26.2068C28.1872 25.7927 28.8429 25.4821 29.5331 25.2405C29.5331 25.2405 29.4871 25.114 29.3951 24.8609C28.6703 25.1025 27.9801 25.4821 27.3589 25.8962C27.0598 26.1033 26.7607 26.3219 26.4616 26.552C26.4156 26.598 26.3695 26.644 26.3235 26.69C26.2775 27.0811 26.2545 27.2767 26.2545 27.2767C26.3235 27.2077 26.381 27.1502 26.4271 27.1041ZM26.2545 27.2767C26.2545 27.2767 26.2775 27.0811 26.3235 26.69C25.9554 26.1608 25.5873 25.6431 25.2191 25.137C24.92 25.137 24.7705 25.137 24.7705 25.137C25.2537 25.8502 25.7483 26.5635 26.2545 27.2767ZM25.9784 23.8255C25.7023 24.0326 25.4492 24.2627 25.2191 24.5158C25.1156 24.6538 24.9776 24.7918 24.9085 24.8954C24.8625 24.9644 24.805 25.0449 24.736 25.137C24.736 25.137 24.897 25.137 25.2191 25.137C25.2882 25.0679 25.4262 24.8954 25.5297 24.7918C25.7368 24.5618 25.9669 24.3432 26.22 24.1361C26.7031 23.722 27.2899 23.3769 27.8766 23.1008C27.7615 22.8707 27.704 22.7556 27.704 22.7556C27.0828 23.0317 26.4961 23.4114 25.9784 23.8255ZM27.704 22.7556C27.704 22.7556 27.7615 22.8707 27.8766 23.1008C27.8766 23.1008 27.8881 23.1008 27.9111 23.1008C27.796 22.8477 27.7385 22.7211 27.7385 22.7211C27.7385 22.7441 27.727 22.7556 27.704 22.7556ZM27.7385 22.7211C27.7385 22.7211 27.796 22.8477 27.9111 23.1008C29.326 22.4105 30.9136 22.0999 32.5011 22.0999C32.5011 21.8468 32.5011 21.7203 32.5011 21.7203C30.8446 21.7203 29.2225 22.0654 27.7385 22.7211ZM32.5011 21.7203C32.5011 21.7203 32.5011 21.8468 32.5011 22.0999C33.9161 22.0999 35.2966 22.4105 36.3665 23.1698C36.5275 22.9397 36.608 22.8247 36.608 22.8247C35.4346 22.0309 33.9506 21.7203 32.5011 21.7203ZM36.608 22.8247C36.608 22.8247 36.5275 22.9397 36.3665 23.1698C36.3665 23.1698 36.378 23.1698 36.401 23.1698C36.539 22.9627 36.608 22.8592 36.608 22.8592C36.608 22.8362 36.608 22.8247 36.608 22.8247ZM37.885 24.2397C37.6089 23.6875 37.1602 23.2043 36.608 22.8592C36.608 22.8592 36.539 22.9627 36.401 23.1698C37.4018 23.8255 37.9195 24.8609 37.9195 26.0688C38.1726 26.0688 38.2991 26.0688 38.2991 26.0688C38.2991 25.4131 38.1611 24.7918 37.885 24.2397ZM38.2991 26.0688C38.2991 26.0688 38.1726 26.0688 37.9195 26.0688C37.9195 27.1041 37.4018 28.105 36.5735 28.9333C36.7576 29.1173 36.8496 29.2094 36.8496 29.2094C37.7124 28.3466 38.2991 27.2422 38.2991 26.0688ZM36.8496 29.2094C36.8496 29.2094 36.7576 29.1173 36.5735 28.9333C36.0444 29.4624 35.4922 29.9456 34.917 30.3828C35.078 30.5898 35.1585 30.6934 35.1585 30.6934C35.7568 30.2332 36.3205 29.7385 36.8496 29.2094ZM35.1585 30.6934C35.1585 30.6934 35.078 30.5898 34.917 30.3828C35.055 30.5898 35.124 30.6934 35.124 30.6934C35.1471 30.6934 35.1585 30.6934 35.1585 30.6934ZM35.124 30.6934C35.124 30.6934 35.055 30.5898 34.917 30.3828C34.4338 30.7279 33.9506 31.0845 33.4675 31.4526C33.6285 31.6597 33.7091 31.7632 33.7091 31.7632C34.1922 31.3951 34.6639 31.0385 35.124 30.6934ZM33.7091 31.7632C33.7091 31.7632 33.6285 31.6597 33.4675 31.4526C33.1684 31.6827 32.8693 31.9128 32.5702 32.1429C32.7312 32.3499 32.8117 32.4535 32.8117 32.4535C33.1108 32.2234 33.41 31.9933 33.7091 31.7632ZM38.4027 33.1437C38.4027 33.1437 38.2761 33.2703 38.023 33.5233C38.023 34.3286 38.023 35.1339 38.023 35.9392C38.2761 36.1923 38.4027 36.3188 38.4027 36.3188C38.4027 35.2604 38.4027 34.2021 38.4027 33.1437Z" fill="url(#paint29_linear_545_8272)"/>
</g>
<path d="M11.8054 14.2656C11.0117 14.5071 10.425 15.0248 10.0798 15.7496L7.87109 20.3742C8.25072 19.5804 8.90645 19.0282 9.76924 18.7521L19.2945 15.8186C20.9166 15.3354 22.1935 14.4381 23.1598 13.0231L28.8888 4.84383C29.4755 3.98103 30.4073 3.53238 31.4427 3.53238C32.5125 3.53238 33.4098 3.98103 33.9965 4.84383L39.7255 13.0231C40.7264 14.4381 41.9688 15.3354 43.5908 15.8186L53.1161 18.7521C53.9789 19.0282 54.6346 19.5804 55.0143 20.3742L52.8055 15.7496C52.4604 15.0248 51.8737 14.5071 51.0799 14.2656L42.452 11.6427C40.9679 11.194 39.829 10.3657 38.9663 9.08879L33.755 1.70325C33.2373 0.909479 32.409 0.460825 31.4427 0.460825C30.4763 0.460825 29.6826 0.909479 29.1304 1.70325L23.9191 9.08879C23.0563 10.3657 21.9174 11.194 20.4679 11.6427L11.8054 14.2656Z" fill="url(#paint30_linear_545_8272)"/>
<path d="M19.4992 34.6621C19.5337 32.4188 18.8779 30.3481 17.532 28.5535C15.9214 26.4368 14.3109 24.3085 12.7003 22.1688C12.4933 21.8927 12.4587 21.5821 12.5623 21.2715C12.5853 21.2255 12.5968 21.191 12.5968 21.168L12.1136 21.306C11.7685 21.4095 11.5269 21.6511 11.4234 21.9962C11.2853 22.3068 11.3544 22.652 11.5614 22.9281C13.264 25.1828 14.9666 27.4491 16.6692 29.7269C18.1187 31.625 18.8089 33.7993 18.7744 36.1806C18.7284 39.0106 18.6824 41.8405 18.6364 44.6705C18.6364 45.0156 18.7744 45.3262 19.0505 45.5333C19.3611 45.7404 19.6717 45.7749 20.0168 45.6714L28.0581 42.9104C30.3129 42.1281 32.5676 42.1281 34.8224 42.9104L42.8637 45.6714C43.2088 45.7749 43.5539 45.7404 43.83 45.5333C44.1061 45.3262 44.2441 45.0156 44.2441 44.6705C44.1981 41.8405 44.1521 39.0106 44.1061 36.1806C44.0716 33.7993 44.7618 31.625 46.2113 29.7269L51.3191 22.9281C51.5261 22.652 51.5952 22.3068 51.4916 21.9962C51.3536 21.6511 51.112 21.4095 50.8014 21.306C50.6173 21.26 50.4448 21.214 50.2837 21.168C50.3067 21.191 50.3182 21.2255 50.3182 21.2715C50.4218 21.5821 50.3872 21.8927 50.1802 22.1688L45.3485 28.5535C44.0026 30.3481 43.3468 32.4188 43.3813 34.6621C43.4274 37.331 43.4734 39.9999 43.5194 42.6688C43.5194 42.9794 43.3813 43.29 43.1052 43.4626C42.8637 43.6697 42.5186 43.7042 42.2079 43.6006L34.6498 41.0123C32.5101 40.276 30.3704 40.276 28.2307 41.0123L20.6726 43.6006C20.3619 43.7042 20.0513 43.6697 19.7753 43.4626C19.4992 43.29 19.3611 42.9794 19.3611 42.6688C19.4071 39.9999 19.4531 37.331 19.4992 34.6621Z" fill="url(#paint31_linear_545_8272)"/>
<path style="mix-blend-mode:screen" d="M24.0195 44.2907C26.884 43.1864 29.2998 41.9094 32.0608 42.1165C34.7182 42.3236 39.2393 44.4978 42.8975 45.5677C43.2771 45.6712 43.5532 45.7057 43.8293 45.5332C43.5532 45.8093 43.3117 45.8438 42.863 45.7403C40.8268 45.3951 34.7872 42.8067 32.0608 42.5652C29.4379 42.2891 26.5734 43.566 24.0195 44.2907Z" fill="url(#paint32_radial_545_8272)"/>
<path style="mix-blend-mode:multiply" opacity="0.3" d="M19.2921 15.8186C20.9142 15.3354 22.1911 14.4381 23.1574 13.0231L25.2282 10.0896C25.4122 8.84721 25.6078 7.61629 25.8149 6.39687L23.9167 9.0888C23.0539 10.3657 21.915 11.194 20.4655 11.6427L18.2913 12.2984C17.8541 13.7019 17.4055 15.1169 16.9453 16.5434L19.2921 15.8186Z" fill="url(#paint33_linear_545_8272)"/>
<path style="mix-blend-mode:screen" d="M31.4395 3.53238C31.4395 2.52003 31.4395 1.49618 31.4395 0.460825C30.4732 0.460825 29.6794 0.909479 29.1272 1.70325L28.0229 3.25628C27.9078 4.36066 27.7928 5.46504 27.6777 6.56942L28.8856 4.84383C29.4724 3.98103 30.4042 3.53238 31.4395 3.53238Z" fill="url(#paint34_linear_545_8272)"/>
<path style="mix-blend-mode:screen" d="M14.2523 13.5062L11.8019 14.2655C11.6639 14.3115 11.5373 14.3575 11.4223 14.4035L9.24805 18.9591C9.4091 18.8671 9.58166 18.798 9.76572 18.752L12.4922 17.9237C13.0674 16.4512 13.6541 14.9787 14.2523 13.5062Z" fill="url(#paint35_linear_545_8272)"/>
<path style="mix-blend-mode:multiply" opacity="0.5" d="M43.5892 15.8186C41.9671 15.3354 40.7247 14.4381 39.7238 13.0231L37.6531 10.0896C37.469 8.84721 37.2735 7.61629 37.0664 6.39687L38.9646 9.0888C39.8274 10.3657 40.9662 11.194 42.4503 11.6427L44.59 12.2984C45.0502 13.7019 45.4988 15.1169 45.936 16.5434L43.5892 15.8186Z" fill="url(#paint36_linear_545_8272)"/>
<path style="mix-blend-mode:multiply" opacity="0.5" d="M52.8029 15.7495V15.715C52.4578 15.0248 51.8711 14.5071 51.0773 14.2655L48.627 13.5062C49.2252 14.9787 49.8234 16.4512 50.4216 17.9237L53.1135 18.752C53.9763 19.0281 54.632 19.5803 55.0116 20.3396L52.8029 15.7495Z" fill="url(#paint37_linear_545_8272)"/>
<path style="mix-blend-mode:multiply" d="M18.2896 36.1806C18.3241 33.9028 17.6339 31.8321 16.2879 30.003C15.5517 29.0366 14.8039 28.0588 14.0447 27.0695C13.2509 25.9996 10.766 26.2412 11.5253 27.242L14.5623 31.3144C15.6667 32.7294 16.1844 34.3169 16.1499 36.1461L15.9773 46.12C15.9428 47.0173 16.3224 47.7766 17.0472 48.2942C17.7719 48.8119 18.6347 48.95 19.463 48.6394L28.9193 45.3952C30.6103 44.8085 32.2669 44.8085 33.9925 45.3952L43.4142 48.6394C44.277 48.95 45.1053 48.8119 45.8301 48.2942C46.5548 47.7766 46.9344 47.0173 46.8999 46.12L46.7274 36.1461C46.6929 34.3169 47.2105 32.7294 48.3149 31.3144L51.352 27.242C52.1112 26.2412 49.6264 25.9996 48.8326 27.0695L46.5893 30.003C45.2434 31.8321 44.5531 33.9028 44.5876 36.1806C44.6567 39.0106 44.7142 41.8405 44.7602 44.6705C44.7602 45.1882 44.5186 45.6368 44.1045 45.9474C43.6903 46.2235 43.2072 46.3271 42.724 46.1545L34.6827 43.3936C32.52 42.6343 30.3573 42.6343 28.1945 43.3936L20.1878 46.1545C19.7046 46.3271 19.1869 46.2235 18.7728 45.9474C18.3586 45.6368 18.1171 45.1882 18.1516 44.6705C18.1976 41.8405 18.2436 39.0106 18.2896 36.1806Z" fill="url(#paint38_linear_545_8272)"/>
<path style="mix-blend-mode:screen" d="M47.8026 24.5156L49.7698 21.8582C49.8619 21.7662 49.8964 21.6626 49.8734 21.5476C47.4345 20.7883 44.9842 20.0406 42.5223 19.3043C40.1295 18.5681 38.2084 17.1761 36.7589 15.1284L31.8927 8.15698C31.7776 7.99593 31.6281 7.9154 31.444 7.9154C31.26 7.9154 31.1104 7.99593 30.9954 8.15698L26.1292 15.1284C24.6797 17.1761 22.7586 18.5681 20.3657 19.3043L13.0147 21.5476C12.9917 21.6626 13.0262 21.7662 13.1182 21.8582C13.7625 22.7325 14.4182 23.6183 15.0854 24.5156C17.7083 27.9668 45.2143 27.9668 47.8026 24.5156Z" fill="url(#paint39_radial_545_8272)"/>
<path d="M24.9892 33.5922L30.9597 28.5535C31.765 27.8863 32.1676 27.1845 32.1676 26.4483C32.1906 26.0571 32.0641 25.735 31.788 25.4819C31.5579 25.2288 31.2473 25.1023 30.8562 25.1023C30.465 25.1023 30.0854 25.1713 29.7173 25.3094C28.4749 25.7235 27.267 26.5518 26.0935 27.7942L23.7812 24.4811C24.5865 23.1466 25.7829 22.1113 27.3705 21.375C28.958 20.6388 30.6491 20.2706 32.4437 20.2706C34.2383 20.2706 35.7569 20.6963 36.9993 21.5476C38.3568 22.4909 39.0355 23.7794 39.0355 25.4129C39.0355 26.7244 38.4718 27.9438 37.3444 29.0712C36.7692 29.6694 36.171 30.1986 35.5498 30.6587C34.9286 31.0959 34.4454 31.4525 34.1003 31.7286H39.139V36.4567H24.9892V33.5922Z" fill="url(#paint40_radial_545_8272)"/>
<path d="M39.1364 31.7286L38.4116 30.5207H35.7197C35.6507 30.5667 35.5932 30.6127 35.5471 30.6587C34.9259 31.0959 34.4428 31.4525 34.0977 31.7286H39.1364Z" fill="url(#paint41_radial_545_8272)"/>
<path d="M30.9569 28.5534C31.7622 27.8862 32.1648 27.1845 32.1648 26.4482C32.1878 26.2181 32.1533 26.0111 32.0613 25.827C31.9232 26.3792 31.5781 26.9084 31.0259 27.4146L25.573 32.3497L24.9863 33.5922L30.9569 28.5534Z" fill="url(#paint42_radial_545_8272)"/>
<path d="M32.4417 20.2706C34.2364 20.2706 35.7549 20.6963 36.9973 21.5476C37.5955 21.9617 38.0672 22.4564 38.4123 23.0316L37.6875 21.8237C37.3884 21.3175 36.9858 20.8688 36.4796 20.4777C35.3753 19.6494 33.9948 19.2353 32.3382 19.2353C30.7047 19.2353 29.1746 19.5919 27.7481 20.3051C26.4137 20.9724 25.3898 21.8812 24.6766 23.0316L23.8828 24.274C24.6881 23.0546 25.85 22.0882 27.3685 21.375C28.9561 20.6387 30.6471 20.2706 32.4417 20.2706Z" fill="url(#paint43_radial_545_8272)"/>
<path d="M26.0933 34.1099V35.3178H37.9999V32.833H30.7869L33.4443 30.8313C33.9045 30.4632 34.3761 30.1065 34.8593 29.7614C35.4805 29.3128 36.0327 28.8296 36.5504 28.3119C37.3096 27.5182 37.8963 26.5518 37.8963 25.4129C37.8963 24.136 37.4132 23.2042 36.3433 22.4794C35.2044 21.6857 33.8239 21.4096 32.4435 21.4096C30.8214 21.4096 29.3029 21.7202 27.8189 22.4104C26.7835 22.8936 25.8517 23.5493 25.127 24.4811L26.2658 26.0687C27.1631 25.2749 28.1985 24.6192 29.3719 24.2395C29.8551 24.0785 30.3497 23.9979 30.8559 23.9979C31.5116 23.9979 32.1328 24.2395 32.5815 24.6882C33.0647 25.1714 33.3063 25.7581 33.3063 26.4483C33.3063 27.6907 32.616 28.657 31.6842 29.4163L26.0933 34.1099Z" fill="url(#paint44_radial_545_8272)"/>
<path d="M26.2658 25.3439L25.403 24.136C25.311 24.251 25.219 24.3661 25.127 24.4811L26.2658 26.0687V25.3439Z" fill="url(#paint45_radial_545_8272)"/>
<path d="M29.3697 23.5147C28.1963 23.8944 27.161 24.5501 26.2637 25.3439V26.0686C27.161 25.2748 28.1963 24.6191 29.3697 24.2395C29.8529 24.0784 30.3476 23.9979 30.8537 23.9979C31.5095 23.9979 32.1307 24.2395 32.5793 24.6881C33.0625 25.1368 33.3041 25.758 33.3041 26.4137V25.7235C33.3041 25.0678 33.0625 24.4466 32.5793 23.9634C32.1307 23.5147 31.5095 23.2732 30.8537 23.2732C30.3476 23.2732 29.8529 23.3537 29.3697 23.5147Z" fill="url(#paint46_radial_545_8272)"/>
<path d="M37.9964 34.593H26.0898V35.3177H37.9964V34.593Z" fill="url(#paint47_radial_545_8272)"/>
<path d="M30.7832 32.833L33.4406 30.8313C33.9008 30.4632 34.3724 30.1066 34.8556 29.7614C35.4768 29.3128 36.029 28.8296 36.5467 28.3119C37.3059 27.5182 37.8926 26.5518 37.8926 25.4129C37.8926 25.2979 37.8926 25.1714 37.8926 25.0333C37.7891 26.0342 37.2369 26.8624 36.5467 27.5872C36.029 28.1049 35.4768 28.588 34.8556 29.0367C34.3724 29.3818 33.9008 29.7384 33.4406 30.1066L30.7832 32.1428V32.833Z" fill="url(#paint48_radial_545_8272)"/>
<path style="mix-blend-mode:screen" d="M14.5293 17.3026C16.3584 16.6814 19.8441 15.7841 21.2936 14.6452C23.744 12.7815 26.3323 7.81182 28.6446 4.98185C29.5765 3.84296 30.0251 3.56686 31.4401 3.53235C30.1632 3.6704 29.611 4.15356 28.8172 5.15441C26.5394 8.01889 23.9855 13.3337 21.5007 14.9903C19.568 16.2672 16.6 16.7504 14.5293 17.3026Z" fill="url(#paint49_radial_545_8272)"/>
<defs>
<radialGradient id="paint0_radial_545_8272" cx="0" cy="0" r="1" gradientUnits="userSpaceOnUse" gradientTransform="translate(31.444 67.7633) scale(28.3239 28.3239)">
<stop stop-color="#006EFF"/>
<stop offset="0.801" stop-color="#002F82"/>
</radialGradient>
<radialGradient id="paint1_radial_545_8272" cx="0" cy="0" r="1" gradientUnits="userSpaceOnUse" gradientTransform="translate(32.0937 64.3109) scale(20.8703 20.8703)">
<stop stop-color="#B4CDF7"/>
<stop offset="1" stop-color="#364D7A"/>
</radialGradient>
<linearGradient id="paint2_linear_545_8272" x1="22.2172" y1="50.3928" x2="22.5624" y2="50.3928" gradientUnits="userSpaceOnUse">
<stop stop-color="#2A60AD"/>
<stop offset="1" stop-color="#2A60AD"/>
</linearGradient>
<linearGradient id="paint3_linear_545_8272" x1="29.3477" y1="48.806" x2="29.6929" y2="48.806" gradientUnits="userSpaceOnUse">
<stop stop-color="#2A60AD"/>
<stop offset="1" stop-color="#2A60AD"/>
</linearGradient>
<linearGradient id="paint4_linear_545_8272" x1="42.0832" y1="49.1942" x2="42.4283" y2="49.1942" gradientUnits="userSpaceOnUse">
<stop stop-color="#2A60AD"/>
<stop offset="1" stop-color="#2A60AD"/>
</linearGradient>
<linearGradient id="paint5_linear_545_8272" x1="36.4487" y1="48.6441" x2="36.7938" y2="48.6441" gradientUnits="userSpaceOnUse">
<stop stop-color="#2A60AD"/>
<stop offset="1" stop-color="#2A60AD"/>
</linearGradient>
<linearGradient id="paint6_linear_545_8272" x1="25.67" y1="57.524" x2="26.0152" y2="57.524" gradientUnits="userSpaceOnUse">
<stop stop-color="#6993B5"/>
<stop offset="1" stop-color="#6993B5"/>
</linearGradient>
<linearGradient id="paint7_linear_545_8272" x1="38.6799" y1="57.4985" x2="39.0251" y2="57.4985" gradientUnits="userSpaceOnUse">
<stop stop-color="#6993B5"/>
<stop offset="1" stop-color="#6993B5"/>
</linearGradient>
<linearGradient id="paint8_linear_545_8272" x1="32.9806" y1="54.5919" x2="33.3257" y2="54.5919" gradientUnits="userSpaceOnUse">
<stop stop-color="#6993B5"/>
<stop offset="1" stop-color="#6993B5"/>
</linearGradient>
<radialGradient id="paint9_radial_545_8272" cx="0" cy="0" r="1" gradientUnits="userSpaceOnUse" gradientTransform="translate(5.67698 34.0484) scale(18.6243 18.6243)">
<stop stop-color="#8491B5"/>
<stop offset="1" stop-color="#435073"/>
</radialGradient>
<radialGradient id="paint10_radial_545_8272" cx="0" cy="0" r="1" gradientUnits="userSpaceOnUse" gradientTransform="translate(1.91938 41.1775) scale(14.1222 14.1222)">
<stop stop-color="#E0E8FF"/>
<stop offset="1" stop-color="#566994"/>
</radialGradient>
<radialGradient id="paint11_radial_545_8272" cx="0" cy="0" r="1" gradientUnits="userSpaceOnUse" gradientTransform="translate(5.09441 35.8575) scale(20.5842 20.5842)">
<stop stop-color="#BFD3E3"/>
<stop offset="1" stop-color="#000800"/>
</radialGradient>
<radialGradient id="paint12_radial_545_8272" cx="0" cy="0" r="1" gradientUnits="userSpaceOnUse" gradientTransform="translate(4.12744 26.853) scale(19.211 19.211)">
<stop stop-color="#8491B5"/>
<stop offset="1" stop-color="#435073"/>
</radialGradient>
<radialGradient id="paint13_radial_545_8272" cx="0" cy="0" r="1" gradientUnits="userSpaceOnUse" gradientTransform="translate(-4.20916 32.0813) scale(21.6796 21.6796)">
<stop stop-color="#E0E8FF"/>
<stop offset="1" stop-color="#566994"/>
</radialGradient>
<radialGradient id="paint14_radial_545_8272" cx="0" cy="0" r="1" gradientUnits="userSpaceOnUse" gradientTransform="translate(3.33579 28.8892) scale(16.3383 16.3382)">
<stop stop-color="#BFD3E3"/>
<stop offset="1" stop-color="#000800"/>
</radialGradient>
<radialGradient id="paint15_radial_545_8272" cx="0" cy="0" r="1" gradientUnits="userSpaceOnUse" gradientTransform="translate(6.00822 19.8457) scale(20.5346 20.5345)">
<stop stop-color="#8491B5"/>
<stop offset="1" stop-color="#435073"/>
</radialGradient>
<radialGradient id="paint16_radial_545_8272" cx="0" cy="0" r="1" gradientUnits="userSpaceOnUse" gradientTransform="translate(1.32322 19.288) scale(17.3443 17.3443)">
<stop stop-color="#E0E8FF"/>
<stop offset="1" stop-color="#566994"/>
</radialGradient>
<radialGradient id="paint17_radial_545_8272" cx="0" cy="0" r="1" gradientUnits="userSpaceOnUse" gradientTransform="translate(4.13573 22.4193) scale(17.8851 17.8851)">
<stop stop-color="#BFD3E3"/>
<stop offset="1" stop-color="#000800"/>
</radialGradient>
<radialGradient id="paint18_radial_545_8272" cx="0" cy="0" r="1" gradientUnits="userSpaceOnUse" gradientTransform="translate(57.212 34.0484) rotate(180) scale(18.6243 18.6243)">
<stop stop-color="#8491B5"/>
<stop offset="1" stop-color="#435073"/>
</radialGradient>
<radialGradient id="paint19_radial_545_8272" cx="0" cy="0" r="1" gradientUnits="userSpaceOnUse" gradientTransform="translate(60.9647 41.1775) rotate(180) scale(14.1222 14.1222)">
<stop stop-color="#E0E8FF"/>
<stop offset="1" stop-color="#566994"/>
</radialGradient>
<radialGradient id="paint20_radial_545_8272" cx="0" cy="0" r="1" gradientUnits="userSpaceOnUse" gradientTransform="translate(57.7954 35.8575) rotate(180) scale(20.5843 20.5842)">
<stop stop-color="#BFD3E3"/>
<stop offset="1" stop-color="#000800"/>
</radialGradient>
<radialGradient id="paint21_radial_545_8272" cx="0" cy="0" r="1" gradientUnits="userSpaceOnUse" gradientTransform="translate(58.7615 26.8531) rotate(180) scale(19.211 19.211)">
<stop stop-color="#8491B5"/>
<stop offset="1" stop-color="#435073"/>
</radialGradient>
<radialGradient id="paint22_radial_545_8272" cx="0" cy="0" r="1" gradientUnits="userSpaceOnUse" gradientTransform="translate(67.0951 32.0813) rotate(180) scale(21.6796 21.6796)">
<stop stop-color="#E0E8FF"/>
<stop offset="1" stop-color="#566994"/>
</radialGradient>
<radialGradient id="paint23_radial_545_8272" cx="0" cy="0" r="1" gradientUnits="userSpaceOnUse" gradientTransform="translate(59.5522 28.8892) rotate(180) scale(16.3383 16.3382)">
<stop stop-color="#BFD3E3"/>
<stop offset="1" stop-color="#000800"/>
</radialGradient>
<radialGradient id="paint24_radial_545_8272" cx="0" cy="0" r="1" gradientUnits="userSpaceOnUse" gradientTransform="translate(56.8807 19.8457) rotate(180) scale(20.5345 20.5345)">
<stop stop-color="#8491B5"/>
<stop offset="1" stop-color="#435073"/>
</radialGradient>
<radialGradient id="paint25_radial_545_8272" cx="0" cy="0" r="1" gradientUnits="userSpaceOnUse" gradientTransform="translate(61.5674 19.288) rotate(180) scale(17.3443 17.3443)">
<stop stop-color="#E0E8FF"/>
<stop offset="1" stop-color="#566994"/>
</radialGradient>
<radialGradient id="paint26_radial_545_8272" cx="0" cy="0" r="1" gradientUnits="userSpaceOnUse" gradientTransform="translate(58.7523 22.4193) rotate(180) scale(17.8851 17.8851)">
<stop stop-color="#BFD3E3"/>
<stop offset="1" stop-color="#000800"/>
</radialGradient>
<linearGradient id="paint27_linear_545_8272" x1="9.5343" y1="49.2988" x2="9.5343" y2="3.52269" gradientUnits="userSpaceOnUse">
<stop stop-color="#6A7694"/>
<stop offset="0.41" stop-color="#C8DAED"/>
<stop offset="1" stop-color="#6A7694"/>
</linearGradient>
<radialGradient id="paint28_radial_545_8272" cx="0" cy="0" r="1" gradientUnits="userSpaceOnUse" gradientTransform="translate(31.072 6.13426) scale(49.2864 49.2864)">
<stop stop-color="#0056D9"/>
<stop offset="1" stop-color="#001945"/>
</radialGradient>
<linearGradient id="paint29_linear_545_8272" x1="24.8361" y1="37.3124" x2="25.1801" y2="37.3124" gradientUnits="userSpaceOnUse">
<stop stop-color="#6993B5"/>
<stop offset="1" stop-color="#6993B5"/>
</linearGradient>
<linearGradient id="paint30_linear_545_8272" x1="7.86488" y1="0.478081" x2="55.0274" y2="0.478081" gradientUnits="userSpaceOnUse">
<stop stop-color="#A6B6E3"/>
<stop offset="0.135" stop-color="#8491B5"/>
<stop offset="0.297" stop-color="#4D5B82"/>
<stop offset="0.479" stop-color="#8491B5"/>
<stop offset="0.563" stop-color="#717EA3"/>
<stop offset="1" stop-color="#475478"/>
</linearGradient>
<linearGradient id="paint31_linear_545_8272" x1="11.3561" y1="21.151" x2="51.5313" y2="21.151" gradientUnits="userSpaceOnUse">
<stop offset="0.09" stop-color="#475478"/>
<stop offset="0.405" stop-color="#717EA3"/>
<stop offset="0.529" stop-color="#8491B5"/>
<stop offset="0.777" stop-color="#4D5B82"/>
<stop offset="0.95" stop-color="#8491B5"/>
</linearGradient>
<radialGradient id="paint32_radial_545_8272" cx="0" cy="0" r="1" gradientUnits="userSpaceOnUse" gradientTransform="translate(35.2293 41.0687) scale(34.3462 34.3462)">
<stop stop-color="#BFD3E3"/>
<stop offset="1" stop-color="#000800"/>
</radialGradient>
<linearGradient id="paint33_linear_545_8272" x1="17.8136" y1="3.55172" x2="28.7625" y2="6.89905" gradientUnits="userSpaceOnUse">
<stop stop-color="white"/>
<stop offset="0.563" stop-color="#4D5B82"/>
<stop offset="1" stop-color="white"/>
</linearGradient>
<linearGradient id="paint34_linear_545_8272" x1="27.6695" y1="0.478081" x2="31.443" y2="0.478081" gradientUnits="userSpaceOnUse">
<stop/>
<stop offset="0.555" stop-color="#8491B5"/>
<stop offset="1"/>
</linearGradient>
<linearGradient id="paint35_linear_545_8272" x1="10.086" y1="11.5591" x2="16.2832" y2="14.1897" gradientUnits="userSpaceOnUse">
<stop/>
<stop offset="0.322" stop-color="#8491B5"/>
<stop offset="1"/>
</linearGradient>
<linearGradient id="paint36_linear_545_8272" x1="34.956" y1="6.57426" x2="45.5066" y2="4.33164" gradientUnits="userSpaceOnUse">
<stop stop-color="white"/>
<stop offset="0.437" stop-color="#4D5B82"/>
<stop offset="1" stop-color="white"/>
</linearGradient>
<linearGradient id="paint37_linear_545_8272" x1="46.9939" y1="13.813" x2="54.6179" y2="11.9122" gradientUnits="userSpaceOnUse">
<stop offset="0.041" stop-color="white"/>
<stop offset="0.744" stop-color="#4D5B82"/>
</linearGradient>
<linearGradient id="paint38_linear_545_8272" x1="25.1747" y1="48.8012" x2="25.1747" y2="26.3782" gradientUnits="userSpaceOnUse">
<stop stop-color="white"/>
<stop offset="1" stop-color="#99A2BF"/>
</linearGradient>
<radialGradient id="paint39_radial_545_8272" cx="0" cy="0" r="1" gradientUnits="userSpaceOnUse" gradientTransform="translate(31.0758 -1.63575) scale(41.8487)">
<stop stop-color="#004991"/>
<stop offset="1" stop-color="#000C17"/>
</radialGradient>
<radialGradient id="paint40_radial_545_8272" cx="0" cy="0" r="1" gradientUnits="userSpaceOnUse" gradientTransform="translate(27.8913 21.1103) scale(19.1365 19.1365)">
<stop stop-color="#C6D8F7"/>
<stop offset="1" stop-color="#7191CF"/>
</radialGradient>
<radialGradient id="paint41_radial_545_8272" cx="0" cy="0" r="1" gradientUnits="userSpaceOnUse" gradientTransform="translate(43.6578 32.7232) scale(12.0132 12.0132)">
<stop stop-color="#9CBCED"/>
<stop offset="1" stop-color="#344F8A"/>
</radialGradient>
<radialGradient id="paint42_radial_545_8272" cx="0" cy="0" r="1" gradientUnits="userSpaceOnUse" gradientTransform="translate(21.8841 32.152) scale(13.2916 13.2915)">
<stop stop-color="#9CBCED"/>
<stop offset="1" stop-color="#344F8A"/>
</radialGradient>
<radialGradient id="paint43_radial_545_8272" cx="0" cy="0" r="1" gradientUnits="userSpaceOnUse" gradientTransform="translate(30.7282 19.6639) scale(13.374 13.374)">
<stop stop-color="#9CBCED"/>
<stop offset="1" stop-color="#344F8A"/>
</radialGradient>
<radialGradient id="paint44_radial_545_8272" cx="0" cy="0" r="1" gradientUnits="userSpaceOnUse" gradientTransform="translate(31.8464 36.9102) scale(15.4368 15.4368)">
<stop stop-color="#009DFF"/>
<stop offset="1" stop-color="#0039BF"/>
</radialGradient>
<radialGradient id="paint45_radial_545_8272" cx="0" cy="0" r="1" gradientUnits="userSpaceOnUse" gradientTransform="translate(30.7203 27.4098) scale(6.78569 6.78572)">
<stop stop-color="#9CBCED"/>
<stop offset="1" stop-color="#344F8A"/>
</radialGradient>
<radialGradient id="paint46_radial_545_8272" cx="0" cy="0" r="1" gradientUnits="userSpaceOnUse" gradientTransform="translate(30.0596 23.5903) scale(7.55602 7.55602)">
<stop stop-color="#9CBCED"/>
<stop offset="1" stop-color="#344F8A"/>
</radialGradient>
<radialGradient id="paint47_radial_545_8272" cx="0" cy="0" r="1" gradientUnits="userSpaceOnUse" gradientTransform="translate(36.8178 43.7065) scale(18.391 18.391)">
<stop stop-color="#9CBCED"/>
<stop offset="1" stop-color="#344F8A"/>
</radialGradient>
<radialGradient id="paint48_radial_545_8272" cx="0" cy="0" r="1" gradientUnits="userSpaceOnUse" gradientTransform="translate(33.4996 37.8189) scale(15.5372 15.5372)">
<stop stop-color="#9CBCED"/>
<stop offset="1" stop-color="#344F8A"/>
</radialGradient>
<radialGradient id="paint49_radial_545_8272" cx="0" cy="0" r="1" gradientUnits="userSpaceOnUse" gradientTransform="translate(24.9398 4.1791) scale(37.2911)">
<stop stop-color="#BFD3E3"/>
<stop offset="1" stop-color="#000800"/>
</radialGradient>
</defs>
</svg>
