<svg version="1.2" xmlns="http://www.w3.org/2000/svg" viewBox="0 0 202 78" width="202" height="78"><style>.a{fill:#ff468d}.b{fill:none;stroke:#fff;stroke-width:1.5}.c{fill:#ff468d;stroke:#fff;stroke-width:1.5}.d{fill:#ff4693;stroke:#fff;stroke-width:1.5}</style><path class="a" d="m19.5 44.1c0-2.4 1.3-4.9 0.9-7.3-1.4-8.5 1.2-17.6 7.8-24.2 0.9-0.9 0.1-2.5-1.1-2-5.6 2.6-10.3 6.7-13.6 11.9-0.9 1.4 0.1 3.4 0.1 5.1 0 1.4-1.2 2.5-2.6 2.5-0.5 0-1.1 0.3-1.3 0.8-0.8 2.8-1.2 5.7-1.2 8.8 0 10.9 5.5 20.6 13.9 26.3 0.8 0.6 1.9 0.4 2.9 0.4 1.5 0 2.6 1.2 2.6 2.6q0 0.1 0.1 0.1c3.8 1.6 8 2.5 12.5 2.5 12.9 0 24-7.6 29-18.6 0.5-1.1-1-1.9-1.9-1-10.9 10.8-28.5 10.8-39.4 0q-1.4-1.4-2.6-3c-0.4-0.6-1.2-0.8-2-0.8-2.2 0-4.1-1.9-4.1-4.1z"/><path class="b" d="m27.6 11.3c0 0-0.1-0.1-0.2 0-5.4 2.5-10 6.5-13.3 11.6-0.2 0.4-0.3 1-0.1 1.9 0 0.4 0.1 0.8 0.2 1.3 0.1 0.5 0.2 1 0.2 1.5 0 1.8-1.5 3.3-3.4 3.3q-0.3 0-0.4 0.1-0.2 0.1-0.2 0.1c-0.7 2.7-1.2 5.6-1.2 8.6 0 10.7 5.4 20.1 13.7 25.7q0.3 0.3 1 0.3c0.4 0 0.8 0 1.4 0 1.7 0 3.1 1.2 3.3 2.8 3.7 1.5 7.7 2.4 11.9 2.4 12.6 0 23.4-7.5 28.4-18.2 0-0.1 0-0.1 0-0.1q0-0.1-0.2-0.2c-0.2-0.1-0.4-0.1-0.6 0.1-11.1 11.2-29.3 11.2-40.4 0q-1.5-1.5-2.7-3c-0.2-0.4-0.7-0.6-1.4-0.6-2.7 0-4.8-2.1-4.8-4.8 0-1.3 0.3-2.6 0.6-3.8 0.3-1.2 0.4-2.3 0.3-3.4-1.5-8.7 1.2-18.1 8-24.9 0.1-0.1 0.2-0.4 0.1-0.6q-0.1-0.1-0.2-0.1z"/><path class="c" d="m58.5 17.5l11.5 9.6 0.1-4v-0.7h0.8q0 0 0 0 0 0 0 0 0.2 0 0.3-0.1 0.1 0 0.1-0.1c0.1-0.1 0.1-0.2 0.1-0.4 0-0.3-0.1-0.5-0.2-0.6q-0.2 0-0.3 0 0-0.1 0-0.1 0 0 0 0h-0.7v-0.7l0.1-2.8v-0.8l0.8 0.1 9.9 0.7h0.7v0.7l-1.5 25.5-0.1 1.1-1-0.5-11.6-5.8 0.4 6.6v0.7l-0.7 0.1-2.4 0.1h-0.5l-0.2-0.4q0 0 0 0-0.1-0.1-0.1-0.1-0.1-0.2-0.4-0.4c-0.3-0.3-0.8-0.6-1.5-0.6-0.7 0-1 0.3-1.2 0.6q-0.1 0.2-0.2 0.4 0 0.1 0 0.1 0 0.1 0 0.1l-0.1 0.6h-0.6l-2.4 0.2h-0.8v-0.8l0.4-27.7 0.1-1.6z"/><path class="c" d="m35.7 17l9.5 1.7 0.7 0.1-0.1 0.6v0.6l0.5-0.1 9-1.7 0.9-0.2v0.9q0.1 2.3 0.2 4.1v0.4l-0.4 0.3c-0.5 0.4-0.9 0.9-0.9 1.4 0 0.5 0.2 0.9 0.8 1.3l0.1 0.1 0.5 0.2v0.4q0.1 3.1 0.1 4.8 0 1.6 0 2.2v0.5q0.1 2.1-0.3 4.1-0.3 1.9-1.3 3.6-1 1.6-2.6 2.8-1.7 1.2-4.1 1.7h-0.2l-0.3-0.1c-1.4-0.8-2.3-1.1-3-1-0.7 0-1.3 0.2-2 1l-0.3 0.3-0.4-0.1q-2.7-0.6-4.5-2.2-1.8-1.6-2.5-4-0.8-2.4-0.7-5.2v-0.3q0-0.4 0-1.5 0-1 0.1-3v-0.4l0.3-0.2c0.7-0.4 0.9-0.9 0.9-1.5 0-0.7-0.3-1.6-1-2.6l-0.1-0.2v-0.2q0.1-3.3 0.2-7.9v-0.9zm9.3 18.1v0.1q-0.1 0.8 0 1.3 0.2 0.6 0.3 0.7 0 0.2 0.1 0.3 0 0 0 0 0.1 0.1 0.2 0.1 0.1-0.1 0.3-0.4v-0.1q0 0 0 0 0.1-0.1 0.1-0.2 0.2-0.3 0.3-1.2 0.2-0.9 0.1-2.2l-0.6-11.9z"/><path class="d" d="m97.2 36.3c-0.8 4.4-0.4 8.5 0.2 11.5 0.3 1.5 0.7 2.8 1 3.6q0.2 0.6 0.3 1 0.1 0.1 0.1 0.2 0 0 0 0.1 0 0 0 0l0.7 1.4-5.1-1.4 0.1-0.6q0 0 0-0.1 0-0.2 0-0.3c-0.1-0.3-0.2-0.4-0.5-0.5-0.3-0.1-0.5 0-0.7 0.2q-0.1 0.1-0.2 0.2-0.1 0.1-0.1 0.1 0 0 0 0l-0.3 0.6-7.9-2.1 1.3-1q0 0 0 0 0 0 0 0 0.1-0.1 0.2-0.2 0.3-0.2 0.8-0.6c0.7-0.6 1.6-1.5 2.6-2.6 2.1-2.3 4.5-5.6 6-9.9z"/><path class="d" d="m103.5 12.2c0 0.2 2.1 6.2 7.9 13 3.1 3.6 4.6 7.2 4.9 10.5 0.3 3.2-0.8 6.2-2.9 8.3-2.1 2.3-6.2 3.2-9.8 2.2-3.4-0.9-6.5-3.4-7.7-8-3.4 3.4-7.3 4-10.7 3.1-3.7-1-6.7-3.8-7.5-6.8l-0.1-0.4 0.3-0.3c1.4-1.4 2.1-2.7 2.3-3.8 0.2-1.2 0-2.5-0.5-4l-0.2-0.4 0.3-0.3c1.9-2.5 4.9-4.6 9.1-6.1q1.4-0.5 2.7-1.1 1.6-0.6 2.9-1.3l0.3-0.1 0.4 0.1c1 0.6 1.8 0.4 2.2 0.1 0.5-0.3 0.7-0.9 0.6-1.4l-0.1-0.5 0.4-0.3c2.5-1.5 3.9-2.7 4-2.8l0.8-0.7z"/><path class="a" d="m190.2 42.5q-1.2 1.2-2.9 2.1-1.7 0.9-3.7 1.4-1.9 0.4-4 0.4-2.1 0-4-0.7-1.9-0.7-3.5-2.1-1.6-1.4-2.6-3.6-1.2-2.5-1.4-5-0.2-2.4 0.3-4.7 0.6-2.3 1.8-4.3 1.2-2.1 2.9-3.7 1.7-1.7 3.8-2.9c2.3 0.7 4.2-0.3 4.5-1.8q2.3-0.6 4.2-0.3 2 0.2 3.6 0.9 1.6 0.7 2.7 1.8 1.2 1 1.7 2.1 1.1 2 1.6 4.5 0.5 2.5 0.2 5.2-0.3 2.7-1.5 5.5c-2.2-0.2-3.7 2.2-3.7 5.2zm-4.4-14.2q-0.5-1-1.4-1.5-0.9-0.5-2-0.4-1.1 0.1-2.2 0.6-1.1 0.6-2 1.6-0.9 0.9-1.5 2.3-0.5 1.4-0.5 3.1-0.1 1.6 0.4 2.6 0.5 1 1.2 1.5 0.8 0.5 1.8 0.6 0.9 0 1.9-0.3 0.9-0.4 1.8-1 0.8-0.7 1.4-1.5 0.8-1.3 1.2-2.4 0.4-1.2 0.4-2.1 0.1-0.9 0-1.7-0.2-0.8-0.5-1.4z"/><path class="b" d="m181.2 16.9q2.4-0.6 4.5-0.4 2.1 0.2 3.8 1 1.7 0.8 2.9 1.9l0.3 0.3q0.9 0.9 1.4 1.7l0.2 0.3v0.1q1.1 2.1 1.6 4.7l0.1 0.6q0.4 2.3 0.1 4.8-0.2 2.8-1.5 5.7l-0.2 0.5-0.6-0.1q-1.1-0.1-1.9 1.1c-0.6 0.8-0.9 2-0.9 3.4v0.3l-0.2 0.2q-1.3 1.3-3.2 2.3-1.7 0.9-3.8 1.4-2.1 0.5-4.2 0.5-2.2-0.1-4.3-0.8-2-0.7-3.7-2.2-1.8-1.5-2.8-3.9-1.2-2.6-1.4-5.2-0.2-2.6 0.3-5 0.6-2.4 1.8-4.5 1.3-2.1 3.1-3.8 1.7-1.8 3.9-3l0.3-0.2 0.3 0.1c2.1 0.6 3.4-0.4 3.6-1.2l0.1-0.5zm1.2 10.3q-0.9 0-1.9 0.5-0.9 0.5-1.8 1.4-0.8 0.8-1.3 2.1l-0.1 0.3q-0.4 1.2-0.4 2.5v0.1c-0.1 0.9 0.1 1.7 0.3 2.2q0.5 0.8 1 1.2 0.6 0.4 1.4 0.4 0.8 0 1.6-0.2 0.8-0.3 1.5-0.9 0.8-0.6 1.3-1.3 0.8-1.3 1.1-2.3 0.4-1 0.4-1.8v-0.1q0.1-0.8 0-1.4-0.2-0.7-0.4-1.2-0.4-0.9-1.1-1.2-0.7-0.4-1.6-0.3z"/><path class="a" d="m145.3 18.1l12.7 10.6 0.2-4.8c0 0 1.2-0.8 1.2-2.1 0-1.3-1.2-1.9-1.2-1.9l0.1-2.3 9.9 0.7-1.5 25.4-4.7-2.3c0 0 0.2-0.8-0.8-1.5-1.1-0.7-2.1 0-2.1 0l-5.2-2.5 0.5 7.8-9.6 0.6z"/><path class="b" d="m145.8 17.5l11.5 9.6 0.2-3.2v-0.4l0.3-0.2q0 0 0 0 0.1-0.1 0.1-0.1 0.2-0.1 0.3-0.3c0.3-0.3 0.5-0.6 0.5-1.1 0-0.4-0.2-0.7-0.4-0.9q-0.2-0.2-0.3-0.2-0.1-0.1-0.1-0.1 0 0 0 0l-0.4-0.2v-0.5-2.3l0.1-0.8 0.7 0.1 10 0.7h0.7v0.7l-1.6 25.5v1.1l-1-0.5-4.7-2.3-0.5-0.2 0.1-0.6q0 0 0 0 0-0.1 0-0.2c-0.1-0.1-0.2-0.4-0.6-0.6-0.3-0.2-0.6-0.2-0.8-0.2q-0.2 0.1-0.3 0.2-0.1 0-0.1 0 0 0 0 0l-0.4 0.2-0.4-0.2-3.9-1.9 0.4 6.6v0.7l-0.8 0.1-9.5 0.6h-0.8v-0.8l0.4-27.7 0.1-1.6zm13.7 23q0 0 0 0 0 0 0 0z"/><path class="a" d="m142.6 17.9l-0.4 7.2c0 0-1.5 0.4-1.7 2.5-0.2 2 1.4 2.6 1.4 2.6l-0.7 14.6-8.7 1 0.3-26.8z"/><path class="b" d="m142.4 25.9l0.6-0.2v-0.5l0.4-7.3v-0.9l-0.9 0.1-9.8 1.2-0.6 0.1v0.6l-0.4 26.8v0.9l0.9-0.1 8.7-1 0.7-0.1v-0.7l0.6-14.6 0.1-0.6-0.6-0.2q0 0 0 0 0 0-0.1 0-0.1-0.1-0.3-0.3c-0.2-0.2-0.5-0.7-0.4-1.5 0-0.8 0.4-1.2 0.6-1.5q0.2-0.1 0.4-0.2 0.1 0 0.1 0 0 0 0 0zm0 0q0 0 0 0 0 0 0 0 0 0 0 0z"/><path class="a" d="m125.6 28.5q1 0.5 2.1 1.1 1.1 0.6 2 1.5 0.9 0.8 1.4 2.1 0.6 1.2 0.7 2.8 0.1 2.4-0.8 4.2-0.8 1.8-2.4 3.1c-1.8-0.5-2.8 0-3.8 1.9q-2.2 0.7-4.7 0.8-1.2 0-2.4-0.2-1.3-0.1-2.5-0.4-1.2-0.3-2.3-0.7-1.1-0.4-2.1-0.9l2.5-7.1q0.5 0.2 1.2 0.5 0.7 0.3 1.5 0.6 0.8 0.3 1.7 0.5 0.8 0.2 1.7 0.1 1.2 0 2-0.4 0.9-0.4 0.9-1.2-0.1-0.6-0.6-0.9-0.6-0.3-1.3-0.6-0.5-0.1-1.4-0.4-0.8-0.2-1.7-0.6-0.9-0.4-1.9-1-0.9-0.5-1.7-1.3-0.8-0.8-1.3-1.9-0.5-1-0.6-2.4 0-2.3 0.8-4.1 0.9-1.9 2.4-3.1 1.5-1.3 3.5-2c1.6 1.6 4.2 0.9 4.3-0.8q2.1-0.1 4.1 0.2 2.1 0.3 3.9 1.1l-2 7.7q-1.3-0.6-2.4-1-1.1-0.4-2.6-0.6-0.4 0-1.1 0-0.7 0-1.4 0.1-0.7 0.2-1.2 0.5-0.5 0.3-0.5 0.9 0 0.3 0.2 0.5 0.3 0.1 0.6 0.2 0.4 0.1 0.7 0.1 0.4 0.1 0.6 0.1 1 0.2 1.5 0.3 0.6 0.2 0.6 0.2 0.9 0.2 1.8 0.5z"/><path class="b" d="m122.7 17q2.2-0.1 4.3 0.2 2.2 0.3 4.1 1.1l0.6 0.2-0.2 0.7-1.9 7.6-0.3 0.9-0.8-0.3q-1.3-0.6-2.3-1h-0.1q-1-0.3-2.4-0.5-0.3-0.1-1-0.1-0.6 0-1.3 0.2-0.5 0.1-0.9 0.3-0.1 0.1-0.1 0.2 0.1 0 0.2 0.1 0.3 0 0.6 0.1 0.4 0 0.6 0.1h0.1q0.9 0.2 1.5 0.3 0.3 0.1 0.4 0.1 0.1 0 0.1 0 0.1 0 0.1 0 0 0 0 0 0.7 0.2 1.4 0.5l0.5 0.1q1.1 0.5 2.2 1.1l0.2 0.2q1.1 0.6 1.9 1.4 1 1 1.6 2.3l0.2 0.4q0.5 1.2 0.5 2.8v0.3q0.1 2.3-0.8 4.2-0.9 2-2.7 3.4l-0.3 0.2-0.3-0.1c-0.8-0.2-1.3-0.2-1.7 0-0.4 0.2-0.8 0.6-1.2 1.6l-0.2 0.2-0.3 0.1q-2.3 0.7-4.9 0.8-1.2 0.1-2.5-0.1-1.3-0.1-2.5-0.5-1.3-0.3-2.4-0.7h-0.1q-1.1-0.4-2.1-0.9l-0.7-0.3 0.3-0.6 2.5-7.2 0.3-0.7 0.7 0.3q0.5 0.2 1.2 0.5 0.7 0.3 1.4 0.6 0.8 0.2 1.6 0.4 0.8 0.2 1.5 0.2h0.3q0.9-0.1 1.5-0.4c0.2-0.1 0.3-0.2 0.4-0.2q0-0.1 0-0.3c0-0.1 0-0.2-0.2-0.2v-0.1q-0.5-0.2-1.2-0.5-0.5-0.1-1.3-0.4-0.8-0.2-1.8-0.6-1-0.4-2-1l0.4-0.7-0.4 0.7q-1-0.6-1.9-1.5-0.8-0.9-1.4-2v-0.1q-0.6-1.2-0.6-2.7v-0.3q0-2.1 0.7-3.9l0.2-0.3q0.9-1.9 2.5-3.3l0.4-0.3q1.5-1.2 3.4-1.8l0.4-0.2 0.3 0.4c0.6 0.6 1.4 0.7 2 0.6 0.7-0.1 1-0.5 1-0.9l0.1-0.7z"/></svg>