<svg width="16" height="16" viewBox="0 0 16 16" fill="none" xmlns="http://www.w3.org/2000/svg">
<g opacity="0.5">
<path d="M15.971 0.0290362C16.1579 3.15086 15.4456 6.53106 13.725 9.15984C13.0576 10.1767 11.8767 11.0016 11.4223 11.7791C11.0957 12.3338 11.0436 13.1018 10.7549 13.6921C9.90053 15.4438 8.26281 16.1146 6.36713 15.9842L6.33163 13.2014C4.98975 12.687 3.326 11.0159 2.8219 9.68607L0.0434646 9.65051C-0.167167 8.27094 0.400828 6.7041 1.46345 5.79386C2.34857 5.03533 3.397 5.08511 4.24189 4.5897C4.83828 4.23888 5.42284 3.32153 6.0216 2.85456C8.74324 0.733047 12.5583 -0.17956 15.971 0.0290362ZM10.523 3.82169C8.80951 4.13458 9.21657 6.91032 11.1123 6.56425C12.8257 6.25135 12.4186 3.47561 10.523 3.82169Z" fill="white"/>
<path d="M3.08933 12.9312C3.59343 12.6823 5.09151 13.3341 4.85248 13.8722C3.90346 14.7232 2.46927 15.3039 1.19839 14.9413C0.474194 14.434 1.39482 11.855 2.02908 11.2837C2.68227 10.767 3.31653 12.3599 3.08933 12.9312Z" fill="white"/>
</g>
</svg>
