<svg width="14" height="16" viewBox="0 0 14 16" fill="none" xmlns="http://www.w3.org/2000/svg">
<path d="M8.25948 0H2.60782C1.16753 0 0 1.15779 0 2.58607V10.5061C0 11.9344 1.16753 13.0922 2.60782 13.0922H8.25948C9.69978 13.0922 10.8673 11.9344 10.8673 10.5061V2.58607C10.8673 1.15779 9.69978 0 8.25948 0ZM7.55483 7.21721C7.5259 7.72131 7.27587 8.18033 6.46376 8.18033C6.46376 8.18033 6.03601 8.18853 5.86244 8.0082C5.86244 8.0082 5.75291 8.55943 6.25506 8.99385H4.61432C5.11646 8.55943 5.00694 8.0082 5.00694 8.0082C4.83336 8.18853 4.40561 8.18033 4.40561 8.18033C3.59351 8.18033 3.34554 7.72131 3.31454 7.21721C3.27941 6.60656 3.40959 6.21926 3.56664 5.93033C3.84354 5.41598 4.28989 5.03074 4.63498 4.71926C5.07926 4.32172 5.43469 4.09426 5.43469 4.09426C5.43469 4.09426 5.79218 4.32172 6.23439 4.71926C6.57948 5.02869 7.02583 5.41393 7.30273 5.93033C7.45771 6.21926 7.58996 6.60656 7.55483 7.21721Z" fill="#90879F"/>
<path d="M11.4046 2.72336H10.2908C10.3073 2.88934 10.3197 3.05533 10.3259 3.22131C10.3404 3.52869 10.3259 3.84221 10.2949 4.15779H11.4025C12.0369 4.15779 12.5535 4.67008 12.5535 5.29918V13.4242C12.5535 14.0533 12.0369 14.5656 11.4025 14.5656H5.73018C5.09579 14.5656 4.57919 14.0533 4.57919 13.4242V11.5922C4.10804 11.7787 3.6245 11.9283 3.13269 12.0389V13.4242C3.13269 14.8463 4.29609 16 5.73018 16H11.4025C12.8366 16 14 14.8463 14 13.4242V5.29918C14 3.87705 12.8366 2.72336 11.4025 2.72336H11.4046Z" fill="#90879F"/>
</svg>
