<svg width="16" height="16" viewBox="0 0 16 16" fill="none" xmlns="http://www.w3.org/2000/svg">
<path d="M8 4.66027C9.84149 4.66027 11.3397 6.15851 11.3397 8C11.3397 9.84149 9.84149 11.3397 8 11.3397C6.15851 11.3397 4.66027 9.84149 4.66027 8C4.66027 6.15851 6.15851 4.66027 8 4.66027ZM8 3.04493C5.26401 3.04493 3.04493 5.26401 3.04493 8C3.04493 10.736 5.26401 12.9551 8 12.9551C10.736 12.9551 12.9551 10.736 12.9551 8C12.9551 5.26401 10.736 3.04493 8 3.04493Z" fill="#90879F"/>
<path d="M8 0C3.58203 0 0 3.58203 0 8C0 12.418 3.58203 16 8 16C12.418 16 16 12.418 16 8C16 3.58203 12.418 0 8 0ZM13.0379 11.9132L11.8688 10.7441C11.5659 11.1843 11.1903 11.5699 10.7622 11.8889L11.9112 13.0379C11.0268 13.7264 9.95861 14.1868 8.79354 14.3322V12.7532C8.49672 12.8097 8.1898 12.84 7.87683 12.84C7.64866 12.84 7.42251 12.8238 7.20242 12.7915V14.3301C6.03735 14.1848 4.96921 13.7244 4.08481 13.0358L5.13276 11.9879C4.69258 11.685 4.3049 11.3115 3.98587 10.8854L2.96012 11.9112C2.27158 11.0268 1.81121 9.95861 1.66583 8.79354H3.09541C3.05098 8.53104 3.02675 8.26249 3.02675 7.98789C3.02675 7.71328 3.04897 7.45684 3.09137 7.20242H1.66583C1.81121 6.03735 2.27158 4.96921 2.96012 4.08481L3.97779 5.10247C4.2948 4.67441 4.68248 4.29884 5.12267 3.99596L4.08481 2.9581C4.96921 2.26956 6.03735 1.80919 7.20242 1.66381V3.18425C7.42251 3.15396 7.64866 3.13579 7.87683 3.13579C8.1898 3.13579 8.49672 3.16608 8.79354 3.22262V1.66179C9.95861 1.80717 11.0268 2.26754 11.9112 2.95608L10.7723 4.0949C11.2004 4.41393 11.574 4.80162 11.8748 5.2418L13.0358 4.08077C13.7244 4.96517 14.1848 6.03332 14.3301 7.19839H12.6623C12.7047 7.45482 12.7269 7.71732 12.7269 7.98385C12.7269 8.25038 12.7027 8.52701 12.6583 8.7895H14.3301C14.1848 9.95457 13.7244 11.0227 13.0358 11.9071L13.0379 11.9132Z" fill="#90879F"/>
<path d="M7.29127 6.42706C7.06916 6.42706 6.84907 6.51186 6.67946 6.67946C6.34225 7.01666 6.34225 7.56386 6.67946 7.90106L8.09692 9.31853C8.26653 9.48814 8.48662 9.57092 8.70873 9.57092C8.93084 9.57092 9.15093 9.48612 9.32055 9.31853C9.65775 8.98132 9.65775 8.43412 9.32055 8.09692L7.90308 6.67946C7.73347 6.50984 7.51338 6.42706 7.29127 6.42706Z" fill="#90879F"/>
<path d="M8.70873 6.42706C8.48662 6.42706 8.26653 6.51186 8.09692 6.67946L6.67946 8.09692C6.34225 8.43412 6.34225 8.98132 6.67946 9.31853C6.84907 9.48814 7.06916 9.57092 7.29127 9.57092C7.51338 9.57092 7.73347 9.48612 7.90308 9.31853L9.32055 7.90106C9.65775 7.56386 9.65775 7.01666 9.32055 6.67946C9.15093 6.50984 8.93084 6.42706 8.70873 6.42706Z" fill="#90879F"/>
</svg>
