<svg width="11" height="16" viewBox="0 0 11 16" fill="none" xmlns="http://www.w3.org/2000/svg">
<path d="M6.87322 16V11.4032C6.87322 10.1944 4.12851 10.1944 4.12851 11.4032V16H0.267892C0.136201 16 -0.0613348 15.6023 0.0183728 15.4184L1.71302 6.36143L9.37015 6.44903L10.9816 15.4184C11.0613 15.6023 10.8638 16 10.7321 16H6.87149H6.87322Z" fill="#90879F"/>
<path d="M0.354531 0.303607C0.484489 -0.125591 2.17221 0.0233148 2.59501 0.117914L2.85492 2.12726H4.13024C4.21515 1.65427 3.88766 0.240542 4.41095 0.0671105L6.71381 0.117914L6.87322 2.12376H8.24731L8.40673 0.117914C8.63719 -0.0450066 10.4063 -0.0852986 10.6472 0.301856V3.85807H0.354531V0.303607Z" fill="#90879F"/>
<path d="M10.4757 4.55179C10.1984 4.82858 9.84146 5.56961 9.53823 5.60639L1.33355 5.59588L0.526075 4.55179H10.4774H10.4757Z" fill="#90879F"/>
</svg>
