<svg width="16" height="16" viewBox="0 0 16 16" fill="none" xmlns="http://www.w3.org/2000/svg">
<path d="M15.3404 7.34044H14.3137C14.1832 6.08223 13.6854 4.93539 12.9302 4.00435L13.6576 3.27692C13.9152 3.01936 13.9152 2.6017 13.6576 2.3424C13.4 2.0831 12.9824 2.08484 12.7231 2.3424L11.9956 3.06983C11.0646 2.31455 9.91777 1.81684 8.65956 1.68632V0.659561C8.65956 0.294105 8.36372 0 8 0C7.63454 0 7.34044 0.295845 7.34044 0.659561V1.68632C6.08223 1.81684 4.93539 2.31455 4.00435 3.06983L3.27692 2.3424C3.01936 2.08484 2.6017 2.08484 2.3424 2.3424C2.0831 2.59996 2.08484 3.01762 2.3424 3.27692L3.06983 4.00435C2.31455 4.93539 1.81684 6.08223 1.68632 7.34044H0.659561C0.294105 7.34044 0 7.63628 0 8C0 8.36372 0.295845 8.65956 0.659561 8.65956H1.68632C1.81684 9.91777 2.31455 11.0646 3.06983 11.9956L2.3424 12.7231C2.08484 12.9806 2.08484 13.3983 2.3424 13.6576C2.59996 13.9169 3.01762 13.9152 3.27692 13.6576L4.00435 12.9302C4.93539 13.6854 6.08223 14.1832 7.34044 14.3137V15.3404C7.34044 15.7059 7.63628 16 8 16C8.36546 16 8.65956 15.7042 8.65956 15.3404V14.3137C9.91777 14.1832 11.0646 13.6854 11.9956 12.9302L12.7231 13.6576C12.9806 13.9152 13.3983 13.9152 13.6576 13.6576C13.9169 13.4 13.9152 12.9824 13.6576 12.7231L12.9302 11.9956C13.6854 11.0646 14.1832 9.91777 14.3137 8.65956H15.3404C15.7059 8.65956 16 8.36372 16 8C16 7.63628 15.7042 7.34044 15.3404 7.34044ZM5.31129 7.81727C4.73526 7.81727 4.26713 7.34914 4.26713 6.77311C4.26713 6.19708 4.73526 5.72895 5.31129 5.72895C5.88732 5.72895 6.35545 6.19708 6.35545 6.77311C6.35545 7.34914 5.88732 7.81727 5.31129 7.81727Z" fill="#90879F"/>
</svg>
