<svg width="16" height="15" viewBox="0 0 16 15" fill="none" xmlns="http://www.w3.org/2000/svg">
<g opacity="0.5">
<path d="M1.45874 0C6.23516 0.27664 8.16463 5.28417 11.4073 8.06808L9.52682 9.94853C6.78493 6.63936 1.72487 4.83244 1.45874 0Z" fill="white"/>
<path d="M14.4992 0C14.2751 2.90647 12.8324 4.57681 10.5527 6.16312L8.81934 4.09707V3.44224C10.1955 1.29215 11.9254 0.252127 14.4992 0Z" fill="white"/>
<path d="M5.13888 9.36028C5.31046 9.53187 6.64114 12.3508 6.60612 12.5224L5.75169 13.0441C5.1879 12.2738 1.32195 9.05563 1.45502 8.41481C1.67213 7.37478 4.82022 9.04162 5.13888 9.36028Z" fill="white"/>
<path d="M10.8154 9.36025C10.9869 9.18867 13.8059 7.858 13.9775 7.89301L14.4992 8.74744C13.7288 9.31123 10.5107 13.1772 9.86988 13.0441C8.82986 12.827 10.4967 9.67891 10.8154 9.36025Z" fill="white"/>
<path d="M2.24997 13.1562C1.80875 13.6325 1.80525 15.5479 0.11039 13.8671C-0.386861 12.3228 0.933306 12.6275 1.34301 12.2493C1.67568 11.9411 1.88229 11.1007 2.34802 10.9991C2.76823 10.9081 3.59465 11.7345 3.50361 12.1547C3.40205 12.6205 2.55813 12.8271 2.25347 13.1597L2.24997 13.1562Z" fill="white"/>
<path d="M14.6113 12.2491C15.0875 12.6903 17.003 12.6938 15.3222 14.3887C13.7779 14.8859 14.0825 13.5658 13.7043 13.1561C13.3962 12.8234 12.5558 12.6168 12.4542 12.1511C12.3632 11.7308 13.1896 10.9044 13.6098 10.9955C14.0755 11.097 14.2821 11.941 14.6148 12.2456L14.6113 12.2491Z" fill="white"/>
<path d="M5.39821 7.29761L7.26465 8.79987L6.43123 9.94845L4.55078 8.068L5.39821 7.29761Z" fill="white"/>
</g>
</svg>
