<svg width="16" height="14" viewBox="0 0 16 14" fill="none" xmlns="http://www.w3.org/2000/svg">
<path opacity="0.5" d="M15.9268 14H0V7.36416C0 7.18145 0.679876 6.46616 0.710048 6.21154C0.770392 5.68479 0.108619 4.31253 0.0422408 3.65361C-0.138791 1.84984 1.95716 0.337632 3.683 0.149091C5.64217 -0.0647172 10.0533 -0.031674 12.0527 0.141317C13.6036 0.275433 15.7619 1.51941 15.9228 3.14824C16.0032 3.9646 15.2952 5.06669 15.3193 5.83251C15.3334 6.32816 15.8443 6.83547 15.9268 7.55464C16.1561 9.57027 15.7578 11.9436 15.9268 13.9981V14ZM13.9334 4.95978C14.5208 3.4398 14.0541 1.97424 12.2297 1.70212C10.7593 1.48248 5.19763 1.50192 3.7011 1.70795C1.8063 1.96841 1.18475 3.7022 2.28905 5.14832C3.1218 3.8888 4.3146 4.23478 5.42694 3.95294C6.07262 3.78772 6.4025 3.23765 7.46456 3.21433C8.64529 3.18712 11.2944 4.3378 12.4973 4.71488C12.9156 4.84705 13.4889 4.79846 13.9334 4.96173V4.95978ZM1.59308 7.84426H14.3337C14.5047 5.77614 11.9139 6.58084 11.7731 6.48171C11.6203 6.37286 11.6283 5.82862 10.9565 5.62259C10.1599 5.37768 9.68522 5.80141 9.28695 5.7431C9.18839 5.72755 8.72374 4.79651 7.65766 4.75375C6.43268 4.70321 5.9459 5.72755 5.83929 5.7431C5.37062 5.81113 4.92206 5.30771 4.02897 5.68285C3.1922 6.03466 3.27668 6.95598 3.15599 7.05122C2.98502 7.18922 1.49452 6.94237 1.58906 7.8462L1.59308 7.84426ZM7.70594 9.40895C6.8933 9.62664 6.76457 12.6083 8.05191 12.4684C9.11195 12.3809 8.95103 9.75882 8.36167 9.47309C8.15248 9.35452 7.93524 9.34675 7.70594 9.40895Z" fill="white"/>
</svg>
