<svg width="24" height="24" viewBox="0 0 24 24" fill="none" xmlns="http://www.w3.org/2000/svg">
<path d="M3.50035 21.9999C3.00035 21.9999 2.50035 21.8999 2.00035 21.5999C0.600353 20.7999 0.100353 18.8999 0.900353 17.4999L9.40035 3.2999C9.70035 2.8999 10.0004 2.4999 10.4004 2.2999C11.1004 1.8999 11.9004 1.7999 12.7004 1.9999C13.5004 2.1999 14.1004 2.6999 14.6004 3.3999L23.0004 17.4999C23.3004 17.9999 23.4004 18.4999 23.4004 18.9999C23.4004 19.7999 23.1004 20.5999 22.5004 21.0999C22.0004 21.6999 21.3004 21.9999 20.5004 21.9999H3.50035ZM11.1004 4.3999L2.70035 18.4999C2.40035 18.9999 2.60035 19.5999 3.10035 19.8999C3.20035 19.9999 3.40035 19.9999 3.50035 19.9999H20.4004C20.7004 19.9999 20.9004 19.8999 21.1004 19.6999C21.3004 19.4999 21.4004 19.2999 21.4004 18.9999C21.4004 18.7999 21.4004 18.6999 21.3004 18.4999L12.9004 4.3999C12.6004 3.8999 12.0004 3.7999 11.5004 3.9999C11.3004 4.0999 11.2004 4.1999 11.1004 4.3999Z" fill="#FFDD7F"/>
<path d="M12.0004 13.9999C11.4004 13.9999 11.0004 13.5999 11.0004 12.9999V8.9999C11.0004 8.3999 11.4004 7.9999 12.0004 7.9999C12.6004 7.9999 13.0004 8.3999 13.0004 8.9999V12.9999C13.0004 13.5999 12.6004 13.9999 12.0004 13.9999Z" fill="#FFDD7F"/>
<path d="M12.0004 17.9999C11.7004 17.9999 11.5004 17.8999 11.3004 17.6999C11.1004 17.4999 11.0004 17.2999 11.0004 16.9999C11.0004 16.8999 11.0004 16.6999 11.1004 16.5999C11.2004 16.4999 11.2004 16.3999 11.3004 16.2999C11.4004 16.1999 11.5004 16.0999 11.6004 16.0999C11.8004 15.9999 12.0004 15.9999 12.2004 15.9999C12.3004 15.9999 12.3004 15.9999 12.4004 16.0999C12.5004 16.0999 12.5004 16.0999 12.6004 16.1999C12.6004 16.1999 12.7004 16.2999 12.8004 16.2999C12.9004 16.3999 13.0004 16.4999 13.0004 16.5999C13.0004 16.6999 13.1004 16.8999 13.1004 16.9999C13.1004 17.2999 13.0004 17.4999 12.8004 17.6999C12.5004 17.8999 12.3004 17.9999 12.0004 17.9999Z" fill="#FFDD7F"/>
</svg>
