<svg width="64" height="64" viewBox="0 0 64 64" fill="none" xmlns="http://www.w3.org/2000/svg">
<path d="M19.1045 2.78613C19.086 2.7784 19.0421 2.76181 18.9424 2.80762C13.4749 5.32163 8.85732 9.36926 5.64258 14.3984C5.35579 14.8473 5.33356 15.4577 5.4668 16.3281C5.53399 16.767 5.62114 17.1718 5.70703 17.6562C5.78789 18.1123 5.86035 18.6034 5.86035 19.0859C5.86011 20.9316 4.36234 22.4268 2.5166 22.4268C2.34171 22.4268 2.17892 22.4689 2.06641 22.5303C1.96024 22.5882 1.93293 22.6416 1.92383 22.6738C1.15959 25.377 0.75 28.23 0.75 31.1797C0.750074 41.8814 6.13818 51.3258 14.3545 56.9502C14.6015 57.1192 14.9227 57.2014 15.3613 57.2256C15.8491 57.2524 16.246 57.209 16.8398 57.209C18.5232 57.209 19.9161 58.4533 20.1484 60.0723C23.7967 61.5662 27.7905 62.3925 31.9795 62.3926C44.565 62.3926 55.4129 54.9515 60.3574 44.2285C60.4012 44.1336 60.3851 44.0941 60.3789 44.0791C60.3659 44.0481 60.3253 43.991 60.2324 43.9414C60.0345 43.836 59.796 43.8577 59.6387 44.0146C48.4643 55.1832 30.3472 55.1832 19.1729 44.0146C18.2143 43.0566 17.3374 42.0472 16.543 40.9951C16.2805 40.6477 15.7609 40.4444 15.1113 40.4443C12.4471 40.4443 10.2871 38.2858 10.2871 35.6221C10.2871 34.3348 10.63 32.9971 10.8877 31.8145C11.1564 30.5812 11.3427 29.4841 11.1758 28.4727C9.72504 19.686 12.3898 10.3488 19.1729 3.56934C19.3389 3.40327 19.362 3.15045 19.252 2.94238C19.2 2.84437 19.139 2.80054 19.1045 2.78613Z" fill="white" stroke="white" stroke-width="1.5"/>
</svg>
